<svg width="50" height="50" viewBox="0 0 50 50" fill="none" xmlns="http://www.w3.org/2000/svg">
<rect width="50" height="50" rx="10" fill="#5B8DD2"/>
<path d="M32.1016 17.1636C32.0524 17.1812 30.4352 18.7738 28.5087 20.7038L25.0001 24.2089L21.495 20.7038C17.6805 16.8929 17.9231 17.1144 17.5926 17.1777C17.4204 17.2093 17.2094 17.4202 17.1778 17.5925C17.1145 17.923 16.893 17.6804 20.704 21.4913L24.2091 24.9999L20.6864 28.5226C16.8649 32.3511 17.0794 32.112 17.1391 32.439C17.1708 32.6042 17.3958 32.8292 17.561 32.8609C17.888 32.9206 17.6489 33.1351 21.4739 29.3136L25.0001 25.7909L28.5227 29.3136C32.3548 33.1421 32.1122 32.9206 32.4426 32.8574C32.6149 32.8257 32.8258 32.6148 32.8575 32.4425C32.9208 32.112 33.1423 32.3546 29.3137 28.5261L25.7911 24.9999L29.3137 21.4773C33.1317 17.6558 32.9208 17.8878 32.861 17.5644C32.8012 17.2445 32.4145 17.0406 32.1016 17.1636Z" fill="white"/>
</svg>
