<svg width="48" height="47" viewBox="0 0 48 47" fill="none" xmlns="http://www.w3.org/2000/svg">
<path d="M21.6846 17.6339C21.54 17.4824 21.3472 17.3998 21.1269 17.3998C20.6794 17.3998 20.3283 17.7509 20.3283 18.1984C20.3283 18.4187 20.4109 18.6253 20.5692 18.7767L25.4092 23.4997L20.5692 28.2226C20.4109 28.3741 20.3283 28.5806 20.3283 28.801C20.3283 29.2416 20.6794 29.5927 21.1269 29.5927C21.3472 29.5927 21.54 29.517 21.6846 29.3655L27.0547 24.1193C27.2337 23.9472 27.3301 23.7338 27.3301 23.4997C27.3301 23.2656 27.2406 23.0591 27.0547 22.8801L21.6846 17.6339Z" fill="#5086CF"/>
<circle cx="23.6602" cy="23.5" r="23" transform="rotate(-180 23.6602 23.5)" stroke="#5086CF"/>
</svg>
