<svg width="47" height="47" viewBox="0 0 47 47" fill="none" xmlns="http://www.w3.org/2000/svg">
<path d="M25.4756 29.3661C25.6202 29.5176 25.8129 29.6002 26.0333 29.6002C26.4808 29.6002 26.8319 29.2491 26.8319 28.8016C26.8319 28.5813 26.7493 28.3747 26.5909 28.2233L21.7509 23.5003L26.5909 18.7774C26.7493 18.6259 26.8319 18.4194 26.8319 18.199C26.8319 17.7584 26.4808 17.4073 26.0333 17.4073C25.8129 17.4073 25.6202 17.483 25.4756 17.6345L20.1055 22.8807C19.9265 23.0528 19.8301 23.2662 19.8301 23.5003C19.8301 23.7344 19.9196 23.9409 20.1055 24.1199L25.4756 29.3661Z" fill="#5086CF"/>
<circle cx="23.5" cy="23.5" r="23" stroke="#5086CF"/>
</svg>
