<svg width="60" height="60" viewBox="0 0 60 60" fill="none" xmlns="http://www.w3.org/2000/svg">
<circle cx="30" cy="30" r="29.5" stroke="#D9D9D9"/>
<g opacity="0.3">
<path d="M30.1621 37.4902C30.6851 37.4902 31.0392 37.1281 31.0392 36.597V26.6025L30.9748 24.8723L33.0993 27.2382L34.926 29.0408C35.0869 29.1936 35.3042 29.2983 35.5536 29.2983C36.0365 29.2983 36.3905 28.9281 36.3905 28.4372C36.3905 28.2039 36.302 27.9946 36.1169 27.8015L30.8139 22.4904C30.6369 22.3134 30.4035 22.2087 30.1621 22.2087C29.9207 22.2087 29.6873 22.3134 29.5103 22.4904L24.2072 27.8015C24.0221 27.9946 23.9336 28.2039 23.9336 28.4372C23.9336 28.9281 24.2957 29.2983 24.7785 29.2983C25.02 29.2983 25.2453 29.1936 25.3982 29.0408L27.2249 27.2382L29.3493 24.8643L29.2849 26.6025V36.597C29.2849 37.1281 29.6471 37.4902 30.1621 37.4902Z" fill="#1C1C1E"/>
</g>
</svg>
