<svg width="16" height="27" viewBox="0 0 16 27" fill="none" xmlns="http://www.w3.org/2000/svg">
<path d="M13.3498 25.2894L13.3438 25.2831L13.3375 25.277L1.88635 14.0901L1.88636 14.0901L1.88377 14.0876C1.57796 13.7931 1.44971 13.4799 1.44971 13.1264C1.44971 12.7756 1.59064 12.4472 1.8835 12.1656L1.88351 12.1656L1.88635 12.1628L13.3375 0.975917L13.3438 0.969814L13.3498 0.963499C13.5536 0.749931 13.8288 0.633788 14.1773 0.633788C14.8582 0.633788 15.3803 1.16149 15.3803 1.8221C15.3803 2.16482 15.2533 2.47162 15.0208 2.69398L15.0208 2.69396L15.0172 2.69745L4.6965 12.7686L4.32978 13.1264L4.6965 13.4843L15.0172 23.5554L15.0172 23.5555L15.0208 23.5589C15.2533 23.7813 15.3803 24.0881 15.3803 24.4308C15.3803 25.1089 14.8554 25.6338 14.1773 25.6338C13.8405 25.6338 13.5613 25.5109 13.3498 25.2894Z" fill="#5086CF" stroke="#5086CF"/>
</svg>
