<svg width="142" height="48" viewBox="0 0 142 48" fill="none" xmlns="http://www.w3.org/2000/svg">
<path d="M55.6775 32.9689L55.6838 32.9629L55.6899 32.9566L66.8768 21.5055L66.8768 21.5055L66.8793 21.5029C67.1738 21.1971 67.487 21.0688 67.8405 21.0688C68.1914 21.0688 68.5197 21.2098 68.8013 21.5026L68.8013 21.5027L68.8041 21.5055L79.991 32.9566L79.9971 32.9629L80.0034 32.9689C80.217 33.1728 80.3331 33.4479 80.3331 33.7964C80.3331 34.4774 79.8054 34.9994 79.1448 34.9994C78.8021 34.9994 78.4953 34.8724 78.2729 34.64L78.273 34.6399L78.2695 34.6364L68.1983 24.3156L67.8405 23.9489L67.4826 24.3156L57.4115 34.6364L57.4115 34.6363L57.408 34.64C57.1856 34.8724 56.8788 34.9994 56.5361 34.9994C55.858 34.9994 55.3331 34.4745 55.3331 33.7964C55.3331 33.4596 55.456 33.1804 55.6775 32.9689Z" fill="#5086CF" stroke="#5086CF"/>
</svg>
