<svg width="15" height="26" viewBox="0 0 15 26" fill="none" xmlns="http://www.w3.org/2000/svg">
<path d="M12.4001 25.1556L12.394 25.1493L12.3878 25.1432L0.936641 13.9563L0.93665 13.9563L0.934059 13.9538C0.628248 13.6593 0.499999 13.3461 0.499999 12.9927C0.499999 12.6418 0.640932 12.3134 0.933793 12.0318L0.933804 12.0318L0.936641 12.029L12.3878 0.842128L12.394 0.836027L12.4001 0.829709C12.6039 0.616142 12.8791 0.499999 13.2276 0.499999C13.9085 0.499999 14.4305 1.0277 14.4305 1.68831C14.4305 2.03103 14.3036 2.33783 14.0711 2.56019L14.0711 2.56017L14.0675 2.56366L3.74679 12.6348L3.38007 12.9927L3.74679 13.3505L14.0675 23.4217L14.0675 23.4217L14.0711 23.4251C14.3036 23.6475 14.4305 23.9543 14.4305 24.297C14.4305 24.9751 13.9057 25.5 13.2276 25.5C12.8908 25.5 12.6115 25.3772 12.4001 25.1556Z" fill="#5086CF" stroke="#5086CF"/>
</svg>
