<svg width="47" height="142" viewBox="0 0 47 142" fill="none" xmlns="http://www.w3.org/2000/svg">
<path d="M32.3498 86.2892L32.3438 86.2828L32.3375 86.2767L20.8863 75.0898L20.8864 75.0898L20.8838 75.0873C20.578 74.7928 20.4497 74.4797 20.4497 74.1262C20.4497 73.7753 20.5906 73.4469 20.8835 73.1653L20.8835 73.1653L20.8863 73.1626L32.3375 61.9757L32.3438 61.9696L32.3498 61.9633C32.5536 61.7497 32.8288 61.6335 33.1773 61.6335C33.8582 61.6335 34.3803 62.1612 34.3803 62.8219C34.3803 63.1646 34.2533 63.4714 34.0208 63.6937L34.0208 63.6937L34.0172 63.6972L23.6965 73.7684L23.3298 74.1262L23.6965 74.4841L34.0172 84.5552L34.0172 84.5552L34.0208 84.5587C34.2533 84.781 34.3803 85.0878 34.3803 85.4306C34.3803 86.1087 33.8554 86.6335 33.1773 86.6335C32.8405 86.6335 32.5613 86.5107 32.3498 86.2892Z" fill="#5086CF" stroke="#5086CF"/>
</svg>
