<svg width="175" height="53" viewBox="0 0 175 53" fill="none" xmlns="http://www.w3.org/2000/svg">
<rect width="175" height="53" rx="26.5" fill="#5086CF"/>
<g clip-path="url(#clip0_1_188)">
<path d="M27.0915 10.097C25.2417 10.3742 23.7786 11.1089 22.4444 12.4431C21.0715 13.816 20.3239 15.35 20.0725 17.2771C19.9758 18.0312 19.9758 34.9695 20.0725 35.7236C20.3239 37.6507 21.0715 39.1847 22.4444 40.5576C23.8172 41.9304 25.3512 42.6781 27.2784 42.9294C28.0325 43.0261 44.9708 43.0261 45.7249 42.9294C47.652 42.6781 49.186 41.9304 50.5588 40.5576C51.9317 39.1847 52.6793 37.6507 52.9307 35.7236C53.0274 34.9695 53.0274 18.0312 52.9307 17.2771C52.6793 15.35 51.9317 13.816 50.5588 12.4431C49.186 11.0703 47.652 10.3226 45.7249 10.0712C44.8999 9.96167 27.8198 9.98745 27.0915 10.097ZM46.4081 13.0103C47.1364 13.2617 47.2975 13.3455 47.8969 13.758C48.8508 14.4154 49.6049 15.4402 49.9852 16.5939L50.1979 17.2513V26.5003C50.1979 35.3498 50.1915 35.7687 50.0754 36.1361C49.6436 37.5347 48.8959 38.5724 47.7938 39.3201C47.3168 39.6423 46.9043 39.8292 46.234 40.0419L45.7506 40.1966H36.5016H27.2526L26.5952 39.9839C24.7905 39.391 23.5272 38.0697 22.9278 36.1361C22.8118 35.7687 22.8053 35.3498 22.8053 26.5003C22.8053 17.6509 22.8118 17.232 22.9278 16.8646C23.3854 15.3951 24.1846 14.3251 25.377 13.5775C25.8797 13.2617 26.7434 12.9265 27.2784 12.8363C27.4395 12.8105 31.6805 12.7912 36.695 12.7976L45.8151 12.8041L46.4081 13.0103Z" fill="white"/>
<path d="M45.0088 15.569C44.5512 15.6721 44.2869 15.8139 43.9775 16.1298C43.5586 16.5616 43.4297 16.9032 43.4297 17.5735C43.4297 18.0762 43.4555 18.1987 43.6037 18.4759C43.9582 19.1462 44.5576 19.5393 45.3053 19.5909C45.8531 19.6231 46.1432 19.5458 46.6008 19.2364C47.8834 18.3727 47.7352 16.4069 46.343 15.743C45.866 15.5175 45.4857 15.4659 45.0088 15.569Z" fill="white"/>
<path d="M35.4434 18.3215C32.3303 18.7533 29.6748 20.9189 28.708 23.8322C28.3793 24.8248 28.2891 25.3984 28.2891 26.5006C28.2891 27.6027 28.3793 28.1764 28.708 29.1754C29.4879 31.5086 31.4988 33.5131 33.8449 34.2994C34.8246 34.6217 35.4047 34.7119 36.5004 34.7119C37.5961 34.7119 38.1762 34.6217 39.1559 34.2994C41.502 33.5131 43.5129 31.5086 44.2928 29.1754C44.6215 28.1764 44.7117 27.6027 44.7117 26.5006C44.7117 25.0568 44.4346 23.8773 43.8094 22.6979C42.617 20.4613 40.5674 18.9209 38.0795 18.4117C37.4607 18.2828 36.0557 18.2313 35.4434 18.3215ZM38.1568 21.2734C38.8465 21.499 39.0334 21.5893 39.5619 21.9438C40.6447 22.6721 41.373 23.684 41.792 25.0182C41.9209 25.4371 41.9467 25.6369 41.9467 26.5006C41.9467 27.5641 41.8693 27.9572 41.4891 28.8016C41.0121 29.8844 39.8842 31.0123 38.7949 31.4957C37.957 31.8695 37.5639 31.9469 36.5004 31.9469C35.4369 31.9469 35.0438 31.8695 34.2059 31.4957C33.1166 31.0123 31.9887 29.8844 31.5117 28.8016C31.1314 27.9572 31.0541 27.5641 31.0541 26.5006C31.0541 25.6369 31.0799 25.4371 31.2088 25.0182C31.4279 24.3221 31.6213 23.916 31.9887 23.3811C32.717 22.324 33.7354 21.5957 34.9857 21.2283C35.6238 21.0414 35.7205 21.0285 36.6938 21.0543C37.4607 21.0736 37.6348 21.0994 38.1568 21.2734Z" fill="white"/>
</g>
<path d="M66.1705 19.9091V33H64.5852V19.9091H66.1705ZM70.6529 27.0938V33H69.1444V23.1818H70.6017V24.7159H70.7296C70.9597 24.2173 71.3091 23.8168 71.7779 23.5142C72.2466 23.2074 72.8517 23.054 73.5932 23.054C74.258 23.054 74.8397 23.1903 75.3382 23.4631C75.8368 23.7315 76.2246 24.1406 76.5016 24.6903C76.7786 25.2358 76.9171 25.9261 76.9171 26.7614V33H75.4086V26.8636C75.4086 26.0923 75.2083 25.4915 74.8077 25.0611C74.4071 24.6264 73.8574 24.4091 73.1586 24.4091C72.677 24.4091 72.2466 24.5135 71.8674 24.7223C71.4924 24.9311 71.1962 25.2358 70.9789 25.6364C70.7615 26.0369 70.6529 26.5227 70.6529 27.0938ZM86.6282 25.3807L85.2731 25.7642C85.1879 25.5384 85.0621 25.3189 84.896 25.1058C84.734 24.8885 84.5124 24.7095 84.2312 24.5689C83.9499 24.4283 83.5898 24.358 83.1509 24.358C82.5501 24.358 82.0494 24.4964 81.6488 24.7734C81.2525 25.0462 81.0543 25.3935 81.0543 25.8153C81.0543 26.1903 81.1907 26.4865 81.4634 26.7038C81.7362 26.9212 82.1623 27.1023 82.7418 27.2472L84.1992 27.6051C85.0771 27.8182 85.7312 28.1442 86.1616 28.5831C86.592 29.0178 86.8072 29.5781 86.8072 30.2642C86.8072 30.8267 86.6452 31.3295 86.3214 31.7727C86.0018 32.2159 85.5543 32.5653 84.979 32.821C84.4038 33.0767 83.7347 33.2045 82.9719 33.2045C81.9705 33.2045 81.1417 32.9872 80.4854 32.5526C79.8292 32.1179 79.4137 31.483 79.239 30.6477L80.6708 30.2898C80.8072 30.8182 81.065 31.2145 81.4442 31.4787C81.8278 31.7429 82.3285 31.875 82.9464 31.875C83.6495 31.875 84.2077 31.7259 84.6211 31.4276C85.0387 31.125 85.2475 30.7628 85.2475 30.3409C85.2475 30 85.1282 29.7145 84.8896 29.4844C84.6509 29.25 84.2844 29.0753 83.7901 28.9602L82.1538 28.5767C81.2546 28.3636 80.5941 28.0334 80.1722 27.5859C79.7546 27.1342 79.5458 26.5696 79.5458 25.892C79.5458 25.3381 79.7013 24.848 80.0124 24.4219C80.3278 23.9957 80.756 23.6612 81.2972 23.4183C81.8427 23.1754 82.4606 23.054 83.1509 23.054C84.1225 23.054 84.8853 23.267 85.4393 23.6932C85.9975 24.1193 86.3938 24.6818 86.6282 25.3807ZM93.3478 23.1818V24.4602H88.2598V23.1818H93.3478ZM89.7427 20.8295H91.2512V30.1875C91.2512 30.6136 91.313 30.9332 91.4366 31.1463C91.5645 31.3551 91.7264 31.4957 91.9224 31.5682C92.1227 31.6364 92.3336 31.6705 92.5552 31.6705C92.7214 31.6705 92.8578 31.6619 92.9643 31.6449C93.0708 31.6236 93.1561 31.6065 93.22 31.5938L93.5268 32.9489C93.4245 32.9872 93.2818 33.0256 93.0985 33.0639C92.9153 33.1065 92.6831 33.1278 92.4018 33.1278C91.9757 33.1278 91.5581 33.0362 91.149 32.853C90.7441 32.6697 90.4075 32.3906 90.139 32.0156C89.8748 31.6406 89.7427 31.1676 89.7427 30.5966V20.8295ZM95.617 33V23.1818H97.0744V24.6648H97.1767C97.3556 24.179 97.6795 23.7848 98.1483 23.4822C98.617 23.1797 99.1454 23.0284 99.7335 23.0284C99.8443 23.0284 99.9828 23.0305 100.149 23.0348C100.315 23.0391 100.441 23.0455 100.526 23.054V24.5881C100.475 24.5753 100.358 24.5561 100.175 24.5305C99.9956 24.5007 99.8059 24.4858 99.6056 24.4858C99.1284 24.4858 98.7022 24.5859 98.3272 24.7862C97.9565 24.9822 97.6625 25.255 97.4451 25.6044C97.2321 25.9496 97.1255 26.3437 97.1255 26.7869V33H95.617ZM105.203 33.2301C104.581 33.2301 104.017 33.1129 103.51 32.8786C103.002 32.6399 102.6 32.2969 102.301 31.8494C102.003 31.3977 101.854 30.8523 101.854 30.2131C101.854 29.6506 101.965 29.1946 102.186 28.8452C102.408 28.4915 102.704 28.2145 103.075 28.0142C103.446 27.8139 103.855 27.6648 104.302 27.5668C104.754 27.4645 105.208 27.3835 105.664 27.3239C106.26 27.2472 106.744 27.1896 107.115 27.1513C107.49 27.1087 107.762 27.0384 107.933 26.9403C108.108 26.8423 108.195 26.6719 108.195 26.429V26.3778C108.195 25.7472 108.022 25.2571 107.677 24.9077C107.336 24.5582 106.819 24.3835 106.124 24.3835C105.404 24.3835 104.839 24.5412 104.43 24.8565C104.021 25.1719 103.733 25.5085 103.567 25.8665L102.135 25.3551C102.391 24.7585 102.732 24.294 103.158 23.9616C103.588 23.625 104.057 23.3906 104.564 23.2585C105.076 23.1222 105.578 23.054 106.073 23.054C106.388 23.054 106.75 23.0923 107.159 23.169C107.573 23.2415 107.971 23.3928 108.355 23.6229C108.743 23.853 109.064 24.2003 109.32 24.6648C109.576 25.1293 109.703 25.7514 109.703 26.5312V33H108.195V31.6705H108.118C108.016 31.8835 107.846 32.1115 107.607 32.3544C107.368 32.5973 107.051 32.804 106.654 32.9744C106.258 33.1449 105.775 33.2301 105.203 33.2301ZM105.434 31.875C106.03 31.875 106.533 31.7578 106.942 31.5234C107.355 31.2891 107.667 30.9865 107.875 30.6158C108.088 30.245 108.195 29.8551 108.195 29.446V28.0653C108.131 28.142 107.99 28.2124 107.773 28.2763C107.56 28.3359 107.313 28.3892 107.032 28.4361C106.755 28.4787 106.484 28.517 106.22 28.5511C105.96 28.581 105.749 28.6065 105.587 28.6278C105.195 28.679 104.828 28.7621 104.488 28.8771C104.151 28.9879 103.878 29.1562 103.669 29.3821C103.465 29.6037 103.363 29.9062 103.363 30.2898C103.363 30.8139 103.556 31.2102 103.944 31.4787C104.336 31.7429 104.833 31.875 105.434 31.875ZM116.42 36.8864C115.691 36.8864 115.065 36.7926 114.541 36.6051C114.017 36.4219 113.58 36.179 113.23 35.8764C112.885 35.5781 112.61 35.2585 112.406 34.9176L113.607 34.0739C113.744 34.2528 113.916 34.4574 114.125 34.6875C114.334 34.9219 114.619 35.1243 114.982 35.2947C115.348 35.4695 115.828 35.5568 116.42 35.5568C117.213 35.5568 117.867 35.3651 118.382 34.9815C118.898 34.598 119.156 33.9972 119.156 33.179V31.1847H119.028C118.917 31.3636 118.759 31.5852 118.555 31.8494C118.355 32.1094 118.065 32.3416 117.686 32.5462C117.311 32.7464 116.803 32.8466 116.164 32.8466C115.372 32.8466 114.66 32.6591 114.029 32.2841C113.403 31.9091 112.906 31.3636 112.54 30.6477C112.178 29.9318 111.997 29.0625 111.997 28.0398C111.997 27.0341 112.173 26.1584 112.527 25.4126C112.881 24.6626 113.373 24.0831 114.004 23.674C114.634 23.2607 115.363 23.054 116.19 23.054C116.829 23.054 117.336 23.1605 117.711 23.3736C118.09 23.5824 118.38 23.821 118.58 24.0895C118.785 24.3537 118.943 24.571 119.053 24.7415H119.207V23.1818H120.664V33.2812C120.664 34.125 120.472 34.8111 120.089 35.3395C119.71 35.8722 119.198 36.2621 118.555 36.5092C117.916 36.7607 117.204 36.8864 116.42 36.8864ZM116.369 31.4915C116.974 31.4915 117.485 31.353 117.903 31.076C118.32 30.799 118.638 30.4006 118.855 29.8807C119.073 29.3608 119.181 28.7386 119.181 28.0142C119.181 27.3068 119.075 26.6825 118.862 26.1413C118.649 25.6001 118.333 25.1761 117.916 24.8693C117.498 24.5625 116.982 24.4091 116.369 24.4091C115.73 24.4091 115.197 24.571 114.771 24.8949C114.349 25.2187 114.031 25.6534 113.818 26.1989C113.61 26.7443 113.505 27.3494 113.505 28.0142C113.505 28.696 113.612 29.299 113.825 29.8232C114.042 30.343 114.362 30.7521 114.784 31.0504C115.21 31.3445 115.738 31.4915 116.369 31.4915ZM123.426 33V23.1818H124.883V24.6648H124.985C125.164 24.179 125.488 23.7848 125.957 23.4822C126.426 23.1797 126.954 23.0284 127.542 23.0284C127.653 23.0284 127.791 23.0305 127.958 23.0348C128.124 23.0391 128.249 23.0455 128.335 23.054V24.5881C128.284 24.5753 128.166 24.5561 127.983 24.5305C127.804 24.5007 127.615 24.4858 127.414 24.4858C126.937 24.4858 126.511 24.5859 126.136 24.7862C125.765 24.9822 125.471 25.255 125.254 25.6044C125.041 25.9496 124.934 26.3437 124.934 26.7869V33H123.426ZM133.012 33.2301C132.39 33.2301 131.825 33.1129 131.318 32.8786C130.811 32.6399 130.408 32.2969 130.11 31.8494C129.812 31.3977 129.663 30.8523 129.663 30.2131C129.663 29.6506 129.773 29.1946 129.995 28.8452C130.217 28.4915 130.513 28.2145 130.884 28.0142C131.254 27.8139 131.663 27.6648 132.111 27.5668C132.563 27.4645 133.016 27.3835 133.472 27.3239C134.069 27.2472 134.553 27.1896 134.923 27.1513C135.298 27.1087 135.571 27.0384 135.741 26.9403C135.916 26.8423 136.004 26.6719 136.004 26.429V26.3778C136.004 25.7472 135.831 25.2571 135.486 24.9077C135.145 24.5582 134.627 24.3835 133.933 24.3835C133.212 24.3835 132.648 24.5412 132.239 24.8565C131.83 25.1719 131.542 25.5085 131.376 25.8665L129.944 25.3551C130.2 24.7585 130.54 24.294 130.967 23.9616C131.397 23.625 131.866 23.3906 132.373 23.2585C132.884 23.1222 133.387 23.054 133.881 23.054C134.197 23.054 134.559 23.0923 134.968 23.169C135.381 23.2415 135.78 23.3928 136.163 23.6229C136.551 23.853 136.873 24.2003 137.129 24.6648C137.384 25.1293 137.512 25.7514 137.512 26.5312V33H136.004V31.6705H135.927C135.825 31.8835 135.654 32.1115 135.415 32.3544C135.177 32.5973 134.859 32.804 134.463 32.9744C134.067 33.1449 133.583 33.2301 133.012 33.2301ZM133.242 31.875C133.839 31.875 134.342 31.7578 134.751 31.5234C135.164 31.2891 135.475 30.9865 135.684 30.6158C135.897 30.245 136.004 29.8551 136.004 29.446V28.0653C135.94 28.142 135.799 28.2124 135.582 28.2763C135.369 28.3359 135.121 28.3892 134.84 28.4361C134.563 28.4787 134.293 28.517 134.028 28.5511C133.768 28.581 133.558 28.6065 133.396 28.6278C133.004 28.679 132.637 28.7621 132.296 28.8771C131.96 28.9879 131.687 29.1562 131.478 29.3821C131.273 29.6037 131.171 29.9062 131.171 30.2898C131.171 30.8139 131.365 31.2102 131.753 31.4787C132.145 31.7429 132.641 31.875 133.242 31.875ZM140.265 33V23.1818H141.723V24.7159H141.851C142.055 24.1918 142.385 23.7848 142.841 23.495C143.297 23.201 143.845 23.054 144.484 23.054C145.132 23.054 145.671 23.201 146.101 23.495C146.536 23.7848 146.875 24.1918 147.118 24.7159H147.22C147.471 24.2088 147.849 23.8061 148.351 23.5078C148.854 23.2053 149.457 23.054 150.16 23.054C151.038 23.054 151.756 23.3288 152.314 23.8786C152.873 24.424 153.152 25.2741 153.152 26.429V33H151.643V26.429C151.643 25.7045 151.445 25.1868 151.049 24.8757C150.653 24.5646 150.186 24.4091 149.649 24.4091C148.959 24.4091 148.424 24.6179 148.045 25.0355C147.665 25.4489 147.476 25.973 147.476 26.608V33H145.942V26.2756C145.942 25.7173 145.76 25.2678 145.398 24.9268C145.036 24.5817 144.569 24.4091 143.998 24.4091C143.606 24.4091 143.24 24.5135 142.899 24.7223C142.562 24.9311 142.29 25.2209 142.081 25.5916C141.876 25.9581 141.774 26.3821 141.774 26.8636V33H140.265Z" fill="white"/>
<defs>
<clipPath id="clip0_1_188">
<rect width="33" height="33" fill="white" transform="translate(20 10)"/>
</clipPath>
</defs>
</svg>
