<svg width="41" height="41" viewBox="0 0 41 41" fill="none" xmlns="http://www.w3.org/2000/svg">
<path d="M17.216 9.83522C16.9523 9.55899 16.6007 9.40832 16.1989 9.40832C15.3828 9.40832 14.7425 10.0487 14.7425 10.8648C14.7425 11.2666 14.8931 11.6433 15.1819 11.9195L24.0086 20.5328L15.1819 29.146C14.8931 29.4223 14.7425 29.7989 14.7425 30.2007C14.7425 31.0043 15.3828 31.6446 16.1989 31.6446C16.6007 31.6446 16.9523 31.5065 17.216 31.2303L27.0095 21.6628C27.3359 21.3489 27.5117 20.9597 27.5117 20.5328C27.5117 20.1059 27.3485 19.7292 27.0095 19.4027L17.216 9.83522Z" fill="#5086CF"/>
</svg>
