<svg width="48" height="47" viewBox="0 0 48 47" fill="none" xmlns="http://www.w3.org/2000/svg">
<path d="M21.6039 17.634C21.4594 17.4825 21.2666 17.3999 21.0463 17.3999C20.5988 17.3999 20.2476 17.751 20.2476 18.1985C20.2476 18.4188 20.3303 18.6254 20.4886 18.7769L25.3286 23.4998L20.4886 28.2228C20.3303 28.3742 20.2476 28.5808 20.2476 28.8011C20.2476 29.2417 20.5988 29.5928 21.0463 29.5928C21.2666 29.5928 21.4594 29.5171 21.6039 29.3656L26.9741 24.1194C27.1531 23.9473 27.2495 23.7339 27.2495 23.4998C27.2495 23.2657 27.1599 23.0592 26.9741 22.8802L21.6039 17.634Z" fill="#5086CF"/>
<circle cx="23.58" cy="23.5" r="23" transform="rotate(-180 23.58 23.5)" stroke="#5086CF"/>
</svg>
