<svg width="48" height="47" viewBox="0 0 48 47" fill="none" xmlns="http://www.w3.org/2000/svg">
<path d="M21.944 17.6339C21.7994 17.4824 21.6066 17.3998 21.3863 17.3998C20.9388 17.3998 20.5877 17.7509 20.5877 18.1984C20.5877 18.4187 20.6703 18.6253 20.8286 18.7767L25.6686 23.4997L20.8286 28.2226C20.6703 28.3741 20.5877 28.5806 20.5877 28.801C20.5877 29.2416 20.9388 29.5927 21.3863 29.5927C21.6066 29.5927 21.7994 29.517 21.944 29.3655L27.3141 24.1193C27.4931 23.9472 27.5895 23.7338 27.5895 23.4997C27.5895 23.2656 27.5 23.0591 27.3141 22.8801L21.944 17.6339Z" fill="#C0C0C0"/>
<circle cx="23.92" cy="23.5" r="23" transform="rotate(180 23.92 23.5)" stroke="#C0C0C0"/>
</svg>
