<svg width="44" height="44" viewBox="0 0 44 44" fill="none" xmlns="http://www.w3.org/2000/svg">
<path d="M29.3334 3.66663H14.6668C13.2081 3.66663 11.8091 4.24609 10.7777 5.27754C9.74623 6.30899 9.16676 7.70794 9.16676 9.16663V38.5C9.16548 38.823 9.24958 39.1407 9.41056 39.4208C9.57153 39.7009 9.80365 39.9334 10.0834 40.095C10.3621 40.2559 10.6783 40.3406 11.0001 40.3406C11.3219 40.3406 11.6381 40.2559 11.9168 40.095L22.0001 34.265L32.0834 40.095C32.3628 40.2533 32.6789 40.3355 33.0001 40.3333C33.3213 40.3355 33.6374 40.2533 33.9168 40.095C34.1965 39.9334 34.4287 39.7009 34.5896 39.4208C34.7506 39.1407 34.8347 38.823 34.8334 38.5V9.16663C34.8334 7.70794 34.254 6.30899 33.2225 5.27754C32.1911 4.24609 30.7921 3.66663 29.3334 3.66663ZM31.1668 35.3283L22.9168 30.5616C22.6381 30.4007 22.3219 30.316 22.0001 30.316C21.6783 30.316 21.3621 30.4007 21.0834 30.5616L12.8334 35.3283V9.16663C12.8334 8.6804 13.0266 8.21408 13.3704 7.87026C13.7142 7.52645 14.1805 7.33329 14.6668 7.33329H29.3334C29.8197 7.33329 30.286 7.52645 30.6298 7.87026C30.9736 8.21408 31.1668 8.6804 31.1668 9.16663V35.3283Z" fill="#5086CF"/>
</svg>
