<svg width="45" height="44" viewBox="0 0 45 44" fill="none" xmlns="http://www.w3.org/2000/svg">
<path d="M23.0499 22.4033C24.0281 21.5565 24.8128 20.5092 25.3505 19.3325C25.8883 18.1558 26.1666 16.8771 26.1666 15.5833C26.1666 13.1521 25.2008 10.8206 23.4817 9.10148C21.7626 7.3824 19.4311 6.41663 16.9999 6.41663C14.5688 6.41663 12.2372 7.3824 10.5181 9.10148C8.79902 10.8206 7.83325 13.1521 7.83325 15.5833C7.83324 16.8771 8.11156 18.1558 8.64932 19.3325C9.18708 20.5092 9.97169 21.5565 10.9499 22.4033C8.38351 23.5654 6.20611 25.4421 4.67805 27.809C3.14999 30.1758 2.33595 32.9327 2.33325 35.75C2.33325 36.2362 2.52641 36.7025 2.87022 37.0463C3.21404 37.3901 3.68036 37.5833 4.16659 37.5833C4.65282 37.5833 5.11913 37.3901 5.46295 37.0463C5.80676 36.7025 5.99992 36.2362 5.99992 35.75C5.99992 32.8326 7.15884 30.0347 9.22174 27.9718C11.2846 25.9089 14.0825 24.75 16.9999 24.75C19.9173 24.75 22.7152 25.9089 24.7781 27.9718C26.841 30.0347 27.9999 32.8326 27.9999 35.75C27.9999 36.2362 28.1931 36.7025 28.5369 37.0463C28.8807 37.3901 29.347 37.5833 29.8333 37.5833C30.3195 37.5833 30.7858 37.3901 31.1296 37.0463C31.4734 36.7025 31.6666 36.2362 31.6666 35.75C31.6639 32.9327 30.8498 30.1758 29.3218 27.809C27.7937 25.4421 25.6163 23.5654 23.0499 22.4033V22.4033ZM16.9999 21.0833C15.9121 21.0833 14.8488 20.7607 13.9443 20.1564C13.0398 19.552 12.3349 18.693 11.9186 17.6881C11.5023 16.6831 11.3934 15.5772 11.6056 14.5103C11.8178 13.4434 12.3416 12.4634 13.1108 11.6942C13.88 10.925 14.86 10.4012 15.9269 10.189C16.9938 9.97676 18.0997 10.0857 19.1047 10.502C20.1097 10.9182 20.9687 11.6232 21.573 12.5277C22.1773 13.4321 22.4999 14.4955 22.4999 15.5833C22.4999 17.042 21.9205 18.4409 20.889 19.4724C19.8576 20.5038 18.4586 21.0833 16.9999 21.0833ZM34.8566 21.67C36.0299 20.3487 36.7963 18.7166 37.0636 16.9699C37.3308 15.2233 37.0876 13.4366 36.3632 11.825C35.6387 10.2133 34.4639 8.84542 32.9801 7.8859C31.4964 6.92638 29.7669 6.41615 27.9999 6.41663C27.5137 6.41663 27.0474 6.60978 26.7036 6.9536C26.3597 7.29741 26.1666 7.76373 26.1666 8.24996C26.1666 8.73619 26.3597 9.20251 26.7036 9.54632C27.0474 9.89014 27.5137 10.0833 27.9999 10.0833C29.4586 10.0833 30.8576 10.6628 31.889 11.6942C32.9205 12.7257 33.4999 14.1246 33.4999 15.5833C33.4973 16.5462 33.242 17.4916 32.7594 18.3249C32.2768 19.1582 31.5839 19.8502 30.7499 20.3316C30.4781 20.4884 30.2511 20.7123 30.0906 20.982C29.9301 21.2516 29.8415 21.5579 29.8333 21.8716C29.8256 22.1829 29.8973 22.4909 30.0416 22.7668C30.186 23.0426 30.3982 23.2772 30.6583 23.4483L31.3733 23.925L31.6116 24.0533C33.8215 25.1014 35.6858 26.7593 36.985 28.8315C38.2843 30.9038 38.9643 33.3042 38.9449 35.75C38.9449 36.2362 39.1381 36.7025 39.4819 37.0463C39.8257 37.3901 40.292 37.5833 40.7783 37.5833C41.2645 37.5833 41.7308 37.3901 42.0746 37.0463C42.4184 36.7025 42.6116 36.2362 42.6116 35.75C42.6266 32.9366 41.9219 30.1661 40.5646 27.7017C39.2073 25.2374 37.2424 23.161 34.8566 21.67V21.67Z" fill="#5086CF"/>
</svg>
