<svg width="45" height="44" viewBox="0 0 45 44" fill="none" xmlns="http://www.w3.org/2000/svg">
<path d="M39.5501 18.48C39.0349 17.8616 38.3903 17.3637 37.6617 17.0216C36.9331 16.6795 36.1383 16.5014 35.3334 16.5H26.9734L28.0001 13.8784C28.4271 12.7305 28.5693 11.4962 28.4145 10.2812C28.2597 9.06631 27.8125 7.90707 27.1113 6.90296C26.41 5.89885 25.4756 5.07983 24.3883 4.51617C23.301 3.95251 22.0931 3.66102 20.8684 3.66671C20.5158 3.66744 20.1708 3.76988 19.8749 3.96173C19.579 4.15359 19.3447 4.42672 19.2001 4.74837L13.9751 16.5H9.66675C8.20806 16.5 6.80911 17.0795 5.77766 18.111C4.74621 19.1424 4.16675 20.5414 4.16675 22V34.8334C4.16675 36.2921 4.74621 37.691 5.77766 38.7225C6.80911 39.7539 8.20806 40.3334 9.66675 40.3334H33.0051C34.2917 40.3329 35.5375 39.8814 36.5257 39.0574C37.5138 38.2334 38.1818 37.089 38.4134 35.8234L40.7417 22.99C40.8858 22.1969 40.8537 21.3818 40.6477 20.6024C40.4418 19.8231 40.0671 19.0985 39.5501 18.48ZM13.3334 36.6667H9.66675C9.18052 36.6667 8.7142 36.4736 8.37039 36.1297C8.02657 35.7859 7.83341 35.3196 7.83341 34.8334V22C7.83341 21.5138 8.02657 21.0475 8.37039 20.7037C8.7142 20.3599 9.18052 20.1667 9.66675 20.1667H13.3334V36.6667ZM37.1667 22.33L34.8384 35.1634C34.7603 35.5905 34.5332 35.976 34.1975 36.2513C33.8617 36.5266 33.4392 36.6738 33.0051 36.6667H17.0001V18.7184L21.9867 7.49837C22.5001 7.64802 22.9768 7.90245 23.3868 8.24561C23.7968 8.58877 24.1312 9.0132 24.369 9.49211C24.6067 9.97103 24.7426 10.494 24.768 11.0281C24.7935 11.5622 24.7079 12.0957 24.5167 12.595L23.5451 15.2167C23.338 15.7708 23.2681 16.3668 23.3414 16.9538C23.4146 17.5409 23.6287 18.1014 23.9655 18.5877C24.3023 19.074 24.7518 19.4716 25.2756 19.7466C25.7993 20.0215 26.3819 20.1657 26.9734 20.1667H35.3334C35.6027 20.1663 35.8689 20.2252 36.1129 20.3393C36.3568 20.4533 36.5727 20.6198 36.7451 20.8267C36.9217 21.0308 37.0511 21.2714 37.1239 21.5312C37.1968 21.7911 37.2115 22.0639 37.1667 22.33Z" fill="#5086CF"/>
</svg>
