<svg width="44" height="44" viewBox="0 0 44 44" fill="none" xmlns="http://www.w3.org/2000/svg">
<path d="M36.96 9.16664C35.0166 7.21819 32.4405 6.02897 29.6969 5.81379C26.9534 5.59861 24.2234 6.37167 22 7.99331C19.6673 6.25831 16.764 5.47158 13.8745 5.79155C10.985 6.11151 8.32412 7.5144 6.42759 9.71772C4.53107 11.921 3.53982 14.7611 3.65344 17.666C3.76707 20.5709 4.97714 23.3249 7.03998 25.3733L18.425 36.7766C19.3783 37.7149 20.6624 38.2408 22 38.2408C23.3376 38.2408 24.6216 37.7149 25.575 36.7766L36.96 25.3733C39.1005 23.2196 40.302 20.3065 40.302 17.27C40.302 14.2335 39.1005 11.3203 36.96 9.16664V9.16664ZM34.375 22.8433L22.99 34.2283C22.8604 34.3591 22.7062 34.463 22.5363 34.5338C22.3664 34.6047 22.1841 34.6412 22 34.6412C21.8159 34.6412 21.6336 34.6047 21.4637 34.5338C21.2937 34.463 21.1395 34.3591 21.01 34.2283L9.62498 22.7883C8.1872 21.3186 7.38209 19.3443 7.38209 17.2883C7.38209 15.2323 8.1872 13.258 9.62498 11.7883C11.0901 10.3418 13.0661 9.53069 15.125 9.53069C17.1839 9.53069 19.1599 10.3418 20.625 11.7883C20.7954 11.9601 20.9982 12.0965 21.2216 12.1896C21.445 12.2827 21.6846 12.3306 21.9266 12.3306C22.1687 12.3306 22.4083 12.2827 22.6317 12.1896C22.8551 12.0965 23.0579 11.9601 23.2283 11.7883C24.6934 10.3418 26.6694 9.53069 28.7283 9.53069C30.7872 9.53069 32.7632 10.3418 34.2283 11.7883C35.6858 13.2388 36.5174 15.2023 36.5448 17.2584C36.5722 19.3145 35.7933 21.2995 34.375 22.7883V22.8433Z" fill="#5086CF"/>
</svg>
