<svg width="48" height="47" viewBox="0 0 48 47" fill="none" xmlns="http://www.w3.org/2000/svg">
<path d="M25.8961 29.366C26.0407 29.5175 26.2335 29.6001 26.4538 29.6001C26.9013 29.6001 27.2524 29.249 27.2524 28.8015C27.2524 28.5812 27.1698 28.3746 27.0114 28.2231L22.1715 23.5002L27.0114 18.7772C27.1698 18.6258 27.2524 18.4192 27.2524 18.1989C27.2524 17.7583 26.9013 17.4072 26.4538 17.4072C26.2335 17.4072 26.0407 17.4829 25.8961 17.6344L20.526 22.8806C20.347 23.0527 20.2506 23.2661 20.2506 23.5002C20.2506 23.7343 20.3401 23.9408 20.526 24.1198L25.8961 29.366Z" fill="#C0C0C0"/>
<circle cx="23.92" cy="23.5" r="23" stroke="#C0C0C0"/>
</svg>
