<svg width="41" height="41" viewBox="0 0 41 41" fill="none" xmlns="http://www.w3.org/2000/svg">
<path d="M23.1551 31.2314C23.4188 31.5077 23.7704 31.6583 24.1722 31.6583C24.9883 31.6583 25.6286 31.018 25.6286 30.2019C25.6286 29.8001 25.478 29.4234 25.1892 29.1472L16.3624 20.5339L25.1892 11.9206C25.478 11.6444 25.6286 11.2677 25.6286 10.8659C25.6286 10.0623 24.9883 9.422 24.1722 9.422C23.7704 9.422 23.4188 9.56011 23.1551 9.83634L13.3616 19.4039C13.0352 19.7178 12.8594 20.107 12.8594 20.5339C12.8594 20.9608 13.0226 21.3375 13.3616 21.6639L23.1551 31.2314Z" fill="#5086CF"/>
</svg>
