<svg width="48" height="47" viewBox="0 0 48 47" fill="none" xmlns="http://www.w3.org/2000/svg">
<path d="M26.3961 29.366C26.5407 29.5175 26.7335 29.6001 26.9538 29.6001C27.4013 29.6001 27.7524 29.249 27.7524 28.8015C27.7524 28.5812 27.6698 28.3746 27.5115 28.2231L22.6715 23.5002L27.5115 18.7772C27.6698 18.6258 27.7524 18.4192 27.7524 18.1989C27.7524 17.7583 27.4013 17.4072 26.9538 17.4072C26.7335 17.4072 26.5407 17.4829 26.3961 17.6344L21.026 22.8806C20.847 23.0527 20.7506 23.2661 20.7506 23.5002C20.7506 23.7343 20.8401 23.9408 21.026 24.1198L26.3961 29.366Z" fill="#5086CF"/>
<circle cx="24.42" cy="23.5" r="23" stroke="#5086CF"/>
</svg>
