<svg width="128" height="128" viewBox="0 0 128 128" fill="none" xmlns="http://www.w3.org/2000/svg">
<circle cx="64" cy="64" r="63.5" stroke="#D9D9D9"/>
<g opacity="0.3">
<path d="M64.346 79.9789C65.4619 79.9789 66.2172 79.2064 66.2172 78.0734V56.7517L66.0799 53.0608L70.612 58.1079L74.509 61.9534C74.8523 62.2796 75.3159 62.5027 75.848 62.5027C76.8781 62.5027 77.6334 61.713 77.6334 60.6658C77.6334 60.168 77.4446 59.7216 77.0497 59.3096L65.7366 47.9793C65.3589 47.6016 64.861 47.3784 64.346 47.3784C63.831 47.3784 63.3331 47.6016 62.9555 47.9793L51.6423 59.3096C51.2474 59.7216 51.0586 60.168 51.0586 60.6658C51.0586 61.713 51.8311 62.5027 52.8612 62.5027C53.3762 62.5027 53.8568 62.2796 54.183 61.9534L58.08 58.1079L62.6121 53.0436L62.4748 56.7517V78.0734C62.4748 79.2064 63.2473 79.9789 64.346 79.9789Z" fill="#1C1C1E"/>
</g>
</svg>
