<svg width="63" height="63" viewBox="0 0 63 63" fill="none" xmlns="http://www.w3.org/2000/svg">
<path d="M26.261 20.2214C26.5378 20.2214 26.696 20.0435 26.7356 19.7864C27.408 16.5234 27.3684 16.4246 30.7698 15.7522C31.0664 15.6929 31.2246 15.5347 31.2246 15.2578C31.2246 15.0007 31.0664 14.8425 30.7896 14.7832C27.3486 14.0911 27.3684 13.9922 26.7356 10.749C26.696 10.4919 26.5378 10.314 26.261 10.314C26.0039 10.314 25.8457 10.4919 25.7864 10.749C25.114 14.0317 25.1733 14.1504 21.7522 14.7832C21.4753 14.8228 21.2974 15.0007 21.2974 15.2578C21.2974 15.5347 21.4753 15.6929 21.7324 15.7522C25.1733 16.4443 25.1536 16.5234 25.7864 19.7864C25.8259 20.0435 26.0039 20.2214 26.261 20.2214ZM43.1492 27.2615C43.4458 27.2615 43.6633 27.0439 43.7029 26.7473C44.4148 22.9109 44.395 22.7131 48.4292 22.021C48.7456 21.9617 48.9631 21.7639 48.9631 21.4475C48.9631 21.1311 48.7456 20.9333 48.449 20.874C44.3752 20.1621 44.3357 19.9644 43.7029 16.1675C43.6633 15.8511 43.4458 15.6335 43.1492 15.6335C42.8328 15.6335 42.635 15.8511 42.5757 16.1477C41.9033 20.0039 41.9033 20.2412 37.8494 20.874C37.5527 20.9333 37.3154 21.1311 37.3154 21.4475C37.3352 21.7639 37.533 21.9617 37.8494 22.021C41.9033 22.7329 41.9429 22.9307 42.5757 26.7473C42.635 27.0439 42.8328 27.2615 43.1492 27.2615ZM15.3647 33.1743C15.6812 33.1743 15.8789 32.9568 15.9382 32.6602C16.571 28.8237 16.6106 28.6062 20.6448 27.9338C20.981 27.8745 21.1787 27.6768 21.1787 27.3604C21.1787 27.0439 20.981 26.8462 20.6646 26.7869C16.6106 26.075 16.5908 25.8772 15.9382 22.0605C15.8789 21.7639 15.6812 21.5464 15.3647 21.5464C15.0483 21.5464 14.8506 21.7639 14.811 22.0605C14.1584 25.9167 14.1189 26.1145 10.0649 26.7869C9.76831 26.8462 9.55078 27.0439 9.55078 27.3604C9.55078 27.6768 9.76831 27.8745 10.0649 27.9338C14.1189 28.6458 14.1189 28.8435 14.811 32.6602C14.8506 32.9568 15.0483 33.1743 15.3647 33.1743ZM49.2202 50.1218C50.1694 51.0908 51.8108 51.0908 52.7402 50.1218C53.6895 49.1331 53.6697 47.5708 52.7402 46.6018L33.9536 27.7163C33.0044 26.7473 31.3433 26.7473 30.4336 27.7163C29.4646 28.7249 29.4844 30.2871 30.4336 31.2363L49.2202 50.1218ZM24.8767 50.6162C25.292 50.6162 25.5886 50.3394 25.6479 49.8845C26.2808 44.5649 26.5378 44.387 31.9761 43.5564C32.4507 43.4773 32.7473 43.2202 32.7473 42.7852C32.7473 42.3699 32.4507 42.093 32.0552 42.0139C26.5576 40.9658 26.2808 41.0054 25.6479 35.6858C25.5886 35.231 25.292 34.9541 24.8767 34.9541C24.4614 34.9541 24.1648 35.231 24.1252 35.666C23.4529 41.0845 23.2551 41.2625 17.718 42.0139C17.3225 42.0732 17.0259 42.3699 17.0259 42.7852C17.0259 43.2004 17.3225 43.4773 17.6982 43.5564C23.2551 44.6243 23.4331 44.6045 24.1252 49.9241C24.1648 50.3394 24.4812 50.6162 24.8767 50.6162ZM50.1299 48.5596L38.8579 37.2678L39.9653 36.1604L51.2571 47.4521C51.6526 47.8477 51.7712 48.3025 51.3955 48.7178C51 49.0737 50.5452 48.9749 50.1299 48.5596Z" fill="white"/>
</svg>
