<svg width="1626" height="500" viewBox="0 0 1626 500" fill="none" xmlns="http://www.w3.org/2000/svg">
<rect width="293" height="232" rx="25" fill="#D9D9D9"/>
<path d="M333 25C333 11.1929 344.193 0 358 0H601C614.807 0 626 11.1929 626 25V207C626 220.807 614.807 232 601 232H358C344.193 232 333 220.807 333 207V25Z" fill="#D9D9D9"/>
<rect x="667" width="292" height="232" rx="25" fill="#D9D9D9"/>
<rect x="1000" width="293" height="232" rx="25" fill="#D9D9D9"/>
<rect x="1333" width="293" height="232" rx="25" fill="#D9D9D9"/>
<rect y="268" width="293" height="232" rx="25" fill="#D9D9D9"/>
<rect x="333" y="268" width="293" height="232" rx="25" fill="#D9D9D9"/>
<rect x="667" y="268" width="292" height="232" rx="25" fill="#D9D9D9"/>
<rect x="1000" y="268" width="293" height="232" rx="25" fill="#D9D9D9"/>
<rect x="1333" y="268" width="293" height="232" rx="25" fill="#D9D9D9"/>
</svg>
