<svg width="344" height="287" viewBox="0 0 344 287" fill="none" xmlns="http://www.w3.org/2000/svg">
<rect width="105" height="83" rx="15" fill="#D9D9D9"/>
<path d="M120 15C120 6.71573 126.716 0 135 0H209C217.284 0 224 6.71573 224 15V68C224 76.2843 217.284 83 209 83H135C126.716 83 120 76.2843 120 68V15Z" fill="#D9D9D9"/>
<rect x="240" width="104" height="83" rx="15" fill="#D9D9D9"/>
<rect y="101.766" width="105" height="83" rx="15" fill="#D9D9D9"/>
<path d="M120 116.766C120 108.482 126.716 101.766 135 101.766H209C217.284 101.766 224 108.482 224 116.766V169.766C224 178.05 217.284 184.766 209 184.766H135C126.716 184.766 120 178.05 120 169.766V116.766Z" fill="#D9D9D9"/>
<rect x="240" y="101.766" width="104" height="83" rx="15" fill="#D9D9D9"/>
<rect y="203.766" width="105" height="83" rx="15" fill="#D9D9D9"/>
<path d="M120 218.766C120 210.482 126.716 203.766 135 203.766H209C217.284 203.766 224 210.482 224 218.766V271.766C224 280.05 217.284 286.766 209 286.766H135C126.716 286.766 120 280.05 120 271.766V218.766Z" fill="#D9D9D9"/>
<rect x="240" y="203.766" width="104" height="83" rx="15" fill="#D9D9D9"/>
</svg>
