<svg width="171" height="96" viewBox="0 0 171 96" fill="none" xmlns="http://www.w3.org/2000/svg">
<path d="M130.347 49.1392C130.116 48.8975 129.808 48.7656 129.457 48.7656C128.743 48.7656 128.182 49.3259 128.182 50.04C128.182 50.3916 128.314 50.7212 128.567 50.9629L136.29 58.4995L128.567 66.0361C128.314 66.2778 128.182 66.6074 128.182 66.959C128.182 67.6621 128.743 68.2224 129.457 68.2224C129.808 68.2224 130.116 68.1016 130.347 67.8599L138.916 59.4883C139.202 59.2136 139.355 58.873 139.355 58.4995C139.355 58.126 139.213 57.7964 138.916 57.5107L130.347 49.1392Z" fill="#C0C0C0"/>
<circle cx="133.5" cy="58.5" r="37" transform="rotate(-180 133.5 58.5)" stroke="#C0C0C0"/>
<path d="M40.6533 67.8608C40.884 68.1025 41.1917 68.2344 41.5432 68.2344C42.2573 68.2344 42.8176 67.6741 42.8176 66.96C42.8176 66.6084 42.6858 66.2788 42.4331 66.0371L34.7097 58.5005L42.4331 50.9639C42.6858 50.7222 42.8176 50.3926 42.8176 50.041C42.8176 49.3379 42.2573 48.7776 41.5432 48.7776C41.1916 48.7776 40.884 48.8984 40.6533 49.1401L32.084 57.5117C31.7983 57.7864 31.6445 58.127 31.6445 58.5005C31.6445 58.874 31.7874 59.2036 32.084 59.4893L40.6533 67.8608Z" fill="#C0C0C0"/>
<circle cx="37.5" cy="58.5" r="37" stroke="#C0C0C0"/>
<rect x="20" width="131" height="5" rx="2.5" fill="#EFEFEF"/>
<rect x="20" width="25" height="5" rx="2.5" fill="#070707"/>
</svg>
