<svg width="152" height="33" viewBox="0 0 152 33" fill="none" xmlns="http://www.w3.org/2000/svg">
<path d="M64.7843 22H63.2183V9.274H64.7843V22ZM67.5517 22V12.514H69.0277L69.0997 13.954C69.2557 13.69 69.4477 13.462 69.6757 13.27C69.9157 13.078 70.1737 12.916 70.4497 12.784C70.7257 12.652 71.0137 12.556 71.3137 12.496C71.6257 12.436 71.9257 12.406 72.2137 12.406C72.8977 12.406 73.4737 12.52 73.9417 12.748C74.4097 12.964 74.7817 13.27 75.0577 13.666C75.3337 14.05 75.5317 14.512 75.6517 15.052C75.7717 15.58 75.8317 16.15 75.8317 16.762V22H74.3017V17.176C74.3017 16.732 74.2717 16.306 74.2117 15.898C74.1637 15.49 74.0557 15.13 73.8877 14.818C73.7317 14.494 73.5037 14.236 73.2037 14.044C72.9037 13.852 72.5017 13.756 71.9977 13.756C71.5057 13.768 71.0677 13.888 70.6837 14.116C70.3117 14.344 70.0117 14.614 69.7837 14.926C69.5077 15.322 69.3217 15.76 69.2257 16.24C69.1297 16.708 69.0817 17.182 69.0817 17.662V22H67.5517ZM81.5705 13.774C81.3545 13.774 81.1325 13.792 80.9045 13.828C80.6885 13.852 80.4725 13.912 80.2565 14.008C80.0525 14.092 79.8725 14.224 79.7165 14.404C79.5725 14.572 79.4945 14.8 79.4825 15.088C79.4825 15.496 79.6325 15.802 79.9325 16.006C80.2445 16.21 80.6465 16.36 81.1385 16.456C81.3425 16.504 81.5645 16.552 81.8045 16.6C82.0445 16.636 82.2785 16.678 82.5065 16.726C82.7465 16.762 82.9685 16.804 83.1725 16.852C83.3885 16.9 83.5685 16.948 83.7125 16.996C84.8645 17.356 85.4405 18.13 85.4405 19.318C85.4285 19.894 85.3025 20.362 85.0625 20.722C84.8345 21.07 84.5405 21.346 84.1805 21.55C83.8325 21.754 83.4305 21.898 82.9745 21.982C82.5305 22.066 82.0865 22.108 81.6425 22.108C81.2105 22.108 80.7725 22.066 80.3285 21.982C79.8845 21.898 79.4765 21.754 79.1045 21.55C78.7445 21.334 78.4325 21.058 78.1685 20.722C77.9165 20.374 77.7545 19.942 77.6825 19.426H79.2305C79.3265 19.714 79.4765 19.942 79.6805 20.11C79.8845 20.278 80.1005 20.41 80.3285 20.506C80.5685 20.602 80.7905 20.668 80.9945 20.704C81.2105 20.74 81.4505 20.758 81.7145 20.758C81.9065 20.758 82.1285 20.746 82.3805 20.722C82.6325 20.698 82.8725 20.644 83.1005 20.56C83.3285 20.464 83.5205 20.326 83.6765 20.146C83.8325 19.966 83.9105 19.714 83.9105 19.39C83.9105 19.03 83.7905 18.76 83.5505 18.58C83.3225 18.4 83.0045 18.268 82.5965 18.184C82.3085 18.124 82.0085 18.07 81.6965 18.022C81.3965 17.962 81.0905 17.902 80.7785 17.842C80.4785 17.77 80.1845 17.692 79.8965 17.608C79.6085 17.512 79.3385 17.386 79.0865 17.23C78.7505 17.026 78.4805 16.75 78.2765 16.402C78.0725 16.054 77.9705 15.628 77.9705 15.124C77.9945 14.596 78.1145 14.164 78.3305 13.828C78.5465 13.48 78.8225 13.198 79.1585 12.982C79.5185 12.766 79.9025 12.616 80.3105 12.532C80.7185 12.448 81.1505 12.406 81.6065 12.406C82.5785 12.406 83.3525 12.616 83.9285 13.036C84.2765 13.276 84.5465 13.564 84.7385 13.9C84.9305 14.236 85.0505 14.59 85.0985 14.962H83.6765C83.5925 14.614 83.3645 14.332 82.9925 14.116C82.6205 13.9 82.1465 13.786 81.5705 13.774ZM89.5629 12.514H92.1009V13.864H89.5629V18.778C89.5629 19.426 89.6889 19.906 89.9409 20.218C90.1929 20.518 90.6609 20.668 91.3449 20.668H92.0469V22H91.0209C89.9409 22 89.1729 21.754 88.7169 21.262C88.2609 20.77 88.0329 19.996 88.0329 18.94V13.864H86.4849V12.514H88.0329V9.688H89.5629V12.514ZM93.831 22V12.514H95.307L95.379 13.99C95.727 13.438 96.171 13.036 96.711 12.784C97.251 12.532 97.863 12.406 98.547 12.406H99.033V13.846H98.475C97.911 13.846 97.431 13.942 97.035 14.134C96.639 14.314 96.315 14.566 96.063 14.89C95.823 15.202 95.643 15.574 95.523 16.006C95.415 16.438 95.361 16.894 95.361 17.374V22H93.831ZM106.792 20.794C106.588 21.07 106.354 21.292 106.09 21.46C105.826 21.628 105.55 21.76 105.262 21.856C104.986 21.952 104.704 22.018 104.416 22.054C104.14 22.09 103.864 22.108 103.588 22.108C103.144 22.108 102.724 22.054 102.328 21.946C101.932 21.838 101.572 21.664 101.248 21.424C100.936 21.184 100.684 20.884 100.492 20.524C100.312 20.164 100.222 19.756 100.222 19.3C100.222 18.76 100.318 18.31 100.51 17.95C100.714 17.578 100.984 17.278 101.32 17.05C101.656 16.822 102.04 16.666 102.472 16.582C102.916 16.486 103.384 16.438 103.876 16.438H106.666C106.666 15.634 106.492 14.998 106.144 14.53C105.796 14.05 105.208 13.798 104.38 13.774C103.876 13.774 103.432 13.858 103.048 14.026C102.664 14.194 102.4 14.47 102.256 14.854H100.618C100.702 14.422 100.87 14.056 101.122 13.756C101.374 13.444 101.674 13.192 102.022 13C102.37 12.796 102.748 12.646 103.156 12.55C103.564 12.454 103.972 12.406 104.38 12.406C105.088 12.406 105.682 12.526 106.162 12.766C106.654 12.994 107.05 13.3 107.35 13.684C107.65 14.056 107.86 14.512 107.98 15.052C108.1 15.592 108.16 16.198 108.16 16.87V22H106.882L106.792 20.794ZM104.992 17.716C104.704 17.716 104.368 17.722 103.984 17.734C103.612 17.734 103.252 17.77 102.904 17.842C102.556 17.914 102.274 18.064 102.058 18.292C101.854 18.52 101.752 18.82 101.752 19.192C101.752 19.468 101.806 19.702 101.914 19.894C102.022 20.086 102.166 20.248 102.346 20.38C102.538 20.512 102.754 20.608 102.994 20.668C103.234 20.728 103.48 20.758 103.732 20.758C104.632 20.758 105.34 20.542 105.856 20.11C106.384 19.666 106.654 19.024 106.666 18.184V17.716H104.992ZM118.99 21.928C118.99 23.272 118.63 24.328 117.91 25.096C117.19 25.864 116.104 26.248 114.652 26.248C114.172 26.248 113.71 26.194 113.266 26.086C112.834 25.978 112.438 25.804 112.078 25.564C111.73 25.336 111.43 25.042 111.178 24.682C110.938 24.334 110.77 23.914 110.674 23.422H112.258C112.33 23.698 112.45 23.926 112.618 24.106C112.798 24.298 113.002 24.448 113.23 24.556C113.458 24.676 113.704 24.76 113.968 24.808C114.232 24.856 114.49 24.88 114.742 24.88C115.222 24.88 115.636 24.802 115.984 24.646C116.332 24.502 116.614 24.298 116.83 24.034C117.046 23.77 117.202 23.452 117.298 23.08C117.406 22.72 117.46 22.324 117.46 21.892V20.578C117.148 21.13 116.704 21.526 116.128 21.766C115.552 21.994 114.952 22.108 114.328 22.108C113.608 22.096 112.984 21.97 112.456 21.73C111.928 21.478 111.496 21.136 111.16 20.704C110.824 20.272 110.572 19.768 110.404 19.192C110.248 18.604 110.17 17.968 110.17 17.284C110.17 16.6 110.254 15.964 110.422 15.376C110.59 14.776 110.848 14.26 111.196 13.828C111.544 13.384 111.982 13.036 112.51 12.784C113.038 12.532 113.668 12.406 114.4 12.406C114.952 12.406 115.51 12.508 116.074 12.712C116.638 12.916 117.1 13.246 117.46 13.702L117.532 12.514H118.99V21.928ZM114.526 13.774C114.01 13.774 113.572 13.87 113.212 14.062C112.852 14.242 112.558 14.488 112.33 14.8C112.114 15.112 111.952 15.484 111.844 15.916C111.748 16.336 111.7 16.786 111.7 17.266C111.7 17.794 111.748 18.262 111.844 18.67C111.94 19.066 112.102 19.42 112.33 19.732C112.558 20.044 112.852 20.296 113.212 20.488C113.572 20.668 114.016 20.758 114.544 20.758C115.156 20.758 115.66 20.614 116.056 20.326C116.452 20.038 116.77 19.678 117.01 19.246C117.178 18.946 117.298 18.622 117.37 18.274C117.442 17.914 117.478 17.56 117.478 17.212C117.478 16.78 117.436 16.384 117.352 16.024C117.28 15.664 117.142 15.328 116.938 15.016C116.698 14.668 116.38 14.374 115.984 14.134C115.588 13.894 115.102 13.774 114.526 13.774ZM121.394 22V12.514H122.87L122.942 13.99C123.29 13.438 123.734 13.036 124.274 12.784C124.814 12.532 125.426 12.406 126.11 12.406H126.596V13.846H126.038C125.474 13.846 124.994 13.942 124.598 14.134C124.202 14.314 123.878 14.566 123.626 14.89C123.386 15.202 123.206 15.574 123.086 16.006C122.978 16.438 122.924 16.894 122.924 17.374V22H121.394ZM134.354 20.794C134.15 21.07 133.916 21.292 133.652 21.46C133.388 21.628 133.112 21.76 132.824 21.856C132.548 21.952 132.266 22.018 131.978 22.054C131.702 22.09 131.426 22.108 131.15 22.108C130.706 22.108 130.286 22.054 129.89 21.946C129.494 21.838 129.134 21.664 128.81 21.424C128.498 21.184 128.246 20.884 128.054 20.524C127.874 20.164 127.784 19.756 127.784 19.3C127.784 18.76 127.88 18.31 128.072 17.95C128.276 17.578 128.546 17.278 128.882 17.05C129.218 16.822 129.602 16.666 130.034 16.582C130.478 16.486 130.946 16.438 131.438 16.438H134.228C134.228 15.634 134.054 14.998 133.706 14.53C133.358 14.05 132.77 13.798 131.942 13.774C131.438 13.774 130.994 13.858 130.61 14.026C130.226 14.194 129.962 14.47 129.818 14.854H128.18C128.264 14.422 128.432 14.056 128.684 13.756C128.936 13.444 129.236 13.192 129.584 13C129.932 12.796 130.31 12.646 130.718 12.55C131.126 12.454 131.534 12.406 131.942 12.406C132.65 12.406 133.244 12.526 133.724 12.766C134.216 12.994 134.612 13.3 134.912 13.684C135.212 14.056 135.422 14.512 135.542 15.052C135.662 15.592 135.722 16.198 135.722 16.87V22H134.444L134.354 20.794ZM132.554 17.716C132.266 17.716 131.93 17.722 131.546 17.734C131.174 17.734 130.814 17.77 130.466 17.842C130.118 17.914 129.836 18.064 129.62 18.292C129.416 18.52 129.314 18.82 129.314 19.192C129.314 19.468 129.368 19.702 129.476 19.894C129.584 20.086 129.728 20.248 129.908 20.38C130.1 20.512 130.316 20.608 130.556 20.668C130.796 20.728 131.042 20.758 131.294 20.758C132.194 20.758 132.902 20.542 133.418 20.11C133.946 19.666 134.216 19.024 134.228 18.184V17.716H132.554ZM139.641 13.648C139.941 13.228 140.307 12.916 140.739 12.712C141.183 12.508 141.675 12.406 142.215 12.406C142.875 12.418 143.409 12.562 143.817 12.838C144.225 13.114 144.531 13.48 144.735 13.936C145.059 13.456 145.455 13.084 145.923 12.82C146.403 12.544 146.967 12.406 147.615 12.406C148.131 12.406 148.575 12.496 148.947 12.676C149.319 12.844 149.619 13.084 149.847 13.396C150.075 13.696 150.243 14.05 150.351 14.458C150.459 14.866 150.513 15.31 150.513 15.79V22H148.983V16.564C148.983 16.252 148.965 15.934 148.929 15.61C148.905 15.274 148.833 14.974 148.713 14.71C148.593 14.434 148.413 14.212 148.173 14.044C147.933 13.864 147.609 13.774 147.201 13.774C146.805 13.774 146.469 13.87 146.193 14.062C145.917 14.242 145.695 14.482 145.527 14.782C145.371 15.082 145.257 15.412 145.185 15.772C145.113 16.132 145.077 16.486 145.077 16.834V22H143.547V16.546C143.547 16.246 143.535 15.934 143.511 15.61C143.487 15.274 143.415 14.974 143.295 14.71C143.187 14.434 143.019 14.212 142.791 14.044C142.563 13.864 142.245 13.774 141.837 13.774C141.405 13.774 141.045 13.87 140.757 14.062C140.481 14.254 140.253 14.5 140.073 14.8C139.905 15.1 139.785 15.436 139.713 15.808C139.653 16.168 139.623 16.516 139.623 16.852V22H138.093V12.514H139.569L139.641 13.648Z" fill="black"/>
<g clip-path="url(#clip0_143_221)">
<path d="M7.53303 0.097023C5.67605 0.374172 4.20729 1.10894 2.86793 2.44312C1.48975 3.81597 0.739196 5.34995 0.486854 7.2771C0.389799 8.0312 0.389799 24.9695 0.486854 25.7236C0.739196 27.6507 1.48975 29.1847 2.86793 30.5576C4.24611 31.9304 5.78605 32.6781 7.72067 32.9294C8.4777 33.0261 25.4817 33.0261 26.2387 32.9294C28.1734 32.6781 29.7133 31.9304 31.0915 30.5576C32.4697 29.1847 33.2202 27.6507 33.4726 25.7236C33.5696 24.9695 33.5696 8.0312 33.4726 7.2771C33.2202 5.34995 32.4697 3.81597 31.0915 2.44312C29.7133 1.07026 28.1734 0.322609 26.2387 0.0712395C25.4105 -0.0383301 8.26418 -0.0125465 7.53303 0.097023ZM26.9246 3.0103C27.6557 3.26167 27.8175 3.34546 28.4192 3.75796C29.3768 4.41538 30.1339 5.44019 30.5156 6.5939L30.7291 7.25132V16.5003C30.7291 25.3498 30.7227 25.7687 30.6062 26.1361C30.1727 27.5347 29.4221 28.5724 28.3157 29.3201C27.8369 29.6423 27.4228 29.8292 26.7499 30.0419L26.2646 30.1966H16.9797H7.69479L7.03482 29.9839C5.22313 29.391 3.95495 28.0697 3.35321 26.1361C3.23674 25.7687 3.23027 25.3498 3.23027 16.5003C3.23027 7.65093 3.23674 7.23198 3.35321 6.8646C3.8126 5.39507 4.61492 4.32515 5.81193 3.57749C6.31661 3.26167 7.18364 2.92651 7.72067 2.83628C7.88243 2.8105 12.1399 2.79116 17.1738 2.79761L26.3293 2.80405L26.9246 3.0103Z" fill="black"/>
<path d="M25.5188 5.56902C25.0594 5.67215 24.7941 5.81394 24.4836 6.12976C24.063 6.5616 23.9336 6.9032 23.9336 7.57351C23.9336 8.07625 23.9595 8.19871 24.1083 8.47586C24.4642 9.14617 25.0659 9.53933 25.8165 9.5909C26.3664 9.62312 26.6576 9.54578 27.117 9.2364C28.4046 8.37273 28.2558 6.40691 26.8582 5.74304C26.3794 5.51746 25.9976 5.4659 25.5188 5.56902Z" fill="black"/>
<path d="M15.9164 8.32149C12.7913 8.75332 10.1255 10.9189 9.15495 13.8322C8.82496 14.8248 8.73438 15.3984 8.73438 16.5006C8.73438 17.6027 8.82496 18.1764 9.15495 19.1754C9.93786 21.5086 11.9566 23.5131 14.3118 24.2994C15.2953 24.6217 15.8776 24.7119 16.9776 24.7119C18.0775 24.7119 18.6599 24.6217 19.6433 24.2994C21.9985 23.5131 24.0173 21.5086 24.8002 19.1754C25.1302 18.1764 25.2208 17.6027 25.2208 16.5006C25.2208 15.0568 24.9425 13.8773 24.3149 12.6979C23.1179 10.4613 21.0603 8.9209 18.5628 8.41172C17.9416 8.28281 16.5311 8.23125 15.9164 8.32149ZM18.6404 11.2734C19.3328 11.499 19.5204 11.5893 20.051 11.9438C21.138 12.6721 21.8691 13.684 22.2897 15.0182C22.4191 15.4371 22.445 15.6369 22.445 16.5006C22.445 17.5641 22.3673 17.9572 21.9856 18.8016C21.5068 19.8844 20.3745 21.0123 19.281 21.4957C18.4399 21.8695 18.0452 21.9469 16.9776 21.9469C15.91 21.9469 15.5153 21.8695 14.6741 21.4957C13.5806 21.0123 12.4483 19.8844 11.9695 18.8016C11.5878 17.9572 11.5101 17.5641 11.5101 16.5006C11.5101 15.6369 11.536 15.4371 11.6654 15.0182C11.8854 14.3221 12.0795 13.916 12.4483 13.3811C13.1795 12.324 14.2018 11.5957 15.457 11.2283C16.0976 11.0414 16.1947 11.0285 17.1717 11.0543C17.9416 11.0736 18.1163 11.0994 18.6404 11.2734Z" fill="black"/>
</g>
<defs>
<clipPath id="clip0_143_221">
<rect width="33.1281" height="33" fill="white" transform="translate(0.414062)"/>
</clipPath>
</defs>
</svg>
