<svg width="168" height="40" viewBox="0 0 168 40" fill="none" xmlns="http://www.w3.org/2000/svg">
<rect width="168" height="40" rx="8" fill="#334FFF"/>
<rect width="168" height="40" rx="8" fill="url(#paint0_linear_108_487)"/>
<path d="M39.474 16.514L39.798 13.274H41.328L40.986 16.514H43.434L43.794 13.274H45.306L44.964 16.514H46.692V17.936H44.802L44.442 21.338H46.17V22.778H44.28L43.938 26H42.426L42.768 22.778H40.302L39.96 26H38.43L38.79 22.778H37.062V21.338H38.934L39.312 17.936H37.584V16.514H39.474ZM40.446 21.338H42.912L43.29 17.936H40.824L40.446 21.338ZM49.8478 13.04C50.1358 13.04 50.3818 13.136 50.5858 13.328C50.7898 13.508 50.8918 13.748 50.8918 14.048C50.8918 14.348 50.7898 14.594 50.5858 14.786C50.3818 14.978 50.1358 15.074 49.8478 15.074C49.5478 15.074 49.3018 14.978 49.1098 14.786C48.9178 14.594 48.8218 14.348 48.8218 14.048C48.8218 13.748 48.9178 13.508 49.1098 13.328C49.3018 13.136 49.5478 13.04 49.8478 13.04ZM49.0918 26V16.514H50.6218V26H49.0918ZM53.1669 26V16.514H54.6429L54.7149 17.954C54.8709 17.69 55.0629 17.462 55.2909 17.27C55.5309 17.078 55.7889 16.916 56.0649 16.784C56.3409 16.652 56.6289 16.556 56.9289 16.496C57.2409 16.436 57.5409 16.406 57.8289 16.406C58.5129 16.406 59.0889 16.52 59.5569 16.748C60.0249 16.964 60.3969 17.27 60.6729 17.666C60.9489 18.05 61.1469 18.512 61.2669 19.052C61.3869 19.58 61.4469 20.15 61.4469 20.762V26H59.9169V21.176C59.9169 20.732 59.8869 20.306 59.8269 19.898C59.7789 19.49 59.6709 19.13 59.5029 18.818C59.3469 18.494 59.1189 18.236 58.8189 18.044C58.5189 17.852 58.1169 17.756 57.6129 17.756C57.1209 17.768 56.6829 17.888 56.2989 18.116C55.9269 18.344 55.6269 18.614 55.3989 18.926C55.1229 19.322 54.9369 19.76 54.8409 20.24C54.7449 20.708 54.6969 21.182 54.6969 21.662V26H53.1669ZM67.1857 17.774C66.9697 17.774 66.7477 17.792 66.5197 17.828C66.3037 17.852 66.0877 17.912 65.8717 18.008C65.6677 18.092 65.4877 18.224 65.3317 18.404C65.1877 18.572 65.1097 18.8 65.0977 19.088C65.0977 19.496 65.2477 19.802 65.5477 20.006C65.8597 20.21 66.2617 20.36 66.7537 20.456C66.9577 20.504 67.1797 20.552 67.4197 20.6C67.6597 20.636 67.8937 20.678 68.1217 20.726C68.3617 20.762 68.5837 20.804 68.7877 20.852C69.0037 20.9 69.1837 20.948 69.3277 20.996C70.4797 21.356 71.0557 22.13 71.0557 23.318C71.0437 23.894 70.9177 24.362 70.6777 24.722C70.4497 25.07 70.1557 25.346 69.7957 25.55C69.4477 25.754 69.0457 25.898 68.5897 25.982C68.1457 26.066 67.7017 26.108 67.2577 26.108C66.8257 26.108 66.3877 26.066 65.9437 25.982C65.4997 25.898 65.0917 25.754 64.7197 25.55C64.3597 25.334 64.0477 25.058 63.7837 24.722C63.5317 24.374 63.3697 23.942 63.2977 23.426H64.8457C64.9417 23.714 65.0917 23.942 65.2957 24.11C65.4997 24.278 65.7157 24.41 65.9437 24.506C66.1837 24.602 66.4057 24.668 66.6097 24.704C66.8257 24.74 67.0657 24.758 67.3297 24.758C67.5217 24.758 67.7437 24.746 67.9957 24.722C68.2477 24.698 68.4877 24.644 68.7157 24.56C68.9437 24.464 69.1357 24.326 69.2917 24.146C69.4477 23.966 69.5257 23.714 69.5257 23.39C69.5257 23.03 69.4057 22.76 69.1657 22.58C68.9377 22.4 68.6197 22.268 68.2117 22.184C67.9237 22.124 67.6237 22.07 67.3117 22.022C67.0117 21.962 66.7057 21.902 66.3937 21.842C66.0937 21.77 65.7997 21.692 65.5117 21.608C65.2237 21.512 64.9537 21.386 64.7017 21.23C64.3657 21.026 64.0957 20.75 63.8917 20.402C63.6877 20.054 63.5857 19.628 63.5857 19.124C63.6097 18.596 63.7297 18.164 63.9457 17.828C64.1617 17.48 64.4377 17.198 64.7737 16.982C65.1337 16.766 65.5177 16.616 65.9257 16.532C66.3337 16.448 66.7657 16.406 67.2217 16.406C68.1937 16.406 68.9677 16.616 69.5437 17.036C69.8917 17.276 70.1617 17.564 70.3537 17.9C70.5457 18.236 70.6657 18.59 70.7137 18.962H69.2917C69.2077 18.614 68.9797 18.332 68.6077 18.116C68.2357 17.9 67.7617 17.786 67.1857 17.774ZM75.3539 16.514H78.2699V17.864H75.3539V22.796C75.3539 23.072 75.3659 23.33 75.3899 23.57C75.4259 23.798 75.4859 24.002 75.5699 24.182C75.6659 24.35 75.7979 24.488 75.9659 24.596C76.1459 24.692 76.3859 24.746 76.6859 24.758C76.9619 24.758 77.2019 24.71 77.4059 24.614C77.6219 24.518 77.8019 24.404 77.9459 24.272L78.6119 25.388C78.2999 25.652 77.9759 25.838 77.6399 25.946C77.3039 26.054 76.9319 26.108 76.5239 26.108C76.0079 26.108 75.5759 26.036 75.2279 25.892C74.8799 25.736 74.5859 25.514 74.3459 25.226C74.1419 24.95 74.0039 24.626 73.9319 24.254C73.8599 23.882 73.8239 23.462 73.8239 22.994V17.864H72.2759V16.514H73.8239V13.67H75.3539V16.514ZM86.3426 24.794C86.1386 25.07 85.9046 25.292 85.6406 25.46C85.3766 25.628 85.1006 25.76 84.8126 25.856C84.5366 25.952 84.2546 26.018 83.9666 26.054C83.6906 26.09 83.4146 26.108 83.1386 26.108C82.6946 26.108 82.2746 26.054 81.8786 25.946C81.4826 25.838 81.1226 25.664 80.7986 25.424C80.4866 25.184 80.2346 24.884 80.0426 24.524C79.8626 24.164 79.7726 23.756 79.7726 23.3C79.7726 22.76 79.8686 22.31 80.0606 21.95C80.2646 21.578 80.5346 21.278 80.8706 21.05C81.2066 20.822 81.5906 20.666 82.0226 20.582C82.4666 20.486 82.9346 20.438 83.4266 20.438H86.2166C86.2166 19.634 86.0426 18.998 85.6946 18.53C85.3466 18.05 84.7586 17.798 83.9306 17.774C83.4266 17.774 82.9826 17.858 82.5986 18.026C82.2146 18.194 81.9506 18.47 81.8066 18.854H80.1686C80.2526 18.422 80.4206 18.056 80.6726 17.756C80.9246 17.444 81.2246 17.192 81.5726 17C81.9206 16.796 82.2986 16.646 82.7066 16.55C83.1146 16.454 83.5226 16.406 83.9306 16.406C84.6386 16.406 85.2326 16.526 85.7126 16.766C86.2046 16.994 86.6006 17.3 86.9006 17.684C87.2006 18.056 87.4106 18.512 87.5306 19.052C87.6506 19.592 87.7106 20.198 87.7106 20.87V26H86.4326L86.3426 24.794ZM84.5426 21.716C84.2546 21.716 83.9186 21.722 83.5346 21.734C83.1626 21.734 82.8026 21.77 82.4546 21.842C82.1066 21.914 81.8246 22.064 81.6086 22.292C81.4046 22.52 81.3026 22.82 81.3026 23.192C81.3026 23.468 81.3566 23.702 81.4646 23.894C81.5726 24.086 81.7166 24.248 81.8966 24.38C82.0886 24.512 82.3046 24.608 82.5446 24.668C82.7846 24.728 83.0306 24.758 83.2826 24.758C84.1826 24.758 84.8906 24.542 85.4066 24.11C85.9346 23.666 86.2046 23.024 86.2166 22.184V21.716H84.5426ZM98.541 25.928C98.541 27.272 98.181 28.328 97.461 29.096C96.741 29.864 95.655 30.248 94.203 30.248C93.723 30.248 93.261 30.194 92.817 30.086C92.385 29.978 91.989 29.804 91.629 29.564C91.281 29.336 90.981 29.042 90.729 28.682C90.489 28.334 90.321 27.914 90.225 27.422H91.809C91.881 27.698 92.001 27.926 92.169 28.106C92.349 28.298 92.553 28.448 92.781 28.556C93.009 28.676 93.255 28.76 93.519 28.808C93.783 28.856 94.041 28.88 94.293 28.88C94.773 28.88 95.187 28.802 95.535 28.646C95.883 28.502 96.165 28.298 96.381 28.034C96.597 27.77 96.753 27.452 96.849 27.08C96.957 26.72 97.011 26.324 97.011 25.892V24.578C96.699 25.13 96.255 25.526 95.679 25.766C95.103 25.994 94.503 26.108 93.879 26.108C93.159 26.096 92.535 25.97 92.007 25.73C91.479 25.478 91.047 25.136 90.711 24.704C90.375 24.272 90.123 23.768 89.955 23.192C89.799 22.604 89.721 21.968 89.721 21.284C89.721 20.6 89.805 19.964 89.973 19.376C90.141 18.776 90.399 18.26 90.747 17.828C91.095 17.384 91.533 17.036 92.061 16.784C92.589 16.532 93.219 16.406 93.951 16.406C94.503 16.406 95.061 16.508 95.625 16.712C96.189 16.916 96.651 17.246 97.011 17.702L97.083 16.514H98.541V25.928ZM94.077 17.774C93.561 17.774 93.123 17.87 92.763 18.062C92.403 18.242 92.109 18.488 91.881 18.8C91.665 19.112 91.503 19.484 91.395 19.916C91.299 20.336 91.251 20.786 91.251 21.266C91.251 21.794 91.299 22.262 91.395 22.67C91.491 23.066 91.653 23.42 91.881 23.732C92.109 24.044 92.403 24.296 92.763 24.488C93.123 24.668 93.567 24.758 94.095 24.758C94.707 24.758 95.211 24.614 95.607 24.326C96.003 24.038 96.321 23.678 96.561 23.246C96.729 22.946 96.849 22.622 96.921 22.274C96.993 21.914 97.029 21.56 97.029 21.212C97.029 20.78 96.987 20.384 96.903 20.024C96.831 19.664 96.693 19.328 96.489 19.016C96.249 18.668 95.931 18.374 95.535 18.134C95.139 17.894 94.653 17.774 94.077 17.774ZM100.944 26V16.514H102.42L102.492 17.99C102.84 17.438 103.284 17.036 103.824 16.784C104.364 16.532 104.976 16.406 105.66 16.406H106.146V17.846H105.588C105.024 17.846 104.544 17.942 104.148 18.134C103.752 18.314 103.428 18.566 103.176 18.89C102.936 19.202 102.756 19.574 102.636 20.006C102.528 20.438 102.474 20.894 102.474 21.374V26H100.944ZM113.905 24.794C113.701 25.07 113.467 25.292 113.203 25.46C112.939 25.628 112.663 25.76 112.375 25.856C112.099 25.952 111.817 26.018 111.529 26.054C111.253 26.09 110.977 26.108 110.701 26.108C110.257 26.108 109.837 26.054 109.441 25.946C109.045 25.838 108.685 25.664 108.361 25.424C108.049 25.184 107.797 24.884 107.605 24.524C107.425 24.164 107.335 23.756 107.335 23.3C107.335 22.76 107.431 22.31 107.623 21.95C107.827 21.578 108.097 21.278 108.433 21.05C108.769 20.822 109.153 20.666 109.585 20.582C110.029 20.486 110.497 20.438 110.989 20.438H113.779C113.779 19.634 113.605 18.998 113.257 18.53C112.909 18.05 112.321 17.798 111.493 17.774C110.989 17.774 110.545 17.858 110.161 18.026C109.777 18.194 109.513 18.47 109.369 18.854H107.731C107.815 18.422 107.983 18.056 108.235 17.756C108.487 17.444 108.787 17.192 109.135 17C109.483 16.796 109.861 16.646 110.269 16.55C110.677 16.454 111.085 16.406 111.493 16.406C112.201 16.406 112.795 16.526 113.275 16.766C113.767 16.994 114.163 17.3 114.463 17.684C114.763 18.056 114.973 18.512 115.093 19.052C115.213 19.592 115.273 20.198 115.273 20.87V26H113.995L113.905 24.794ZM112.105 21.716C111.817 21.716 111.481 21.722 111.097 21.734C110.725 21.734 110.365 21.77 110.017 21.842C109.669 21.914 109.387 22.064 109.171 22.292C108.967 22.52 108.865 22.82 108.865 23.192C108.865 23.468 108.919 23.702 109.027 23.894C109.135 24.086 109.279 24.248 109.459 24.38C109.651 24.512 109.867 24.608 110.107 24.668C110.347 24.728 110.593 24.758 110.845 24.758C111.745 24.758 112.453 24.542 112.969 24.11C113.497 23.666 113.767 23.024 113.779 22.184V21.716H112.105ZM119.192 17.648C119.492 17.228 119.858 16.916 120.29 16.712C120.734 16.508 121.226 16.406 121.766 16.406C122.426 16.418 122.96 16.562 123.368 16.838C123.776 17.114 124.082 17.48 124.286 17.936C124.61 17.456 125.006 17.084 125.474 16.82C125.954 16.544 126.518 16.406 127.166 16.406C127.682 16.406 128.126 16.496 128.498 16.676C128.87 16.844 129.17 17.084 129.398 17.396C129.626 17.696 129.794 18.05 129.902 18.458C130.01 18.866 130.064 19.31 130.064 19.79V26H128.534V20.564C128.534 20.252 128.516 19.934 128.48 19.61C128.456 19.274 128.384 18.974 128.264 18.71C128.144 18.434 127.964 18.212 127.724 18.044C127.484 17.864 127.16 17.774 126.752 17.774C126.356 17.774 126.02 17.87 125.744 18.062C125.468 18.242 125.246 18.482 125.078 18.782C124.922 19.082 124.808 19.412 124.736 19.772C124.664 20.132 124.628 20.486 124.628 20.834V26H123.098V20.546C123.098 20.246 123.086 19.934 123.062 19.61C123.038 19.274 122.966 18.974 122.846 18.71C122.738 18.434 122.57 18.212 122.342 18.044C122.114 17.864 121.796 17.774 121.388 17.774C120.956 17.774 120.596 17.87 120.308 18.062C120.032 18.254 119.804 18.5 119.624 18.8C119.456 19.1 119.336 19.436 119.264 19.808C119.204 20.168 119.174 20.516 119.174 20.852V26H117.644V16.514H119.12L119.192 17.648Z" fill="white"/>
<defs>
<linearGradient id="paint0_linear_108_487" x1="143.552" y1="2.68657" x2="130.419" y2="63.0739" gradientUnits="userSpaceOnUse">
<stop stop-color="#334FFF"/>
<stop offset="0.197917" stop-color="#C838F7"/>
<stop offset="0.390625" stop-color="#FF1F7A"/>
<stop offset="0.875" stop-color="#FF8534"/>
<stop offset="1" stop-color="#FFBD28"/>
</linearGradient>
</defs>
</svg>
