<svg width="90" height="24" viewBox="0 0 90 24" fill="none" xmlns="http://www.w3.org/2000/svg">
<path d="M5.008 18.904H16.112V23H0.4V0.344H5.008V18.904ZM29.384 0.0559998C31.112 0.0559998 32.6693 0.333333 34.056 0.887999C35.4427 1.44267 36.616 2.232 37.576 3.256C38.536 4.25867 39.272 5.464 39.784 6.872C40.296 8.28 40.552 9.83733 40.552 11.544C40.552 13.208 40.296 14.7547 39.784 16.184C39.272 17.6133 38.536 18.8507 37.576 19.896C36.616 20.9413 35.432 21.7627 34.024 22.36C32.6373 22.936 31.0587 23.2133 29.288 23.192C27.5173 23.192 25.9387 22.904 24.552 22.328C23.1867 21.7307 22.024 20.92 21.064 19.896C20.1253 18.872 19.4 17.656 18.888 16.248C18.3973 14.84 18.152 13.304 18.152 11.64C18.152 9.93333 18.408 8.376 18.92 6.968C19.4533 5.53867 20.2 4.312 21.16 3.288C22.1413 2.264 23.3253 1.47467 24.712 0.919998C26.0987 0.343999 27.656 0.0559998 29.384 0.0559998ZM22.92 11.576C22.92 12.5573 23.048 13.496 23.304 14.392C23.5813 15.2667 23.976 16.0453 24.488 16.728C25.0213 17.4107 25.6933 17.9653 26.504 18.392C27.3147 18.7973 28.264 19.0107 29.352 19.032C30.3973 19.0533 31.3253 18.872 32.136 18.488C32.9467 18.0827 33.6187 17.5387 34.152 16.856C34.6853 16.152 35.0907 15.352 35.368 14.456C35.6453 13.5387 35.784 12.5893 35.784 11.608C35.784 10.648 35.6453 9.72 35.368 8.824C35.112 7.928 34.7173 7.13867 34.184 6.456C33.672 5.752 33.0107 5.19733 32.2 4.792C31.3893 4.38667 30.44 4.184 29.352 4.184C28.2853 4.184 27.3467 4.38667 26.536 4.792C25.7253 5.19733 25.0533 5.74133 24.52 6.424C23.9867 7.10667 23.5813 7.896 23.304 8.792C23.048 9.66667 22.92 10.5947 22.92 11.576ZM47.9833 11.64C47.9833 12.6213 48.1006 13.56 48.3353 14.456C48.5913 15.3307 48.9753 16.1093 49.4873 16.792C49.9993 17.4533 50.6499 17.9867 51.4392 18.392C52.2286 18.7973 53.1673 19.0107 54.2553 19.032C54.9166 19.0533 55.5566 18.9787 56.1753 18.808C56.8153 18.6373 57.3806 18.3813 57.8713 18.04C58.3619 17.6773 58.7566 17.2187 59.0553 16.664C59.3753 16.1093 59.5673 15.4587 59.6313 14.712H53.9353V10.968H64.1753C64.1966 11.7787 64.1859 12.6107 64.1433 13.464C64.1006 14.3173 63.9833 15.1493 63.7913 15.96C63.6206 16.7707 63.3539 17.56 62.9913 18.328C62.6499 19.0747 62.1913 19.7467 61.6153 20.344C60.8046 21.1973 59.7913 21.8907 58.5753 22.424C57.3593 22.936 55.8979 23.192 54.1913 23.192C52.4206 23.192 50.8419 22.9147 49.4553 22.36C48.0899 21.784 46.9379 20.984 45.9993 19.96C45.0819 18.936 44.3779 17.72 43.8873 16.312C43.4179 14.904 43.1833 13.3573 43.1833 11.672C43.1833 9.944 43.4179 8.36533 43.8873 6.936C44.3779 5.50667 45.0926 4.29067 46.0312 3.288C46.9699 2.264 48.1219 1.47467 49.4873 0.919998C50.8739 0.343999 52.4526 0.0559998 54.2233 0.0559998C55.4393 0.0559998 56.6019 0.216 57.7113 0.535999C58.8206 0.855999 59.8019 1.336 60.6553 1.976C61.5086 2.616 62.2126 3.416 62.7673 4.376C63.3219 5.336 63.6526 6.456 63.7593 7.736H59.2793C59.0659 6.648 58.4686 5.77333 57.4873 5.112C56.5273 4.45067 55.3753 4.14133 54.0313 4.184C52.9646 4.22667 52.0473 4.46133 51.2793 4.888C50.5113 5.29333 49.8819 5.83733 49.3913 6.52C48.9006 7.20267 48.5379 7.992 48.3033 8.888C48.0899 9.76267 47.9833 10.68 47.9833 11.64ZM78.0403 0.0559998C79.7683 0.0559998 81.3256 0.333333 82.7123 0.887999C84.0989 1.44267 85.2723 2.232 86.2323 3.256C87.1923 4.25867 87.9283 5.464 88.4403 6.872C88.9523 8.28 89.2083 9.83733 89.2083 11.544C89.2083 13.208 88.9523 14.7547 88.4403 16.184C87.9283 17.6133 87.1923 18.8507 86.2323 19.896C85.2723 20.9413 84.0883 21.7627 82.6803 22.36C81.2936 22.936 79.7149 23.2133 77.9443 23.192C76.1736 23.192 74.5949 22.904 73.2083 22.328C71.8429 21.7307 70.6803 20.92 69.7203 19.896C68.7816 18.872 68.0563 17.656 67.5443 16.248C67.0536 14.84 66.8083 13.304 66.8083 11.64C66.8083 9.93333 67.0643 8.376 67.5763 6.968C68.1096 5.53867 68.8563 4.312 69.8163 3.288C70.7976 2.264 71.9816 1.47467 73.3683 0.919998C74.7549 0.343999 76.3123 0.0559998 78.0403 0.0559998ZM71.5763 11.576C71.5763 12.5573 71.7043 13.496 71.9603 14.392C72.2376 15.2667 72.6323 16.0453 73.1443 16.728C73.6776 17.4107 74.3496 17.9653 75.1603 18.392C75.9709 18.7973 76.9203 19.0107 78.0083 19.032C79.0536 19.0533 79.9816 18.872 80.7923 18.488C81.6029 18.0827 82.2749 17.5387 82.8083 16.856C83.3416 16.152 83.7469 15.352 84.0243 14.456C84.3016 13.5387 84.4403 12.5893 84.4403 11.608C84.4403 10.648 84.3016 9.72 84.0243 8.824C83.7683 7.928 83.3736 7.13867 82.8403 6.456C82.3283 5.752 81.6669 5.19733 80.8563 4.792C80.0456 4.38667 79.0963 4.184 78.0083 4.184C76.9416 4.184 76.0029 4.38667 75.1923 4.792C74.3816 5.19733 73.7096 5.74133 73.1763 6.424C72.6429 7.10667 72.2376 7.896 71.9603 8.792C71.7043 9.66667 71.5763 10.5947 71.5763 11.576Z" fill="black"/>
</svg>
