<svg width="317" height="58" viewBox="0 0 317 58" fill="none" xmlns="http://www.w3.org/2000/svg">
<path d="M26.592 29.016H28.656L26.592 24.768L26.064 23.64L23.736 18.888L17.256 5.52L14.64 0.0479994L12 5.52L5.52 18.888L3.216 23.64L2.664 24.768L0.6 29.016H2.664H5.904L8.496 23.64H20.784L23.352 29.016H26.592ZM14.64 10.944L18.48 18.888H10.776L14.64 10.944ZM36.018 29.016V18.216H40.746L49.146 29.016H55.194L46.746 18.192C49.098 18.024 51.114 17.064 52.746 15.312C54.378 13.584 55.194 11.52 55.194 9.12C55.194 6.648 54.306 4.512 52.53 2.736C50.754 0.959999 48.618 0.0479994 46.122 0.0479994H36.018H31.29V18.216V29.016H36.018ZM36.018 13.464V4.8H46.122C47.298 4.8 48.306 5.232 49.17 6.072C50.01 6.936 50.442 7.944 50.442 9.12C50.442 10.32 50.01 11.328 49.17 12.192C48.306 13.056 47.298 13.464 46.122 13.464H43.05H40.578H36.018ZM65.2523 4.8V29.016H70.0043V4.8H78.5963V0.0479994H70.0043H56.6363V4.8H65.2523ZM101.815 24.264V16.896H112.567C113.575 16.896 114.415 17.28 115.135 18C115.855 18.72 116.215 19.584 116.215 20.592C116.215 21.6 115.855 22.464 115.135 23.184C114.415 23.904 113.575 24.264 112.567 24.264H101.815ZM97.0631 16.896V29.016H101.815H112.567C114.871 29.016 116.839 28.2 118.495 26.544C120.127 24.888 120.967 22.896 120.967 20.592C120.967 19.296 120.679 18.048 120.127 16.896C119.671 15.984 119.095 15.192 118.399 14.52C118.375 14.52 118.207 14.352 117.871 14.064C118.351 13.488 118.759 12.864 119.143 12.144C119.671 11.016 119.959 9.792 119.959 8.472C119.959 6.168 119.119 4.176 117.487 2.52C115.855 0.887999 113.863 0.0479994 111.559 0.0479994H101.815H97.0631V12.144V14.52V16.896ZM101.815 12.144V4.8H111.559C112.567 4.8 113.431 5.16 114.151 5.88C114.871 6.6 115.231 7.464 115.231 8.472C115.231 9.48 114.871 10.344 114.151 11.064C113.431 11.784 112.567 12.144 111.559 12.144H101.815ZM128.357 29.016H143.477V24.264H128.357V0.0479994H123.605V24.264V29.016H128.357ZM159.86 0.0479994H160.916C163.508 0.0479994 165.932 0.695998 168.164 1.992C170.372 3.288 172.148 5.064 173.444 7.272C174.74 9.504 175.388 11.928 175.388 14.52C175.388 17.136 174.74 19.56 173.444 21.792C172.148 24.024 170.372 25.776 168.164 27.072C165.932 28.368 163.508 29.016 160.916 29.016H159.86C157.244 29.016 154.82 28.368 152.612 27.072C150.38 25.776 148.628 24.024 147.332 21.792C146.036 19.56 145.388 17.136 145.388 14.52C145.388 11.928 146.036 9.504 147.332 7.272C148.628 5.064 150.38 3.288 152.612 1.992C154.82 0.695998 157.244 0.0479994 159.86 0.0479994ZM159.86 4.8C157.172 4.8 154.892 5.76 152.972 7.656C151.052 9.576 150.116 11.856 150.116 14.52C150.116 17.208 151.052 19.488 152.972 21.408C154.892 23.328 157.172 24.264 159.86 24.264H160.916C163.58 24.264 165.86 23.328 167.78 21.408C169.676 19.488 170.636 17.208 170.636 14.52C170.636 11.856 169.676 9.576 167.78 7.656C165.86 5.76 163.58 4.8 160.916 4.8H159.86ZM203.248 13.728H193.048V18.48H202.432C202.168 19.056 201.904 19.536 201.64 19.92C200.728 21.264 199.576 22.32 198.16 23.088C196.72 23.88 195.184 24.264 193.552 24.264H192.496C189.808 24.264 187.528 23.328 185.632 21.408C183.712 19.488 182.776 17.208 182.776 14.52C182.776 11.856 183.712 9.576 185.632 7.656C187.528 5.76 189.808 4.8 192.496 4.8H193.552C195.184 4.8 196.72 5.208 198.16 5.976C199.576 6.744 200.728 7.8 201.64 9.12H206.992C205.888 6.432 204.112 4.248 201.664 2.568C199.216 0.887999 196.528 0.0479994 193.552 0.0479994H192.496C190.672 0.0479994 188.92 0.383999 187.24 1.056C185.56 1.728 184.072 2.64 182.776 3.816C181.288 5.184 180.112 6.792 179.272 8.64C178.432 10.512 178.024 12.456 178.024 14.52C178.024 16.608 178.432 18.576 179.272 20.424C180.112 22.296 181.288 23.88 182.776 25.224C185.536 27.768 188.776 29.016 192.496 29.016H193.552C196 29.016 198.304 28.44 200.416 27.288C202.528 26.136 204.232 24.552 205.576 22.56C206.44 21.288 207.064 19.92 207.496 18.48C207.856 17.136 208.048 15.816 208.048 14.52C208.048 14.448 208.024 14.328 208.024 14.136C208.024 13.968 208.024 13.824 208.024 13.728H203.248ZM235.907 13.728H225.707V18.48H235.091C234.827 19.056 234.563 19.536 234.299 19.92C233.387 21.264 232.235 22.32 230.819 23.088C229.379 23.88 227.843 24.264 226.211 24.264H225.155C222.467 24.264 220.187 23.328 218.291 21.408C216.371 19.488 215.435 17.208 215.435 14.52C215.435 11.856 216.371 9.576 218.291 7.656C220.187 5.76 222.467 4.8 225.155 4.8H226.211C227.843 4.8 229.379 5.208 230.819 5.976C232.235 6.744 233.387 7.8 234.299 9.12H239.651C238.547 6.432 236.771 4.248 234.323 2.568C231.875 0.887999 229.187 0.0479994 226.211 0.0479994H225.155C223.331 0.0479994 221.579 0.383999 219.899 1.056C218.219 1.728 216.731 2.64 215.435 3.816C213.947 5.184 212.771 6.792 211.931 8.64C211.091 10.512 210.683 12.456 210.683 14.52C210.683 16.608 211.091 18.576 211.931 20.424C212.771 22.296 213.947 23.88 215.435 25.224C218.195 27.768 221.435 29.016 225.155 29.016H226.211C228.659 29.016 230.963 28.44 233.075 27.288C235.187 26.136 236.891 24.552 238.235 22.56C239.099 21.288 239.723 19.92 240.155 18.48C240.515 17.136 240.707 15.816 240.707 14.52C240.707 14.448 240.683 14.328 240.683 14.136C240.683 13.968 240.683 13.824 240.683 13.728H235.907ZM263.693 24.264H248.093V16.896H263.693V12.144H248.093V4.8H263.693V0.0479994H243.341V4.8V12.144V16.896V24.264V29.016H263.693V24.264ZM271.072 29.016V18.216H275.8L284.2 29.016H290.248L281.8 18.192C284.152 18.024 286.168 17.064 287.8 15.312C289.432 13.584 290.248 11.52 290.248 9.12C290.248 6.648 289.36 4.512 287.584 2.736C285.808 0.959999 283.672 0.0479994 281.176 0.0479994H271.072H266.344V18.216V29.016H271.072ZM271.072 13.464V4.8H281.176C282.352 4.8 283.36 5.232 284.224 6.072C285.064 6.936 285.496 7.944 285.496 9.12C285.496 10.32 285.064 11.328 284.224 12.192C283.36 13.056 282.352 13.464 281.176 13.464H278.104H275.632H271.072ZM307.429 4.8C308.245 4.8 308.965 5.064 309.613 5.544C310.261 6.024 310.717 6.648 310.957 7.392H315.781C315.493 5.328 314.581 3.576 312.997 2.16C311.413 0.767999 309.541 0.0479994 307.429 0.0479994H301.309C300.013 0.0479994 298.789 0.335999 297.637 0.911998C296.197 1.632 295.045 2.64 294.181 3.984C293.317 5.328 292.885 6.84 292.885 8.472C292.885 9.768 293.149 10.992 293.725 12.144C294.133 13.032 294.709 13.824 295.477 14.52C296.077 15.144 296.797 15.648 297.637 16.032C298.741 16.608 299.941 16.896 301.285 16.896H307.429H307.453C308.461 16.92 309.325 17.28 310.045 18C310.765 18.72 311.125 19.584 311.125 20.592C311.125 21.6 310.741 22.464 310.021 23.184C309.301 23.904 308.437 24.264 307.429 24.264H301.309C300.493 24.264 299.773 24.024 299.125 23.544C298.477 23.064 298.045 22.44 297.805 21.672H297.637H292.957C293.149 23.088 293.653 24.36 294.493 25.512C295.309 26.664 296.365 27.528 297.637 28.152C298.789 28.728 300.013 29.016 301.309 29.016H307.429C309.733 29.016 311.725 28.2 313.381 26.544C315.037 24.888 315.877 22.896 315.877 20.592C315.877 19.368 315.589 18.144 315.013 16.896C314.581 16.032 314.005 15.24 313.285 14.52C311.653 12.96 309.709 12.168 307.477 12.144H307.429H301.309C300.277 12.144 299.413 11.784 298.693 11.064C297.973 10.344 297.637 9.48 297.637 8.472C297.637 7.464 297.973 6.6 298.693 5.88C299.413 5.16 300.277 4.8 301.309 4.8H307.429Z" fill="black"/>
<path opacity="0.6" d="M139.056 51L138.16 48.568H132.56L131.664 51H130.16L134.368 39.688H136.368L140.56 51H139.056ZM135.36 40.904L133.024 47.304H137.696L135.36 40.904ZM149.311 50.936C149.311 52.1307 148.991 53.0693 148.351 53.752C147.711 54.4347 146.745 54.776 145.455 54.776C145.028 54.776 144.617 54.728 144.223 54.632C143.839 54.536 143.487 54.3813 143.167 54.168C142.857 53.9653 142.591 53.704 142.367 53.384C142.153 53.0747 142.004 52.7013 141.919 52.264H143.327C143.391 52.5093 143.497 52.712 143.647 52.872C143.807 53.0427 143.988 53.176 144.191 53.272C144.393 53.3787 144.612 53.4533 144.847 53.496C145.081 53.5387 145.311 53.56 145.535 53.56C145.961 53.56 146.329 53.4907 146.639 53.352C146.948 53.224 147.199 53.0427 147.391 52.808C147.583 52.5733 147.721 52.2907 147.807 51.96C147.903 51.64 147.951 51.288 147.951 50.904V49.736C147.673 50.2267 147.279 50.5787 146.767 50.792C146.255 50.9947 145.721 51.096 145.167 51.096C144.527 51.0853 143.972 50.9733 143.503 50.76C143.033 50.536 142.649 50.232 142.351 49.848C142.052 49.464 141.828 49.016 141.679 48.504C141.54 47.9813 141.471 47.416 141.471 46.808C141.471 46.2 141.545 45.6347 141.695 45.112C141.844 44.5787 142.073 44.12 142.383 43.736C142.692 43.3413 143.081 43.032 143.551 42.808C144.02 42.584 144.58 42.472 145.231 42.472C145.721 42.472 146.217 42.5627 146.719 42.744C147.22 42.9253 147.631 43.2187 147.951 43.624L148.015 42.568H149.311V50.936ZM145.343 43.688C144.884 43.688 144.495 43.7733 144.175 43.944C143.855 44.104 143.593 44.3227 143.391 44.6C143.199 44.8773 143.055 45.208 142.959 45.592C142.873 45.9653 142.831 46.3653 142.831 46.792C142.831 47.2613 142.873 47.6773 142.959 48.04C143.044 48.392 143.188 48.7067 143.391 48.984C143.593 49.2613 143.855 49.4853 144.175 49.656C144.495 49.816 144.889 49.896 145.359 49.896C145.903 49.896 146.351 49.768 146.703 49.512C147.055 49.256 147.337 48.936 147.551 48.552C147.7 48.2853 147.807 47.9973 147.871 47.688C147.935 47.368 147.967 47.0533 147.967 46.744C147.967 46.36 147.929 46.008 147.855 45.688C147.791 45.368 147.668 45.0693 147.487 44.792C147.273 44.4827 146.991 44.2213 146.639 44.008C146.287 43.7947 145.855 43.688 145.343 43.688ZM152.503 47.288C152.535 47.6613 152.61 48.008 152.727 48.328C152.855 48.6373 153.026 48.9093 153.239 49.144C153.452 49.3787 153.714 49.5653 154.023 49.704C154.343 49.832 154.711 49.896 155.127 49.896C155.33 49.896 155.538 49.88 155.751 49.848C155.975 49.8053 156.183 49.7413 156.375 49.656C156.567 49.56 156.738 49.4373 156.887 49.288C157.036 49.1387 157.148 48.9573 157.223 48.744H158.615C158.519 49.1493 158.354 49.5013 158.119 49.8C157.895 50.0987 157.623 50.344 157.303 50.536C156.994 50.728 156.647 50.872 156.263 50.968C155.879 51.0533 155.49 51.096 155.095 51.096C154.423 51.096 153.836 50.9893 153.335 50.776C152.844 50.5627 152.434 50.2693 152.103 49.896C151.772 49.512 151.527 49.0587 151.367 48.536C151.207 48.0027 151.127 47.4213 151.127 46.792C151.127 46.1627 151.212 45.5867 151.383 45.064C151.564 44.5307 151.82 44.072 152.151 43.688C152.482 43.304 152.887 43.0053 153.367 42.792C153.847 42.5787 154.418 42.472 155.079 42.472C155.751 42.472 156.332 42.6053 156.823 42.872C157.314 43.1387 157.708 43.4907 158.007 43.928C158.306 44.3547 158.514 44.8187 158.631 45.32C158.759 45.8213 158.812 46.2853 158.791 46.712C158.791 46.808 158.786 46.904 158.775 47C158.775 47.096 158.77 47.192 158.759 47.288H152.503ZM157.415 46.104C157.394 45.3893 157.17 44.808 156.743 44.36C156.316 43.912 155.746 43.688 155.031 43.688C154.636 43.688 154.29 43.752 153.991 43.88C153.692 44.008 153.442 44.184 153.239 44.408C153.036 44.632 152.876 44.8933 152.759 45.192C152.642 45.48 152.567 45.784 152.535 46.104H157.415ZM160.619 51V42.568H161.931L161.995 43.848C162.134 43.6133 162.304 43.4107 162.507 43.24C162.72 43.0693 162.95 42.9253 163.195 42.808C163.44 42.6907 163.696 42.6053 163.963 42.552C164.24 42.4987 164.507 42.472 164.763 42.472C165.371 42.472 165.883 42.5733 166.299 42.776C166.715 42.968 167.046 43.24 167.291 43.592C167.536 43.9333 167.712 44.344 167.819 44.824C167.926 45.2933 167.979 45.8 167.979 46.344V51H166.619V46.712C166.619 46.3173 166.592 45.9387 166.539 45.576C166.496 45.2133 166.4 44.8933 166.251 44.616C166.112 44.328 165.91 44.0987 165.643 43.928C165.376 43.7573 165.019 43.672 164.571 43.672C164.134 43.6827 163.744 43.7893 163.403 43.992C163.072 44.1947 162.806 44.4347 162.603 44.712C162.358 45.064 162.192 45.4533 162.107 45.88C162.022 46.296 161.979 46.7173 161.979 47.144V51H160.619ZM173.672 51.096C173 51.096 172.419 50.9893 171.928 50.776C171.437 50.5627 171.032 50.264 170.712 49.88C170.392 49.496 170.152 49.0427 169.992 48.52C169.832 47.9973 169.752 47.4267 169.752 46.808C169.752 46.2107 169.837 45.6507 170.008 45.128C170.179 44.5947 170.429 44.136 170.76 43.752C171.091 43.3573 171.507 43.048 172.008 42.824C172.509 42.5893 173.117 42.472 173.832 42.472C174.259 42.472 174.637 42.52 174.968 42.616C175.299 42.7013 175.608 42.8453 175.896 43.048C176.195 43.24 176.451 43.496 176.664 43.816C176.877 44.136 177.032 44.5253 177.128 44.984H175.736C175.576 44.5147 175.32 44.1787 174.968 43.976C174.627 43.7733 174.221 43.6773 173.752 43.688C173.293 43.688 172.888 43.7787 172.536 43.96C172.195 44.1307 171.917 44.36 171.704 44.648C171.501 44.936 171.352 45.272 171.256 45.656C171.16 46.0293 171.112 46.4133 171.112 46.808C171.112 47.224 171.16 47.6187 171.256 47.992C171.363 48.3653 171.517 48.696 171.72 48.984C171.933 49.2613 172.205 49.4853 172.536 49.656C172.867 49.816 173.261 49.896 173.72 49.896C173.944 49.896 174.163 49.8747 174.376 49.832C174.6 49.7893 174.803 49.72 174.984 49.624C175.176 49.5173 175.341 49.3787 175.48 49.208C175.619 49.0373 175.72 48.8293 175.784 48.584H177.192C177.107 49.0213 176.952 49.4 176.728 49.72C176.515 50.0293 176.248 50.2907 175.928 50.504C175.608 50.7067 175.256 50.856 174.872 50.952C174.488 51.048 174.088 51.096 173.672 51.096ZM186.324 42.568V51C186.324 52.2267 186.004 53.16 185.364 53.8C184.724 54.4507 183.812 54.776 182.628 54.776C181.913 54.7653 181.268 54.6693 180.692 54.488C180.126 54.3173 179.604 54.008 179.124 53.56L179.716 52.488C180.132 52.8187 180.574 53.08 181.044 53.272C181.524 53.464 182.025 53.56 182.548 53.56C182.985 53.56 183.358 53.4907 183.668 53.352C183.977 53.224 184.228 53.0373 184.42 52.792C184.622 52.5573 184.766 52.2747 184.852 51.944C184.948 51.6133 184.996 51.256 184.996 50.872V49.864C184.857 50.0773 184.681 50.2693 184.468 50.44C184.265 50.6 184.041 50.7333 183.796 50.84C183.561 50.936 183.305 51.0053 183.028 51.048C182.761 51.1013 182.489 51.128 182.212 51.128C181.572 51.1173 181.038 51.016 180.612 50.824C180.196 50.632 179.86 50.3653 179.604 50.024C179.358 49.6827 179.182 49.2773 179.076 48.808C178.969 48.328 178.916 47.8 178.916 47.224V42.568H180.276V46.84C180.276 47.224 180.297 47.6027 180.34 47.976C180.393 48.3493 180.494 48.68 180.644 48.968C180.793 49.256 181.012 49.4907 181.3 49.672C181.588 49.8427 181.972 49.928 182.452 49.928C182.932 49.928 183.337 49.8267 183.668 49.624C184.009 49.4213 184.27 49.1653 184.452 48.856C184.654 48.536 184.788 48.184 184.852 47.8C184.926 47.416 184.964 47.0213 184.964 46.616V42.568H186.324Z" fill="black"/>
</svg>
