<svg width="251" height="25" viewBox="0 0 251 25" fill="none" xmlns="http://www.w3.org/2000/svg">
<path d="M22.16 24.18H23.88L22.16 20.64L21.72 19.7L19.78 15.74L14.38 4.6L12.2 0.0399995L10 4.6L4.6 15.74L2.68 19.7L2.22 20.64L0.5 24.18H2.22H4.92L7.08 19.7H17.32L19.46 24.18H22.16ZM12.2 9.12L15.4 15.74H8.98L12.2 9.12ZM28.815 24.18V15.18H32.755L39.755 24.18H44.795L37.755 15.16C39.715 15.02 41.395 14.22 42.755 12.76C44.115 11.32 44.795 9.6 44.795 7.6C44.795 5.54 44.055 3.76 42.575 2.28C41.095 0.799999 39.315 0.0399995 37.235 0.0399995H28.815H24.875V15.18V24.18H28.815ZM28.815 11.22V4H37.235C38.215 4 39.055 4.36 39.775 5.06C40.475 5.78 40.835 6.62 40.835 7.6C40.835 8.6 40.475 9.44 39.775 10.16C39.055 10.88 38.215 11.22 37.235 11.22H34.675H32.615H28.815ZM51.9769 4V24.18H55.9369V4H63.0969V0.0399995H55.9369H44.7969V4H51.9769ZM80.0459 20.22V14.08H89.0059C89.8459 14.08 90.5459 14.4 91.1459 15C91.7459 15.6 92.0459 16.32 92.0459 17.16C92.0459 18 91.7459 18.72 91.1459 19.32C90.5459 19.92 89.8459 20.22 89.0059 20.22H80.0459ZM76.0859 14.08V24.18H80.0459H89.0059C90.9259 24.18 92.5659 23.5 93.9459 22.12C95.3059 20.74 96.0059 19.08 96.0059 17.16C96.0059 16.08 95.7659 15.04 95.3059 14.08C94.9259 13.32 94.4459 12.66 93.8659 12.1C93.8459 12.1 93.7059 11.96 93.4259 11.72C93.8259 11.24 94.1659 10.72 94.4859 10.12C94.9259 9.18 95.1659 8.16 95.1659 7.06C95.1659 5.14 94.4659 3.48 93.1059 2.1C91.7459 0.739999 90.0859 0.0399995 88.1659 0.0399995H80.0459H76.0859V10.12V12.1V14.08ZM80.0459 10.12V4H88.1659C89.0059 4 89.7259 4.3 90.3259 4.9C90.9259 5.5 91.2259 6.22 91.2259 7.06C91.2259 7.9 90.9259 8.62 90.3259 9.22C89.7259 9.82 89.0059 10.12 88.1659 10.12H80.0459ZM100.964 24.18H113.564V20.22H100.964V0.0399995H97.0039V20.22V24.18H100.964ZM126.017 0.0399995H126.897C129.057 0.0399995 131.077 0.579998 132.937 1.66C134.777 2.74 136.257 4.22 137.337 6.06C138.417 7.92 138.957 9.94 138.957 12.1C138.957 14.28 138.417 16.3 137.337 18.16C136.257 20.02 134.777 21.48 132.937 22.56C131.077 23.64 129.057 24.18 126.897 24.18H126.017C123.837 24.18 121.817 23.64 119.977 22.56C118.117 21.48 116.657 20.02 115.577 18.16C114.497 16.3 113.957 14.28 113.957 12.1C113.957 9.94 114.497 7.92 115.577 6.06C116.657 4.22 118.117 2.74 119.977 1.66C121.817 0.579998 123.837 0.0399995 126.017 0.0399995ZM126.017 4C123.777 4 121.877 4.8 120.277 6.38C118.677 7.98 117.897 9.88 117.897 12.1C117.897 14.34 118.677 16.24 120.277 17.84C121.877 19.44 123.777 20.22 126.017 20.22H126.897C129.117 20.22 131.017 19.44 132.617 17.84C134.197 16.24 134.997 14.34 134.997 12.1C134.997 9.88 134.197 7.98 132.617 6.38C131.017 4.8 129.117 4 126.897 4H126.017ZM160.973 11.44H152.473V15.4H160.293C160.073 15.88 159.853 16.28 159.633 16.6C158.873 17.72 157.913 18.6 156.733 19.24C155.533 19.9 154.253 20.22 152.893 20.22H152.013C149.773 20.22 147.873 19.44 146.293 17.84C144.693 16.24 143.913 14.34 143.913 12.1C143.913 9.88 144.693 7.98 146.293 6.38C147.873 4.8 149.773 4 152.013 4H152.893C154.253 4 155.533 4.34 156.733 4.98C157.913 5.62 158.873 6.5 159.633 7.6H164.093C163.173 5.36 161.693 3.54 159.653 2.14C157.613 0.739999 155.373 0.0399995 152.893 0.0399995H152.013C150.493 0.0399995 149.033 0.319999 147.633 0.879999C146.233 1.44 144.993 2.2 143.913 3.18C142.673 4.32 141.693 5.66 140.993 7.2C140.293 8.76 139.953 10.38 139.953 12.1C139.953 13.84 140.293 15.48 140.993 17.02C141.693 18.58 142.673 19.9 143.913 21.02C146.213 23.14 148.913 24.18 152.013 24.18H152.893C154.933 24.18 156.853 23.7 158.613 22.74C160.373 21.78 161.793 20.46 162.913 18.8C163.633 17.74 164.153 16.6 164.513 15.4C164.813 14.28 164.973 13.18 164.973 12.1C164.973 12.04 164.953 11.94 164.953 11.78C164.953 11.64 164.953 11.52 164.953 11.44H160.973ZM186.989 11.44H178.489V15.4H186.309C186.089 15.88 185.869 16.28 185.649 16.6C184.889 17.72 183.929 18.6 182.749 19.24C181.549 19.9 180.269 20.22 178.909 20.22H178.029C175.789 20.22 173.889 19.44 172.309 17.84C170.709 16.24 169.929 14.34 169.929 12.1C169.929 9.88 170.709 7.98 172.309 6.38C173.889 4.8 175.789 4 178.029 4H178.909C180.269 4 181.549 4.34 182.749 4.98C183.929 5.62 184.889 6.5 185.649 7.6H190.109C189.189 5.36 187.709 3.54 185.669 2.14C183.629 0.739999 181.389 0.0399995 178.909 0.0399995H178.029C176.509 0.0399995 175.049 0.319999 173.649 0.879999C172.249 1.44 171.009 2.2 169.929 3.18C168.689 4.32 167.709 5.66 167.009 7.2C166.309 8.76 165.969 10.38 165.969 12.1C165.969 13.84 166.309 15.48 167.009 17.02C167.709 18.58 168.689 19.9 169.929 21.02C172.229 23.14 174.929 24.18 178.029 24.18H178.909C180.949 24.18 182.869 23.7 184.629 22.74C186.389 21.78 187.809 20.46 188.929 18.8C189.649 17.74 190.169 16.6 190.529 15.4C190.829 14.28 190.989 13.18 190.989 12.1C190.989 12.04 190.969 11.94 190.969 11.78C190.969 11.64 190.969 11.52 190.969 11.44H186.989ZM208.944 20.22H195.944V14.08H208.944V10.12H195.944V4H208.944V0.0399995H191.984V4V10.12V14.08V20.22V24.18H208.944V20.22ZM213.893 24.18V15.18H217.833L224.833 24.18H229.873L222.833 15.16C224.793 15.02 226.473 14.22 227.833 12.76C229.193 11.32 229.873 9.6 229.873 7.6C229.873 5.54 229.133 3.76 227.653 2.28C226.173 0.799999 224.393 0.0399995 222.313 0.0399995H213.893H209.953V15.18V24.18H213.893ZM213.893 11.22V4H222.313C223.293 4 224.133 4.36 224.853 5.06C225.553 5.78 225.913 6.62 225.913 7.6C225.913 8.6 225.553 9.44 224.853 10.16C224.133 10.88 223.293 11.22 222.313 11.22H219.753H217.693H213.893ZM242.991 4C243.671 4 244.271 4.22 244.811 4.62C245.351 5.02 245.731 5.54 245.931 6.16H249.951C249.711 4.44 248.951 2.98 247.631 1.8C246.311 0.639999 244.751 0.0399995 242.991 0.0399995H237.891C236.811 0.0399995 235.791 0.279999 234.831 0.759999C233.631 1.36 232.671 2.2 231.951 3.32C231.231 4.44 230.871 5.7 230.871 7.06C230.871 8.14 231.091 9.16 231.571 10.12C231.911 10.86 232.391 11.52 233.031 12.1C233.531 12.62 234.131 13.04 234.831 13.36C235.751 13.84 236.751 14.08 237.871 14.08H242.991H243.011C243.851 14.1 244.571 14.4 245.171 15C245.771 15.6 246.071 16.32 246.071 17.16C246.071 18 245.751 18.72 245.151 19.32C244.551 19.92 243.831 20.22 242.991 20.22H237.891C237.211 20.22 236.611 20.02 236.071 19.62C235.531 19.22 235.171 18.7 234.971 18.06H234.831H230.931C231.091 19.24 231.511 20.3 232.211 21.26C232.891 22.22 233.771 22.94 234.831 23.46C235.791 23.94 236.811 24.18 237.891 24.18H242.991C244.911 24.18 246.571 23.5 247.951 22.12C249.331 20.74 250.031 19.08 250.031 17.16C250.031 16.14 249.791 15.12 249.311 14.08C248.951 13.36 248.471 12.7 247.871 12.1C246.511 10.8 244.891 10.14 243.031 10.12H242.991H237.891C237.031 10.12 236.311 9.82 235.711 9.22C235.111 8.62 234.831 7.9 234.831 7.06C234.831 6.22 235.111 5.5 235.711 4.9C236.311 4.3 237.031 4 237.891 4H242.991Z" fill="black"/>
</svg>
