<svg width="75" height="75" viewBox="0 0 75 75" fill="none" xmlns="http://www.w3.org/2000/svg">
<path d="M34.3467 28.1392C34.116 27.8975 33.8083 27.7656 33.4568 27.7656C32.7427 27.7656 32.1824 28.3259 32.1824 29.04C32.1824 29.3916 32.3142 29.7212 32.5669 29.9629L40.2903 37.4995L32.5669 45.0361C32.3142 45.2778 32.1824 45.6074 32.1824 45.959C32.1824 46.6621 32.7427 47.2224 33.4568 47.2224C33.8083 47.2224 34.116 47.1016 34.3467 46.8599L42.916 38.4883C43.2017 38.2136 43.3555 37.873 43.3555 37.4995C43.3555 37.126 43.2126 36.7964 42.916 36.5107L34.3467 28.1392Z" fill="#C0C0C0"/>
<circle cx="37.5" cy="37.5" r="37" transform="rotate(-180 37.5 37.5)" stroke="#C0C0C0"/>
</svg>
