<svg width="75" height="75" viewBox="0 0 75 75" fill="none" xmlns="http://www.w3.org/2000/svg">
<circle cx="37.5" cy="37.5" r="37.5" transform="rotate(-180 37.5 37.5)" fill="#121212"/>
<rect width="35" height="35" transform="translate(54.4453 20) rotate(90)" fill="#121212"/>
<path d="M34.3428 28.1392C34.1121 27.8975 33.8044 27.7656 33.4529 27.7656C32.7388 27.7656 32.1785 28.3259 32.1785 29.04C32.1785 29.3916 32.3103 29.7212 32.563 29.9629L40.2864 37.4995L32.563 45.0361C32.3103 45.2778 32.1785 45.6074 32.1785 45.959C32.1785 46.6621 32.7388 47.2224 33.4529 47.2224C33.8044 47.2224 34.1121 47.1016 34.3428 46.8599L42.9121 38.4883C43.1978 38.2136 43.3516 37.873 43.3516 37.4995C43.3516 37.126 43.2087 36.7964 42.9121 36.5107L34.3428 28.1392Z" fill="white"/>
</svg>
