<svg width="344" height="75" viewBox="0 0 344 75" fill="none" xmlns="http://www.w3.org/2000/svg">
<path d="M3.132 18H1.566V5.274H3.132V18ZM6.81736 18V9.864H5.26936V8.514H6.81736V7.506C6.81736 6.45 7.04536 5.676 7.50136 5.184C7.95736 4.692 8.72536 4.446 9.80536 4.446H10.8854V5.796H9.96736C9.31936 5.796 8.88736 5.958 8.67136 6.282C8.45536 6.606 8.34736 7.074 8.34736 7.686V8.514H10.8854V9.864H8.34736V18H6.81736ZM25.6767 8.514V18C25.6767 19.38 25.3167 20.43 24.5967 21.15C23.8767 21.882 22.8507 22.248 21.5187 22.248C20.7147 22.236 19.9887 22.128 19.3407 21.924C18.7047 21.732 18.1167 21.384 17.5767 20.88L18.2427 19.674C18.7107 20.046 19.2087 20.34 19.7367 20.556C20.2767 20.772 20.8407 20.88 21.4287 20.88C21.9207 20.88 22.3407 20.802 22.6887 20.646C23.0367 20.502 23.3187 20.292 23.5347 20.016C23.7627 19.752 23.9247 19.434 24.0207 19.062C24.1287 18.69 24.1827 18.288 24.1827 17.856V16.722C24.0267 16.962 23.8287 17.178 23.5887 17.37C23.3607 17.55 23.1087 17.7 22.8327 17.82C22.5687 17.928 22.2807 18.006 21.9687 18.054C21.6687 18.114 21.3627 18.144 21.0507 18.144C20.3307 18.132 19.7307 18.018 19.2507 17.802C18.7827 17.586 18.4047 17.286 18.1167 16.902C17.8407 16.518 17.6427 16.062 17.5227 15.534C17.4027 14.994 17.3427 14.4 17.3427 13.752V8.514H18.8727V13.32C18.8727 13.752 18.8967 14.178 18.9447 14.598C19.0047 15.018 19.1187 15.39 19.2867 15.714C19.4547 16.038 19.7007 16.302 20.0247 16.506C20.3487 16.698 20.7807 16.794 21.3207 16.794C21.8607 16.794 22.3167 16.68 22.6887 16.452C23.0727 16.224 23.3667 15.936 23.5707 15.588C23.7987 15.228 23.9487 14.832 24.0207 14.4C24.1047 13.968 24.1467 13.524 24.1467 13.068V8.514H25.6767ZM32.259 8.406C33.015 8.406 33.669 8.526 34.221 8.766C34.773 9.006 35.235 9.342 35.607 9.774C35.991 10.206 36.273 10.722 36.453 11.322C36.645 11.91 36.741 12.558 36.741 13.266C36.741 13.974 36.645 14.628 36.453 15.228C36.273 15.816 35.991 16.326 35.607 16.758C35.235 17.178 34.767 17.508 34.203 17.748C33.639 17.988 32.979 18.108 32.223 18.108C31.467 18.108 30.807 17.988 30.243 17.748C29.691 17.508 29.223 17.178 28.839 16.758C28.467 16.326 28.185 15.816 27.993 15.228C27.813 14.628 27.723 13.974 27.723 13.266C27.723 12.558 27.813 11.91 27.993 11.322C28.185 10.722 28.467 10.206 28.839 9.774C29.223 9.342 29.703 9.006 30.279 8.766C30.855 8.526 31.515 8.406 32.259 8.406ZM32.223 16.758C32.739 16.758 33.183 16.668 33.555 16.488C33.939 16.308 34.251 16.062 34.491 15.75C34.743 15.426 34.923 15.054 35.031 14.634C35.151 14.214 35.211 13.758 35.211 13.266C35.211 12.786 35.151 12.336 35.031 11.916C34.923 11.484 34.743 11.112 34.491 10.8C34.251 10.476 33.939 10.224 33.555 10.044C33.183 9.864 32.739 9.774 32.223 9.774C31.707 9.774 31.263 9.864 30.891 10.044C30.519 10.224 30.207 10.476 29.955 10.8C29.715 11.112 29.535 11.484 29.415 11.916C29.307 12.336 29.253 12.786 29.253 13.266C29.253 13.758 29.307 14.214 29.415 14.634C29.535 15.054 29.715 15.426 29.955 15.75C30.207 16.062 30.519 16.308 30.891 16.488C31.263 16.668 31.707 16.758 32.223 16.758ZM42.748 16.758C43.612 16.758 44.242 16.5 44.638 15.984C45.046 15.456 45.25 14.724 45.25 13.788V8.514H46.78V13.86C46.78 15.3 46.432 16.368 45.736 17.064C45.052 17.76 44.056 18.108 42.748 18.108C41.44 18.108 40.444 17.76 39.76 17.064C39.088 16.368 38.752 15.3 38.752 13.86V8.514H40.282V13.788C40.282 14.724 40.486 15.456 40.894 15.984C41.302 16.5 41.92 16.758 42.748 16.758ZM53.0207 8.514H54.7487L57.0167 16.524L59.3567 8.514H61.4267L63.7847 16.524L66.0167 8.514H67.7627L64.8107 18H62.7227L60.3827 10.314L58.0427 18H55.9727L53.0207 8.514ZM75.4266 16.794C75.2226 17.07 74.9886 17.292 74.7246 17.46C74.4606 17.628 74.1846 17.76 73.8966 17.856C73.6206 17.952 73.3386 18.018 73.0506 18.054C72.7746 18.09 72.4986 18.108 72.2226 18.108C71.7786 18.108 71.3586 18.054 70.9626 17.946C70.5666 17.838 70.2066 17.664 69.8826 17.424C69.5706 17.184 69.3186 16.884 69.1266 16.524C68.9466 16.164 68.8566 15.756 68.8566 15.3C68.8566 14.76 68.9526 14.31 69.1446 13.95C69.3486 13.578 69.6186 13.278 69.9546 13.05C70.2906 12.822 70.6746 12.666 71.1066 12.582C71.5506 12.486 72.0186 12.438 72.5106 12.438H75.3006C75.3006 11.634 75.1266 10.998 74.7786 10.53C74.4306 10.05 73.8426 9.798 73.0146 9.774C72.5106 9.774 72.0666 9.858 71.6826 10.026C71.2986 10.194 71.0346 10.47 70.8906 10.854H69.2526C69.3366 10.422 69.5046 10.056 69.7566 9.756C70.0086 9.444 70.3086 9.192 70.6566 9C71.0046 8.796 71.3826 8.646 71.7906 8.55C72.1986 8.454 72.6066 8.406 73.0146 8.406C73.7226 8.406 74.3166 8.526 74.7966 8.766C75.2886 8.994 75.6846 9.3 75.9846 9.684C76.2846 10.056 76.4946 10.512 76.6146 11.052C76.7346 11.592 76.7946 12.198 76.7946 12.87V18H75.5166L75.4266 16.794ZM73.6266 13.716C73.3386 13.716 73.0026 13.722 72.6186 13.734C72.2466 13.734 71.8866 13.77 71.5386 13.842C71.1906 13.914 70.9086 14.064 70.6926 14.292C70.4886 14.52 70.3866 14.82 70.3866 15.192C70.3866 15.468 70.4406 15.702 70.5486 15.894C70.6566 16.086 70.8006 16.248 70.9806 16.38C71.1726 16.512 71.3886 16.608 71.6286 16.668C71.8686 16.728 72.1146 16.758 72.3666 16.758C73.2666 16.758 73.9746 16.542 74.4906 16.11C75.0186 15.666 75.2886 15.024 75.3006 14.184V13.716H73.6266ZM79.165 18V8.514H80.641L80.713 9.954C80.869 9.69 81.061 9.462 81.289 9.27C81.529 9.078 81.787 8.916 82.063 8.784C82.339 8.652 82.627 8.556 82.927 8.496C83.239 8.436 83.539 8.406 83.827 8.406C84.511 8.406 85.087 8.52 85.555 8.748C86.023 8.964 86.395 9.27 86.671 9.666C86.947 10.05 87.145 10.512 87.265 11.052C87.385 11.58 87.445 12.15 87.445 12.762V18H85.915V13.176C85.915 12.732 85.885 12.306 85.825 11.898C85.777 11.49 85.669 11.13 85.501 10.818C85.345 10.494 85.117 10.236 84.817 10.044C84.517 9.852 84.115 9.756 83.611 9.756C83.119 9.768 82.681 9.888 82.297 10.116C81.925 10.344 81.625 10.614 81.397 10.926C81.121 11.322 80.935 11.76 80.839 12.24C80.743 12.708 80.695 13.182 80.695 13.662V18H79.165ZM92.1938 8.514H95.1098V9.864H92.1938V14.796C92.1938 15.072 92.2058 15.33 92.2298 15.57C92.2658 15.798 92.3258 16.002 92.4098 16.182C92.5058 16.35 92.6378 16.488 92.8058 16.596C92.9858 16.692 93.2258 16.746 93.5258 16.758C93.8018 16.758 94.0418 16.71 94.2458 16.614C94.4618 16.518 94.6418 16.404 94.7858 16.272L95.4518 17.388C95.1398 17.652 94.8158 17.838 94.4798 17.946C94.1438 18.054 93.7718 18.108 93.3638 18.108C92.8478 18.108 92.4158 18.036 92.0678 17.892C91.7198 17.736 91.4258 17.514 91.1858 17.226C90.9818 16.95 90.8438 16.626 90.7718 16.254C90.6998 15.882 90.6638 15.462 90.6638 14.994V9.864H89.1158V8.514H90.6638V5.67H92.1938V8.514ZM104.182 8.514H107.098V9.864H104.182V14.796C104.182 15.072 104.194 15.33 104.218 15.57C104.254 15.798 104.314 16.002 104.398 16.182C104.494 16.35 104.626 16.488 104.794 16.596C104.974 16.692 105.214 16.746 105.514 16.758C105.79 16.758 106.03 16.71 106.234 16.614C106.45 16.518 106.63 16.404 106.774 16.272L107.44 17.388C107.128 17.652 106.804 17.838 106.468 17.946C106.132 18.054 105.76 18.108 105.352 18.108C104.836 18.108 104.404 18.036 104.056 17.892C103.708 17.736 103.414 17.514 103.174 17.226C102.97 16.95 102.832 16.626 102.76 16.254C102.688 15.882 102.652 15.462 102.652 14.994V9.864H101.104V8.514H102.652V5.67H104.182V8.514ZM113.101 8.406C113.857 8.406 114.511 8.526 115.063 8.766C115.615 9.006 116.077 9.342 116.449 9.774C116.833 10.206 117.115 10.722 117.295 11.322C117.487 11.91 117.583 12.558 117.583 13.266C117.583 13.974 117.487 14.628 117.295 15.228C117.115 15.816 116.833 16.326 116.449 16.758C116.077 17.178 115.609 17.508 115.045 17.748C114.481 17.988 113.821 18.108 113.065 18.108C112.309 18.108 111.649 17.988 111.085 17.748C110.533 17.508 110.065 17.178 109.681 16.758C109.309 16.326 109.027 15.816 108.835 15.228C108.655 14.628 108.565 13.974 108.565 13.266C108.565 12.558 108.655 11.91 108.835 11.322C109.027 10.722 109.309 10.206 109.681 9.774C110.065 9.342 110.545 9.006 111.121 8.766C111.697 8.526 112.357 8.406 113.101 8.406ZM113.065 16.758C113.581 16.758 114.025 16.668 114.397 16.488C114.781 16.308 115.093 16.062 115.333 15.75C115.585 15.426 115.765 15.054 115.873 14.634C115.993 14.214 116.053 13.758 116.053 13.266C116.053 12.786 115.993 12.336 115.873 11.916C115.765 11.484 115.585 11.112 115.333 10.8C115.093 10.476 114.781 10.224 114.397 10.044C114.025 9.864 113.581 9.774 113.065 9.774C112.549 9.774 112.105 9.864 111.733 10.044C111.361 10.224 111.049 10.476 110.797 10.8C110.557 11.112 110.377 11.484 110.257 11.916C110.149 12.336 110.095 12.786 110.095 13.266C110.095 13.758 110.149 14.214 110.257 14.634C110.377 15.054 110.557 15.426 110.797 15.75C111.049 16.062 111.361 16.308 111.733 16.488C112.105 16.668 112.549 16.758 113.065 16.758ZM128.531 18.108C127.775 18.108 127.121 17.988 126.569 17.748C126.017 17.508 125.561 17.172 125.201 16.74C124.841 16.308 124.571 15.798 124.391 15.21C124.211 14.622 124.121 13.98 124.121 13.284C124.121 12.612 124.217 11.982 124.409 11.394C124.601 10.794 124.883 10.278 125.255 9.846C125.627 9.402 126.095 9.054 126.659 8.802C127.223 8.538 127.907 8.406 128.711 8.406C129.191 8.406 129.617 8.46 129.989 8.568C130.361 8.664 130.709 8.826 131.033 9.054C131.369 9.27 131.657 9.558 131.897 9.918C132.137 10.278 132.311 10.716 132.419 11.232H130.853C130.673 10.704 130.385 10.326 129.989 10.098C129.605 9.87 129.149 9.762 128.621 9.774C128.105 9.774 127.649 9.876 127.253 10.08C126.869 10.272 126.557 10.53 126.317 10.854C126.089 11.178 125.921 11.556 125.813 11.988C125.705 12.408 125.651 12.84 125.651 13.284C125.651 13.752 125.705 14.196 125.813 14.616C125.933 15.036 126.107 15.408 126.335 15.732C126.575 16.044 126.881 16.296 127.253 16.488C127.625 16.668 128.069 16.758 128.585 16.758C128.837 16.758 129.083 16.734 129.323 16.686C129.575 16.638 129.803 16.56 130.007 16.452C130.223 16.332 130.409 16.176 130.565 15.984C130.721 15.792 130.835 15.558 130.907 15.282H132.491C132.395 15.774 132.221 16.2 131.969 16.56C131.729 16.908 131.429 17.202 131.069 17.442C130.709 17.67 130.313 17.838 129.881 17.946C129.449 18.054 128.999 18.108 128.531 18.108ZM134.431 18V5.274H135.961V9.972C136.117 9.732 136.315 9.51 136.555 9.306C136.795 9.102 137.047 8.934 137.311 8.802C137.575 8.67 137.863 8.574 138.175 8.514C138.499 8.442 138.811 8.406 139.111 8.406C139.795 8.406 140.365 8.52 140.821 8.748C141.289 8.964 141.661 9.27 141.937 9.666C142.225 10.05 142.423 10.512 142.531 11.052C142.651 11.58 142.711 12.156 142.711 12.78V18H141.181V13.248C141.181 12.816 141.157 12.396 141.109 11.988C141.061 11.568 140.953 11.196 140.785 10.872C140.617 10.548 140.377 10.284 140.065 10.08C139.753 9.864 139.327 9.756 138.787 9.756C138.343 9.756 137.929 9.87 137.545 10.098C137.173 10.314 136.873 10.59 136.645 10.926C136.369 11.298 136.183 11.712 136.087 12.168C136.003 12.624 135.961 13.092 135.961 13.572V18H134.431ZM146.253 13.824C146.289 14.244 146.373 14.634 146.505 14.994C146.649 15.342 146.841 15.648 147.081 15.912C147.321 16.176 147.615 16.386 147.963 16.542C148.323 16.686 148.737 16.758 149.205 16.758C149.433 16.758 149.667 16.74 149.907 16.704C150.159 16.656 150.393 16.584 150.609 16.488C150.825 16.38 151.017 16.242 151.185 16.074C151.353 15.906 151.479 15.702 151.563 15.462H153.129C153.021 15.918 152.835 16.314 152.571 16.65C152.319 16.986 152.013 17.262 151.653 17.478C151.305 17.694 150.915 17.856 150.483 17.964C150.051 18.06 149.613 18.108 149.169 18.108C148.413 18.108 147.753 17.988 147.189 17.748C146.637 17.508 146.175 17.178 145.803 16.758C145.431 16.326 145.155 15.816 144.975 15.228C144.795 14.628 144.705 13.974 144.705 13.266C144.705 12.558 144.801 11.91 144.993 11.322C145.197 10.722 145.485 10.206 145.857 9.774C146.229 9.342 146.685 9.006 147.225 8.766C147.765 8.526 148.407 8.406 149.151 8.406C149.907 8.406 150.561 8.556 151.113 8.856C151.665 9.156 152.109 9.552 152.445 10.044C152.781 10.524 153.015 11.046 153.147 11.61C153.291 12.174 153.351 12.696 153.327 13.176C153.327 13.284 153.321 13.392 153.309 13.5C153.309 13.608 153.303 13.716 153.291 13.824H146.253ZM151.779 12.492C151.755 11.688 151.503 11.034 151.023 10.53C150.543 10.026 149.901 9.774 149.097 9.774C148.653 9.774 148.263 9.846 147.927 9.99C147.591 10.134 147.309 10.332 147.081 10.584C146.853 10.836 146.673 11.13 146.541 11.466C146.409 11.79 146.325 12.132 146.289 12.492H151.779ZM159.61 18.108C158.854 18.108 158.2 17.988 157.648 17.748C157.096 17.508 156.64 17.172 156.28 16.74C155.92 16.308 155.65 15.798 155.47 15.21C155.29 14.622 155.2 13.98 155.2 13.284C155.2 12.612 155.296 11.982 155.488 11.394C155.68 10.794 155.962 10.278 156.334 9.846C156.706 9.402 157.174 9.054 157.738 8.802C158.302 8.538 158.986 8.406 159.79 8.406C160.27 8.406 160.696 8.46 161.068 8.568C161.44 8.664 161.788 8.826 162.112 9.054C162.448 9.27 162.736 9.558 162.976 9.918C163.216 10.278 163.39 10.716 163.498 11.232H161.932C161.752 10.704 161.464 10.326 161.068 10.098C160.684 9.87 160.228 9.762 159.7 9.774C159.184 9.774 158.728 9.876 158.332 10.08C157.948 10.272 157.636 10.53 157.396 10.854C157.168 11.178 157 11.556 156.892 11.988C156.784 12.408 156.73 12.84 156.73 13.284C156.73 13.752 156.784 14.196 156.892 14.616C157.012 15.036 157.186 15.408 157.414 15.732C157.654 16.044 157.96 16.296 158.332 16.488C158.704 16.668 159.148 16.758 159.664 16.758C159.916 16.758 160.162 16.734 160.402 16.686C160.654 16.638 160.882 16.56 161.086 16.452C161.302 16.332 161.488 16.176 161.644 15.984C161.8 15.792 161.914 15.558 161.986 15.282H163.57C163.474 15.774 163.3 16.2 163.048 16.56C162.808 16.908 162.508 17.202 162.148 17.442C161.788 17.67 161.392 17.838 160.96 17.946C160.528 18.054 160.078 18.108 159.61 18.108ZM165.509 18V5.274H167.039V12.6H168.695L171.539 8.514H173.267L170.099 13.032L173.537 18H171.737L168.875 13.932H167.039V18H165.509ZM183.888 8.406C184.644 8.406 185.298 8.526 185.85 8.766C186.402 9.006 186.864 9.342 187.236 9.774C187.62 10.206 187.902 10.722 188.082 11.322C188.274 11.91 188.37 12.558 188.37 13.266C188.37 13.974 188.274 14.628 188.082 15.228C187.902 15.816 187.62 16.326 187.236 16.758C186.864 17.178 186.396 17.508 185.832 17.748C185.268 17.988 184.608 18.108 183.852 18.108C183.096 18.108 182.436 17.988 181.872 17.748C181.32 17.508 180.852 17.178 180.468 16.758C180.096 16.326 179.814 15.816 179.622 15.228C179.442 14.628 179.352 13.974 179.352 13.266C179.352 12.558 179.442 11.91 179.622 11.322C179.814 10.722 180.096 10.206 180.468 9.774C180.852 9.342 181.332 9.006 181.908 8.766C182.484 8.526 183.144 8.406 183.888 8.406ZM183.852 16.758C184.368 16.758 184.812 16.668 185.184 16.488C185.568 16.308 185.88 16.062 186.12 15.75C186.372 15.426 186.552 15.054 186.66 14.634C186.78 14.214 186.84 13.758 186.84 13.266C186.84 12.786 186.78 12.336 186.66 11.916C186.552 11.484 186.372 11.112 186.12 10.8C185.88 10.476 185.568 10.224 185.184 10.044C184.812 9.864 184.368 9.774 183.852 9.774C183.336 9.774 182.892 9.864 182.52 10.044C182.148 10.224 181.836 10.476 181.584 10.8C181.344 11.112 181.164 11.484 181.044 11.916C180.936 12.336 180.882 12.786 180.882 13.266C180.882 13.758 180.936 14.214 181.044 14.634C181.164 15.054 181.344 15.426 181.584 15.75C181.836 16.062 182.148 16.308 182.52 16.488C182.892 16.668 183.336 16.758 183.852 16.758ZM194.377 16.758C195.241 16.758 195.871 16.5 196.267 15.984C196.675 15.456 196.879 14.724 196.879 13.788V8.514H198.409V13.86C198.409 15.3 198.061 16.368 197.365 17.064C196.681 17.76 195.685 18.108 194.377 18.108C193.069 18.108 192.073 17.76 191.389 17.064C190.717 16.368 190.381 15.3 190.381 13.86V8.514H191.911V13.788C191.911 14.724 192.115 15.456 192.523 15.984C192.931 16.5 193.549 16.758 194.377 16.758ZM200.788 18V8.514H202.264L202.336 9.99C202.684 9.438 203.128 9.036 203.668 8.784C204.208 8.532 204.82 8.406 205.504 8.406H205.99V9.846H205.432C204.868 9.846 204.388 9.942 203.992 10.134C203.596 10.314 203.272 10.566 203.02 10.89C202.78 11.202 202.6 11.574 202.48 12.006C202.372 12.438 202.318 12.894 202.318 13.374V18H200.788ZM218.6 16.794C218.396 17.07 218.162 17.292 217.898 17.46C217.634 17.628 217.358 17.76 217.07 17.856C216.794 17.952 216.512 18.018 216.224 18.054C215.948 18.09 215.672 18.108 215.396 18.108C214.952 18.108 214.532 18.054 214.136 17.946C213.74 17.838 213.38 17.664 213.056 17.424C212.744 17.184 212.492 16.884 212.3 16.524C212.12 16.164 212.03 15.756 212.03 15.3C212.03 14.76 212.126 14.31 212.318 13.95C212.522 13.578 212.792 13.278 213.128 13.05C213.464 12.822 213.848 12.666 214.28 12.582C214.724 12.486 215.192 12.438 215.684 12.438H218.474C218.474 11.634 218.3 10.998 217.952 10.53C217.604 10.05 217.016 9.798 216.188 9.774C215.684 9.774 215.24 9.858 214.856 10.026C214.472 10.194 214.208 10.47 214.064 10.854H212.426C212.51 10.422 212.678 10.056 212.93 9.756C213.182 9.444 213.482 9.192 213.83 9C214.178 8.796 214.556 8.646 214.964 8.55C215.372 8.454 215.78 8.406 216.188 8.406C216.896 8.406 217.49 8.526 217.97 8.766C218.462 8.994 218.858 9.3 219.158 9.684C219.458 10.056 219.668 10.512 219.788 11.052C219.908 11.592 219.968 12.198 219.968 12.87V18H218.69L218.6 16.794ZM216.8 13.716C216.512 13.716 216.176 13.722 215.792 13.734C215.42 13.734 215.06 13.77 214.712 13.842C214.364 13.914 214.082 14.064 213.866 14.292C213.662 14.52 213.56 14.82 213.56 15.192C213.56 15.468 213.614 15.702 213.722 15.894C213.83 16.086 213.974 16.248 214.154 16.38C214.346 16.512 214.562 16.608 214.802 16.668C215.042 16.728 215.288 16.758 215.54 16.758C216.44 16.758 217.148 16.542 217.664 16.11C218.192 15.666 218.462 15.024 218.474 14.184V13.716H216.8ZM222.339 18V5.274H223.869V18H222.339ZM226.276 18V5.274H227.806V18H226.276ZM0.216 33.514H1.944L4.212 41.524L6.552 33.514H8.622L10.98 41.524L13.212 33.514H14.958L12.006 43H9.918L7.578 35.314L5.238 43H3.168L0.216 33.514ZM20.5519 33.406C21.3079 33.406 21.9619 33.526 22.5139 33.766C23.0659 34.006 23.5279 34.342 23.8999 34.774C24.2839 35.206 24.5659 35.722 24.7459 36.322C24.9379 36.91 25.0339 37.558 25.0339 38.266C25.0339 38.974 24.9379 39.628 24.7459 40.228C24.5659 40.816 24.2839 41.326 23.8999 41.758C23.5279 42.178 23.0599 42.508 22.4959 42.748C21.9319 42.988 21.2719 43.108 20.5159 43.108C19.7599 43.108 19.0999 42.988 18.5359 42.748C17.9839 42.508 17.5159 42.178 17.1319 41.758C16.7599 41.326 16.4779 40.816 16.2859 40.228C16.1059 39.628 16.0159 38.974 16.0159 38.266C16.0159 37.558 16.1059 36.91 16.2859 36.322C16.4779 35.722 16.7599 35.206 17.1319 34.774C17.5159 34.342 17.9959 34.006 18.5719 33.766C19.1479 33.526 19.8079 33.406 20.5519 33.406ZM20.5159 41.758C21.0319 41.758 21.4759 41.668 21.8479 41.488C22.2319 41.308 22.5439 41.062 22.7839 40.75C23.0359 40.426 23.2159 40.054 23.3239 39.634C23.4439 39.214 23.5039 38.758 23.5039 38.266C23.5039 37.786 23.4439 37.336 23.3239 36.916C23.2159 36.484 23.0359 36.112 22.7839 35.8C22.5439 35.476 22.2319 35.224 21.8479 35.044C21.4759 34.864 21.0319 34.774 20.5159 34.774C19.9999 34.774 19.5559 34.864 19.1839 35.044C18.8119 35.224 18.4999 35.476 18.2479 35.8C18.0079 36.112 17.8279 36.484 17.7079 36.916C17.5999 37.336 17.5459 37.786 17.5459 38.266C17.5459 38.758 17.5999 39.214 17.7079 39.634C17.8279 40.054 18.0079 40.426 18.2479 40.75C18.4999 41.062 18.8119 41.308 19.1839 41.488C19.5559 41.668 19.9999 41.758 20.5159 41.758ZM27.081 43V33.514H28.557L28.629 34.99C28.977 34.438 29.421 34.036 29.961 33.784C30.501 33.532 31.113 33.406 31.797 33.406H32.283V34.846H31.725C31.161 34.846 30.681 34.942 30.285 35.134C29.889 35.314 29.565 35.566 29.313 35.89C29.073 36.202 28.893 36.574 28.773 37.006C28.665 37.438 28.611 37.894 28.611 38.374V43H27.081ZM33.7958 43V30.274H35.3258V37.6H36.9818L39.8258 33.514H41.5538L38.3858 38.032L41.8238 43H40.0238L37.1618 38.932H35.3258V43H33.7958ZM46.5314 34.774C46.3154 34.774 46.0934 34.792 45.8654 34.828C45.6494 34.852 45.4334 34.912 45.2174 35.008C45.0134 35.092 44.8334 35.224 44.6774 35.404C44.5334 35.572 44.4554 35.8 44.4434 36.088C44.4434 36.496 44.5934 36.802 44.8934 37.006C45.2054 37.21 45.6074 37.36 46.0994 37.456C46.3034 37.504 46.5254 37.552 46.7654 37.6C47.0054 37.636 47.2394 37.678 47.4674 37.726C47.7074 37.762 47.9294 37.804 48.1334 37.852C48.3494 37.9 48.5294 37.948 48.6734 37.996C49.8254 38.356 50.4014 39.13 50.4014 40.318C50.3894 40.894 50.2634 41.362 50.0234 41.722C49.7954 42.07 49.5014 42.346 49.1414 42.55C48.7934 42.754 48.3914 42.898 47.9354 42.982C47.4914 43.066 47.0474 43.108 46.6034 43.108C46.1714 43.108 45.7334 43.066 45.2894 42.982C44.8454 42.898 44.4374 42.754 44.0654 42.55C43.7054 42.334 43.3934 42.058 43.1294 41.722C42.8774 41.374 42.7154 40.942 42.6434 40.426H44.1914C44.2874 40.714 44.4374 40.942 44.6414 41.11C44.8454 41.278 45.0614 41.41 45.2894 41.506C45.5294 41.602 45.7514 41.668 45.9554 41.704C46.1714 41.74 46.4114 41.758 46.6754 41.758C46.8674 41.758 47.0894 41.746 47.3414 41.722C47.5934 41.698 47.8334 41.644 48.0614 41.56C48.2894 41.464 48.4814 41.326 48.6374 41.146C48.7934 40.966 48.8714 40.714 48.8714 40.39C48.8714 40.03 48.7514 39.76 48.5114 39.58C48.2834 39.4 47.9654 39.268 47.5574 39.184C47.2694 39.124 46.9694 39.07 46.6574 39.022C46.3574 38.962 46.0514 38.902 45.7394 38.842C45.4394 38.77 45.1454 38.692 44.8574 38.608C44.5694 38.512 44.2994 38.386 44.0474 38.23C43.7114 38.026 43.4414 37.75 43.2374 37.402C43.0334 37.054 42.9314 36.628 42.9314 36.124C42.9554 35.596 43.0754 35.164 43.2914 34.828C43.5074 34.48 43.7834 34.198 44.1194 33.982C44.4794 33.766 44.8634 33.616 45.2714 33.532C45.6794 33.448 46.1114 33.406 46.5674 33.406C47.5394 33.406 48.3134 33.616 48.8894 34.036C49.2374 34.276 49.5074 34.564 49.6994 34.9C49.8914 35.236 50.0114 35.59 50.0594 35.962H48.6374C48.5534 35.614 48.3254 35.332 47.9534 35.116C47.5814 34.9 47.1074 34.786 46.5314 34.774ZM65.4912 33.514V43C65.4912 44.38 65.1312 45.43 64.4112 46.15C63.6912 46.882 62.6652 47.248 61.3332 47.248C60.5292 47.236 59.8032 47.128 59.1552 46.924C58.5192 46.732 57.9312 46.384 57.3912 45.88L58.0572 44.674C58.5252 45.046 59.0232 45.34 59.5512 45.556C60.0912 45.772 60.6552 45.88 61.2432 45.88C61.7352 45.88 62.1552 45.802 62.5032 45.646C62.8512 45.502 63.1332 45.292 63.3492 45.016C63.5772 44.752 63.7392 44.434 63.8352 44.062C63.9432 43.69 63.9972 43.288 63.9972 42.856V41.722C63.8412 41.962 63.6432 42.178 63.4032 42.37C63.1752 42.55 62.9232 42.7 62.6472 42.82C62.3832 42.928 62.0952 43.006 61.7832 43.054C61.4832 43.114 61.1772 43.144 60.8652 43.144C60.1452 43.132 59.5452 43.018 59.0652 42.802C58.5972 42.586 58.2192 42.286 57.9312 41.902C57.6552 41.518 57.4572 41.062 57.3372 40.534C57.2172 39.994 57.1572 39.4 57.1572 38.752V33.514H58.6872V38.32C58.6872 38.752 58.7112 39.178 58.7592 39.598C58.8192 40.018 58.9332 40.39 59.1012 40.714C59.2692 41.038 59.5152 41.302 59.8392 41.506C60.1632 41.698 60.5952 41.794 61.1352 41.794C61.6752 41.794 62.1312 41.68 62.5032 41.452C62.8872 41.224 63.1812 40.936 63.3852 40.588C63.6132 40.228 63.7632 39.832 63.8352 39.4C63.9192 38.968 63.9612 38.524 63.9612 38.068V33.514H65.4912ZM72.0734 33.406C72.8294 33.406 73.4834 33.526 74.0354 33.766C74.5874 34.006 75.0494 34.342 75.4214 34.774C75.8054 35.206 76.0874 35.722 76.2674 36.322C76.4594 36.91 76.5554 37.558 76.5554 38.266C76.5554 38.974 76.4594 39.628 76.2674 40.228C76.0874 40.816 75.8054 41.326 75.4214 41.758C75.0494 42.178 74.5814 42.508 74.0174 42.748C73.4534 42.988 72.7934 43.108 72.0374 43.108C71.2814 43.108 70.6214 42.988 70.0574 42.748C69.5054 42.508 69.0374 42.178 68.6534 41.758C68.2814 41.326 67.9994 40.816 67.8074 40.228C67.6274 39.628 67.5374 38.974 67.5374 38.266C67.5374 37.558 67.6274 36.91 67.8074 36.322C67.9994 35.722 68.2814 35.206 68.6534 34.774C69.0374 34.342 69.5174 34.006 70.0934 33.766C70.6694 33.526 71.3294 33.406 72.0734 33.406ZM72.0374 41.758C72.5534 41.758 72.9974 41.668 73.3694 41.488C73.7534 41.308 74.0654 41.062 74.3054 40.75C74.5574 40.426 74.7374 40.054 74.8454 39.634C74.9654 39.214 75.0254 38.758 75.0254 38.266C75.0254 37.786 74.9654 37.336 74.8454 36.916C74.7374 36.484 74.5574 36.112 74.3054 35.8C74.0654 35.476 73.7534 35.224 73.3694 35.044C72.9974 34.864 72.5534 34.774 72.0374 34.774C71.5214 34.774 71.0774 34.864 70.7054 35.044C70.3334 35.224 70.0214 35.476 69.7694 35.8C69.5294 36.112 69.3494 36.484 69.2294 36.916C69.1214 37.336 69.0674 37.786 69.0674 38.266C69.0674 38.758 69.1214 39.214 69.2294 39.634C69.3494 40.054 69.5294 40.426 69.7694 40.75C70.0214 41.062 70.3334 41.308 70.7054 41.488C71.0774 41.668 71.5214 41.758 72.0374 41.758ZM82.5625 41.758C83.4265 41.758 84.0565 41.5 84.4525 40.984C84.8605 40.456 85.0645 39.724 85.0645 38.788V33.514H86.5945V38.86C86.5945 40.3 86.2465 41.368 85.5505 42.064C84.8665 42.76 83.8705 43.108 82.5625 43.108C81.2545 43.108 80.2585 42.76 79.5745 42.064C78.9025 41.368 78.5665 40.3 78.5665 38.86V33.514H80.0965V38.788C80.0965 39.724 80.3005 40.456 80.7085 40.984C81.1165 41.5 81.7345 41.758 82.5625 41.758ZM97.8751 43.108C97.1191 43.108 96.4651 42.988 95.9131 42.748C95.3611 42.508 94.9051 42.172 94.5451 41.74C94.1851 41.308 93.9151 40.798 93.7351 40.21C93.5551 39.622 93.4651 38.98 93.4651 38.284C93.4651 37.612 93.5611 36.982 93.7531 36.394C93.9451 35.794 94.2271 35.278 94.5991 34.846C94.9711 34.402 95.4391 34.054 96.0031 33.802C96.5671 33.538 97.2511 33.406 98.0551 33.406C98.5351 33.406 98.9611 33.46 99.3331 33.568C99.7051 33.664 100.053 33.826 100.377 34.054C100.713 34.27 101.001 34.558 101.241 34.918C101.481 35.278 101.655 35.716 101.763 36.232H100.197C100.017 35.704 99.7291 35.326 99.3331 35.098C98.9491 34.87 98.4931 34.762 97.9651 34.774C97.4491 34.774 96.9931 34.876 96.5971 35.08C96.2131 35.272 95.9011 35.53 95.6611 35.854C95.4331 36.178 95.2651 36.556 95.1571 36.988C95.0491 37.408 94.9951 37.84 94.9951 38.284C94.9951 38.752 95.0491 39.196 95.1571 39.616C95.2771 40.036 95.4511 40.408 95.6791 40.732C95.9191 41.044 96.2251 41.296 96.5971 41.488C96.9691 41.668 97.4131 41.758 97.9291 41.758C98.1811 41.758 98.4271 41.734 98.6671 41.686C98.9191 41.638 99.1471 41.56 99.3511 41.452C99.5671 41.332 99.7531 41.176 99.9091 40.984C100.065 40.792 100.179 40.558 100.251 40.282H101.835C101.739 40.774 101.565 41.2 101.313 41.56C101.073 41.908 100.773 42.202 100.413 42.442C100.053 42.67 99.6571 42.838 99.2251 42.946C98.7931 43.054 98.3431 43.108 97.8751 43.108ZM110.02 41.794C109.816 42.07 109.582 42.292 109.318 42.46C109.054 42.628 108.778 42.76 108.49 42.856C108.214 42.952 107.932 43.018 107.644 43.054C107.368 43.09 107.092 43.108 106.816 43.108C106.372 43.108 105.952 43.054 105.556 42.946C105.16 42.838 104.8 42.664 104.476 42.424C104.164 42.184 103.912 41.884 103.72 41.524C103.54 41.164 103.45 40.756 103.45 40.3C103.45 39.76 103.546 39.31 103.738 38.95C103.942 38.578 104.212 38.278 104.548 38.05C104.884 37.822 105.268 37.666 105.7 37.582C106.144 37.486 106.612 37.438 107.104 37.438H109.894C109.894 36.634 109.72 35.998 109.372 35.53C109.024 35.05 108.436 34.798 107.608 34.774C107.104 34.774 106.66 34.858 106.276 35.026C105.892 35.194 105.628 35.47 105.484 35.854H103.846C103.93 35.422 104.098 35.056 104.35 34.756C104.602 34.444 104.902 34.192 105.25 34C105.598 33.796 105.976 33.646 106.384 33.55C106.792 33.454 107.2 33.406 107.608 33.406C108.316 33.406 108.91 33.526 109.39 33.766C109.882 33.994 110.278 34.3 110.578 34.684C110.878 35.056 111.088 35.512 111.208 36.052C111.328 36.592 111.388 37.198 111.388 37.87V43H110.11L110.02 41.794ZM108.22 38.716C107.932 38.716 107.596 38.722 107.212 38.734C106.84 38.734 106.48 38.77 106.132 38.842C105.784 38.914 105.502 39.064 105.286 39.292C105.082 39.52 104.98 39.82 104.98 40.192C104.98 40.468 105.034 40.702 105.142 40.894C105.25 41.086 105.394 41.248 105.574 41.38C105.766 41.512 105.982 41.608 106.222 41.668C106.462 41.728 106.708 41.758 106.96 41.758C107.86 41.758 108.568 41.542 109.084 41.11C109.612 40.666 109.882 40.024 109.894 39.184V38.716H108.22ZM113.759 43V33.514H115.235L115.307 34.954C115.463 34.69 115.655 34.462 115.883 34.27C116.123 34.078 116.381 33.916 116.657 33.784C116.933 33.652 117.221 33.556 117.521 33.496C117.833 33.436 118.133 33.406 118.421 33.406C119.105 33.406 119.681 33.52 120.149 33.748C120.617 33.964 120.989 34.27 121.265 34.666C121.541 35.05 121.739 35.512 121.859 36.052C121.979 36.58 122.039 37.15 122.039 37.762V43H120.509V38.176C120.509 37.732 120.479 37.306 120.419 36.898C120.371 36.49 120.263 36.13 120.095 35.818C119.939 35.494 119.711 35.236 119.411 35.044C119.111 34.852 118.709 34.756 118.205 34.756C117.713 34.768 117.275 34.888 116.891 35.116C116.519 35.344 116.219 35.614 115.991 35.926C115.715 36.322 115.529 36.76 115.433 37.24C115.337 37.708 115.289 38.182 115.289 38.662V43H113.759ZM3.6 58.514H6.138V59.864H3.6V64.778C3.6 65.426 3.726 65.906 3.978 66.218C4.23 66.518 4.698 66.668 5.382 66.668H6.084V68H5.058C3.978 68 3.21 67.754 2.754 67.262C2.298 66.77 2.07 65.996 2.07 64.94V59.864H0.522V58.514H2.07V55.688H3.6V58.514ZM7.86811 68V55.274H9.39811V59.972C9.55411 59.732 9.75211 59.51 9.99211 59.306C10.2321 59.102 10.4841 58.934 10.7481 58.802C11.0121 58.67 11.3001 58.574 11.6121 58.514C11.9361 58.442 12.2481 58.406 12.5481 58.406C13.2321 58.406 13.8021 58.52 14.2581 58.748C14.7261 58.964 15.0981 59.27 15.3741 59.666C15.6621 60.05 15.8601 60.512 15.9681 61.052C16.0881 61.58 16.1481 62.156 16.1481 62.78V68H14.6181V63.248C14.6181 62.816 14.5941 62.396 14.5461 61.988C14.4981 61.568 14.3901 61.196 14.2221 60.872C14.0541 60.548 13.8141 60.284 13.5021 60.08C13.1901 59.864 12.7641 59.756 12.2241 59.756C11.7801 59.756 11.3661 59.87 10.9821 60.098C10.6101 60.314 10.3101 60.59 10.0821 60.926C9.80611 61.298 9.62011 61.712 9.52411 62.168C9.44011 62.624 9.39811 63.092 9.39811 63.572V68H7.86811ZM19.3849 55.04C19.6729 55.04 19.9189 55.136 20.1229 55.328C20.3269 55.508 20.4289 55.748 20.4289 56.048C20.4289 56.348 20.3269 56.594 20.1229 56.786C19.9189 56.978 19.6729 57.074 19.3849 57.074C19.0849 57.074 18.8389 56.978 18.6469 56.786C18.4549 56.594 18.3589 56.348 18.3589 56.048C18.3589 55.748 18.4549 55.508 18.6469 55.328C18.8389 55.136 19.0849 55.04 19.3849 55.04ZM18.6289 68V58.514H20.1589V68H18.6289ZM26.088 59.774C25.872 59.774 25.65 59.792 25.422 59.828C25.206 59.852 24.99 59.912 24.774 60.008C24.57 60.092 24.39 60.224 24.234 60.404C24.09 60.572 24.012 60.8 24 61.088C24 61.496 24.15 61.802 24.45 62.006C24.762 62.21 25.164 62.36 25.656 62.456C25.86 62.504 26.082 62.552 26.322 62.6C26.562 62.636 26.796 62.678 27.024 62.726C27.264 62.762 27.486 62.804 27.69 62.852C27.906 62.9 28.086 62.948 28.23 62.996C29.382 63.356 29.958 64.13 29.958 65.318C29.946 65.894 29.82 66.362 29.58 66.722C29.352 67.07 29.058 67.346 28.698 67.55C28.35 67.754 27.948 67.898 27.492 67.982C27.048 68.066 26.604 68.108 26.16 68.108C25.728 68.108 25.29 68.066 24.846 67.982C24.402 67.898 23.994 67.754 23.622 67.55C23.262 67.334 22.95 67.058 22.686 66.722C22.434 66.374 22.272 65.942 22.2 65.426H23.748C23.844 65.714 23.994 65.942 24.198 66.11C24.402 66.278 24.618 66.41 24.846 66.506C25.086 66.602 25.308 66.668 25.512 66.704C25.728 66.74 25.968 66.758 26.232 66.758C26.424 66.758 26.646 66.746 26.898 66.722C27.15 66.698 27.39 66.644 27.618 66.56C27.846 66.464 28.038 66.326 28.194 66.146C28.35 65.966 28.428 65.714 28.428 65.39C28.428 65.03 28.308 64.76 28.068 64.58C27.84 64.4 27.522 64.268 27.114 64.184C26.826 64.124 26.526 64.07 26.214 64.022C25.914 63.962 25.608 63.902 25.296 63.842C24.996 63.77 24.702 63.692 24.414 63.608C24.126 63.512 23.856 63.386 23.604 63.23C23.268 63.026 22.998 62.75 22.794 62.402C22.59 62.054 22.488 61.628 22.488 61.124C22.512 60.596 22.632 60.164 22.848 59.828C23.064 59.48 23.34 59.198 23.676 58.982C24.036 58.766 24.42 58.616 24.828 58.532C25.236 58.448 25.668 58.406 26.124 58.406C27.096 58.406 27.87 58.616 28.446 59.036C28.794 59.276 29.064 59.564 29.256 59.9C29.448 60.236 29.568 60.59 29.616 60.962H28.194C28.11 60.614 27.882 60.332 27.51 60.116C27.138 59.9 26.664 59.786 26.088 59.774ZM36.7138 71.42V58.514H38.1718L38.2438 59.936C38.5678 59.444 39.0058 59.072 39.5578 58.82C40.1218 58.556 40.7278 58.418 41.3758 58.406C42.1078 58.406 42.7258 58.532 43.2298 58.784C43.7458 59.024 44.1718 59.366 44.5078 59.81C44.8558 60.242 45.1138 60.758 45.2818 61.358C45.4498 61.946 45.5338 62.582 45.5338 63.266C45.5338 63.962 45.4498 64.604 45.2818 65.192C45.1138 65.78 44.8558 66.29 44.5078 66.722C44.1598 67.154 43.7218 67.496 43.1938 67.748C42.6658 67.988 42.0358 68.108 41.3038 68.108C40.5838 68.108 39.9718 67.994 39.4678 67.766C38.9638 67.538 38.5558 67.22 38.2438 66.812V71.42H36.7138ZM41.1778 66.758C41.6938 66.758 42.1258 66.668 42.4738 66.488C42.8338 66.296 43.1218 66.044 43.3378 65.732C43.5658 65.408 43.7278 65.036 43.8238 64.616C43.9318 64.196 43.9918 63.746 44.0038 63.266C44.0038 62.786 43.9498 62.336 43.8418 61.916C43.7458 61.484 43.5838 61.112 43.3558 60.8C43.1278 60.488 42.8278 60.242 42.4558 60.062C42.0958 59.87 41.6578 59.774 41.1418 59.774C40.5298 59.774 40.0018 59.942 39.5578 60.278C39.1138 60.602 38.7778 61.016 38.5498 61.52C38.4178 61.796 38.3278 62.084 38.2798 62.384C38.2318 62.672 38.2078 62.972 38.2078 63.284C38.2078 63.644 38.2318 63.98 38.2798 64.292C38.3278 64.592 38.4178 64.88 38.5498 65.156C38.7778 65.612 39.1078 65.996 39.5398 66.308C39.9838 66.608 40.5298 66.758 41.1778 66.758ZM47.5771 68V58.514H49.0531L49.1251 59.99C49.4731 59.438 49.9171 59.036 50.4571 58.784C50.9971 58.532 51.6091 58.406 52.2931 58.406H52.7791V59.846H52.2211C51.6571 59.846 51.1771 59.942 50.7811 60.134C50.3851 60.314 50.0611 60.566 49.8091 60.89C49.5691 61.202 49.3891 61.574 49.2691 62.006C49.1611 62.438 49.1071 62.894 49.1071 63.374V68H47.5771ZM55.3042 63.824C55.3402 64.244 55.4242 64.634 55.5562 64.994C55.7002 65.342 55.8922 65.648 56.1322 65.912C56.3722 66.176 56.6662 66.386 57.0142 66.542C57.3742 66.686 57.7882 66.758 58.2562 66.758C58.4842 66.758 58.7182 66.74 58.9582 66.704C59.2102 66.656 59.4442 66.584 59.6602 66.488C59.8762 66.38 60.0682 66.242 60.2362 66.074C60.4042 65.906 60.5302 65.702 60.6142 65.462H62.1802C62.0722 65.918 61.8862 66.314 61.6222 66.65C61.3702 66.986 61.0642 67.262 60.7042 67.478C60.3562 67.694 59.9662 67.856 59.5342 67.964C59.1022 68.06 58.6642 68.108 58.2202 68.108C57.4642 68.108 56.8042 67.988 56.2402 67.748C55.6882 67.508 55.2262 67.178 54.8542 66.758C54.4822 66.326 54.2062 65.816 54.0262 65.228C53.8462 64.628 53.7562 63.974 53.7562 63.266C53.7562 62.558 53.8522 61.91 54.0442 61.322C54.2482 60.722 54.5362 60.206 54.9082 59.774C55.2802 59.342 55.7362 59.006 56.2762 58.766C56.8162 58.526 57.4582 58.406 58.2022 58.406C58.9582 58.406 59.6122 58.556 60.1642 58.856C60.7162 59.156 61.1602 59.552 61.4962 60.044C61.8322 60.524 62.0662 61.046 62.1982 61.61C62.3422 62.174 62.4022 62.696 62.3782 63.176C62.3782 63.284 62.3722 63.392 62.3602 63.5C62.3602 63.608 62.3542 63.716 62.3422 63.824H55.3042ZM60.8302 62.492C60.8062 61.688 60.5542 61.034 60.0742 60.53C59.5942 60.026 58.9522 59.774 58.1482 59.774C57.7042 59.774 57.3142 59.846 56.9782 59.99C56.6422 60.134 56.3602 60.332 56.1322 60.584C55.9042 60.836 55.7242 61.13 55.5922 61.466C55.4602 61.79 55.3762 62.132 55.3402 62.492H60.8302ZM67.8185 59.774C67.6025 59.774 67.3805 59.792 67.1525 59.828C66.9365 59.852 66.7205 59.912 66.5045 60.008C66.3005 60.092 66.1205 60.224 65.9645 60.404C65.8205 60.572 65.7425 60.8 65.7305 61.088C65.7305 61.496 65.8805 61.802 66.1805 62.006C66.4925 62.21 66.8945 62.36 67.3865 62.456C67.5905 62.504 67.8125 62.552 68.0525 62.6C68.2925 62.636 68.5265 62.678 68.7545 62.726C68.9945 62.762 69.2165 62.804 69.4205 62.852C69.6365 62.9 69.8165 62.948 69.9605 62.996C71.1125 63.356 71.6885 64.13 71.6885 65.318C71.6765 65.894 71.5505 66.362 71.3105 66.722C71.0825 67.07 70.7885 67.346 70.4285 67.55C70.0805 67.754 69.6785 67.898 69.2225 67.982C68.7785 68.066 68.3345 68.108 67.8905 68.108C67.4585 68.108 67.0205 68.066 66.5765 67.982C66.1325 67.898 65.7245 67.754 65.3525 67.55C64.9925 67.334 64.6805 67.058 64.4165 66.722C64.1645 66.374 64.0025 65.942 63.9305 65.426H65.4785C65.5745 65.714 65.7245 65.942 65.9285 66.11C66.1325 66.278 66.3485 66.41 66.5765 66.506C66.8165 66.602 67.0385 66.668 67.2425 66.704C67.4585 66.74 67.6985 66.758 67.9625 66.758C68.1545 66.758 68.3765 66.746 68.6285 66.722C68.8805 66.698 69.1205 66.644 69.3485 66.56C69.5765 66.464 69.7685 66.326 69.9245 66.146C70.0805 65.966 70.1585 65.714 70.1585 65.39C70.1585 65.03 70.0385 64.76 69.7985 64.58C69.5705 64.4 69.2525 64.268 68.8445 64.184C68.5565 64.124 68.2565 64.07 67.9445 64.022C67.6445 63.962 67.3385 63.902 67.0265 63.842C66.7265 63.77 66.4325 63.692 66.1445 63.608C65.8565 63.512 65.5865 63.386 65.3345 63.23C64.9985 63.026 64.7285 62.75 64.5245 62.402C64.3205 62.054 64.2185 61.628 64.2185 61.124C64.2425 60.596 64.3625 60.164 64.5785 59.828C64.7945 59.48 65.0705 59.198 65.4065 58.982C65.7665 58.766 66.1505 58.616 66.5585 58.532C66.9665 58.448 67.3985 58.406 67.8545 58.406C68.8265 58.406 69.6005 58.616 70.1765 59.036C70.5245 59.276 70.7945 59.564 70.9865 59.9C71.1785 60.236 71.2985 60.59 71.3465 60.962H69.9245C69.8405 60.614 69.6125 60.332 69.2405 60.116C68.8685 59.9 68.3945 59.786 67.8185 59.774ZM74.7807 63.824C74.8167 64.244 74.9007 64.634 75.0327 64.994C75.1767 65.342 75.3687 65.648 75.6087 65.912C75.8487 66.176 76.1427 66.386 76.4907 66.542C76.8507 66.686 77.2647 66.758 77.7327 66.758C77.9607 66.758 78.1947 66.74 78.4347 66.704C78.6867 66.656 78.9207 66.584 79.1367 66.488C79.3527 66.38 79.5447 66.242 79.7127 66.074C79.8807 65.906 80.0067 65.702 80.0907 65.462H81.6567C81.5487 65.918 81.3627 66.314 81.0987 66.65C80.8467 66.986 80.5407 67.262 80.1807 67.478C79.8327 67.694 79.4427 67.856 79.0107 67.964C78.5787 68.06 78.1407 68.108 77.6967 68.108C76.9407 68.108 76.2807 67.988 75.7167 67.748C75.1647 67.508 74.7027 67.178 74.3307 66.758C73.9587 66.326 73.6827 65.816 73.5027 65.228C73.3227 64.628 73.2327 63.974 73.2327 63.266C73.2327 62.558 73.3287 61.91 73.5207 61.322C73.7247 60.722 74.0127 60.206 74.3847 59.774C74.7567 59.342 75.2127 59.006 75.7527 58.766C76.2927 58.526 76.9347 58.406 77.6787 58.406C78.4347 58.406 79.0887 58.556 79.6407 58.856C80.1927 59.156 80.6367 59.552 80.9727 60.044C81.3087 60.524 81.5427 61.046 81.6747 61.61C81.8187 62.174 81.8787 62.696 81.8547 63.176C81.8547 63.284 81.8487 63.392 81.8367 63.5C81.8367 63.608 81.8307 63.716 81.8187 63.824H74.7807ZM80.3067 62.492C80.2827 61.688 80.0307 61.034 79.5507 60.53C79.0707 60.026 78.4287 59.774 77.6247 59.774C77.1807 59.774 76.7907 59.846 76.4547 59.99C76.1187 60.134 75.8367 60.332 75.6087 60.584C75.3807 60.836 75.2007 61.13 75.0687 61.466C74.9367 61.79 74.8527 62.132 74.8167 62.492H80.3067ZM83.9111 68V58.514H85.3871L85.4591 59.954C85.6151 59.69 85.8071 59.462 86.0351 59.27C86.2751 59.078 86.5331 58.916 86.8091 58.784C87.0851 58.652 87.3731 58.556 87.6731 58.496C87.9851 58.436 88.2851 58.406 88.5731 58.406C89.2571 58.406 89.8331 58.52 90.3011 58.748C90.7691 58.964 91.1411 59.27 91.4171 59.666C91.6931 60.05 91.8911 60.512 92.0111 61.052C92.1311 61.58 92.1911 62.15 92.1911 62.762V68H90.6611V63.176C90.6611 62.732 90.6311 62.306 90.5711 61.898C90.5231 61.49 90.4151 61.13 90.2471 60.818C90.0911 60.494 89.8631 60.236 89.5631 60.044C89.2631 59.852 88.8611 59.756 88.3571 59.756C87.8651 59.768 87.4271 59.888 87.0431 60.116C86.6711 60.344 86.3711 60.614 86.1431 60.926C85.8671 61.322 85.6811 61.76 85.5851 62.24C85.4891 62.708 85.4411 63.182 85.4411 63.662V68H83.9111ZM96.9398 58.514H99.8558V59.864H96.9398V64.796C96.9398 65.072 96.9518 65.33 96.9758 65.57C97.0118 65.798 97.0718 66.002 97.1558 66.182C97.2518 66.35 97.3838 66.488 97.5518 66.596C97.7318 66.692 97.9718 66.746 98.2718 66.758C98.5478 66.758 98.7878 66.71 98.9918 66.614C99.2078 66.518 99.3878 66.404 99.5318 66.272L100.198 67.388C99.8858 67.652 99.5618 67.838 99.2258 67.946C98.8898 68.054 98.5178 68.108 98.1098 68.108C97.5938 68.108 97.1618 68.036 96.8138 67.892C96.4658 67.736 96.1718 67.514 95.9318 67.226C95.7278 66.95 95.5898 66.626 95.5178 66.254C95.4458 65.882 95.4098 65.462 95.4098 64.994V59.864H93.8618V58.514H95.4098V55.67H96.9398V58.514ZM107.929 66.794C107.725 67.07 107.491 67.292 107.227 67.46C106.963 67.628 106.687 67.76 106.399 67.856C106.123 67.952 105.841 68.018 105.553 68.054C105.277 68.09 105.001 68.108 104.725 68.108C104.281 68.108 103.861 68.054 103.465 67.946C103.069 67.838 102.709 67.664 102.385 67.424C102.073 67.184 101.821 66.884 101.629 66.524C101.449 66.164 101.359 65.756 101.359 65.3C101.359 64.76 101.455 64.31 101.647 63.95C101.851 63.578 102.121 63.278 102.457 63.05C102.793 62.822 103.177 62.666 103.609 62.582C104.053 62.486 104.521 62.438 105.013 62.438H107.803C107.803 61.634 107.629 60.998 107.281 60.53C106.933 60.05 106.345 59.798 105.517 59.774C105.013 59.774 104.569 59.858 104.185 60.026C103.801 60.194 103.537 60.47 103.393 60.854H101.755C101.839 60.422 102.007 60.056 102.259 59.756C102.511 59.444 102.811 59.192 103.159 59C103.507 58.796 103.885 58.646 104.293 58.55C104.701 58.454 105.109 58.406 105.517 58.406C106.225 58.406 106.819 58.526 107.299 58.766C107.791 58.994 108.187 59.3 108.487 59.684C108.787 60.056 108.997 60.512 109.117 61.052C109.237 61.592 109.297 62.198 109.297 62.87V68H108.019L107.929 66.794ZM106.129 63.716C105.841 63.716 105.505 63.722 105.121 63.734C104.749 63.734 104.389 63.77 104.041 63.842C103.693 63.914 103.411 64.064 103.195 64.292C102.991 64.52 102.889 64.82 102.889 65.192C102.889 65.468 102.943 65.702 103.051 65.894C103.159 66.086 103.303 66.248 103.483 66.38C103.675 66.512 103.891 66.608 104.131 66.668C104.371 66.728 104.617 66.758 104.869 66.758C105.769 66.758 106.477 66.542 106.993 66.11C107.521 65.666 107.791 65.024 107.803 64.184V63.716H106.129ZM114.061 58.514H116.599V59.864H114.061V64.778C114.061 65.426 114.187 65.906 114.439 66.218C114.691 66.518 115.159 66.668 115.843 66.668H116.545V68H115.519C114.439 68 113.671 67.754 113.215 67.262C112.759 66.77 112.531 65.996 112.531 64.94V59.864H110.983V58.514H112.531V55.688H114.061V58.514ZM119.211 55.04C119.499 55.04 119.745 55.136 119.949 55.328C120.153 55.508 120.255 55.748 120.255 56.048C120.255 56.348 120.153 56.594 119.949 56.786C119.745 56.978 119.499 57.074 119.211 57.074C118.911 57.074 118.665 56.978 118.473 56.786C118.281 56.594 118.185 56.348 118.185 56.048C118.185 55.748 118.281 55.508 118.473 55.328C118.665 55.136 118.911 55.04 119.211 55.04ZM118.455 68V58.514H119.985V68H118.455ZM126.706 58.406C127.462 58.406 128.116 58.526 128.668 58.766C129.22 59.006 129.682 59.342 130.054 59.774C130.438 60.206 130.72 60.722 130.9 61.322C131.092 61.91 131.188 62.558 131.188 63.266C131.188 63.974 131.092 64.628 130.9 65.228C130.72 65.816 130.438 66.326 130.054 66.758C129.682 67.178 129.214 67.508 128.65 67.748C128.086 67.988 127.426 68.108 126.67 68.108C125.914 68.108 125.254 67.988 124.69 67.748C124.138 67.508 123.67 67.178 123.286 66.758C122.914 66.326 122.632 65.816 122.44 65.228C122.26 64.628 122.17 63.974 122.17 63.266C122.17 62.558 122.26 61.91 122.44 61.322C122.632 60.722 122.914 60.206 123.286 59.774C123.67 59.342 124.15 59.006 124.726 58.766C125.302 58.526 125.962 58.406 126.706 58.406ZM126.67 66.758C127.186 66.758 127.63 66.668 128.002 66.488C128.386 66.308 128.698 66.062 128.938 65.75C129.19 65.426 129.37 65.054 129.478 64.634C129.598 64.214 129.658 63.758 129.658 63.266C129.658 62.786 129.598 62.336 129.478 61.916C129.37 61.484 129.19 61.112 128.938 60.8C128.698 60.476 128.386 60.224 128.002 60.044C127.63 59.864 127.186 59.774 126.67 59.774C126.154 59.774 125.71 59.864 125.338 60.044C124.966 60.224 124.654 60.476 124.402 60.8C124.162 61.112 123.982 61.484 123.862 61.916C123.754 62.336 123.7 62.786 123.7 63.266C123.7 63.758 123.754 64.214 123.862 64.634C123.982 65.054 124.162 65.426 124.402 65.75C124.654 66.062 124.966 66.308 125.338 66.488C125.71 66.668 126.154 66.758 126.67 66.758ZM133.235 68V58.514H134.711L134.783 59.954C134.939 59.69 135.131 59.462 135.359 59.27C135.599 59.078 135.857 58.916 136.133 58.784C136.409 58.652 136.697 58.556 136.997 58.496C137.309 58.436 137.609 58.406 137.897 58.406C138.581 58.406 139.157 58.52 139.625 58.748C140.093 58.964 140.465 59.27 140.741 59.666C141.017 60.05 141.215 60.512 141.335 61.052C141.455 61.58 141.515 62.15 141.515 62.762V68H139.985V63.176C139.985 62.732 139.955 62.306 139.895 61.898C139.847 61.49 139.739 61.13 139.571 60.818C139.415 60.494 139.187 60.236 138.887 60.044C138.587 59.852 138.185 59.756 137.681 59.756C137.189 59.768 136.751 59.888 136.367 60.116C135.995 60.344 135.695 60.614 135.467 60.926C135.191 61.322 135.005 61.76 134.909 62.24C134.813 62.708 134.765 63.182 134.765 63.662V68H133.235Z" fill="#666666"/>
<path d="M138.137 43H136.211L136.103 41.686C135.755 42.19 135.317 42.55 134.789 42.766C134.261 42.982 133.667 43.102 133.007 43.126C132.275 43.114 131.645 42.982 131.117 42.73C130.589 42.466 130.151 42.118 129.803 41.686C129.455 41.242 129.197 40.732 129.029 40.156C128.873 39.58 128.795 38.968 128.795 38.32C128.795 37.612 128.885 36.958 129.065 36.358C129.257 35.758 129.539 35.236 129.911 34.792C130.283 34.348 130.739 34 131.279 33.748C131.819 33.484 132.449 33.352 133.169 33.352C133.685 33.352 134.207 33.436 134.735 33.604C135.263 33.772 135.713 34.084 136.085 34.54V30.274H138.137V43ZM133.403 35.206C132.947 35.206 132.557 35.284 132.233 35.44C131.909 35.596 131.639 35.812 131.423 36.088C131.219 36.364 131.069 36.694 130.973 37.078C130.877 37.45 130.829 37.852 130.829 38.284C130.829 38.716 130.877 39.118 130.973 39.49C131.069 39.862 131.219 40.186 131.423 40.462C131.639 40.738 131.909 40.96 132.233 41.128C132.569 41.284 132.971 41.362 133.439 41.362C133.883 41.362 134.267 41.278 134.591 41.11C134.927 40.93 135.203 40.696 135.419 40.408C135.647 40.12 135.815 39.79 135.923 39.418C136.031 39.046 136.085 38.662 136.085 38.266C136.085 37.846 136.031 37.45 135.923 37.078C135.827 36.706 135.671 36.388 135.455 36.124C135.239 35.848 134.963 35.632 134.627 35.476C134.291 35.308 133.883 35.218 133.403 35.206ZM144.636 33.352C145.392 33.352 146.058 33.472 146.634 33.712C147.21 33.952 147.696 34.288 148.092 34.72C148.5 35.14 148.806 35.65 149.01 36.25C149.214 36.85 149.316 37.516 149.316 38.248C149.316 38.992 149.214 39.664 149.01 40.264C148.818 40.852 148.524 41.362 148.128 41.794C147.732 42.226 147.24 42.556 146.652 42.784C146.076 43.012 145.404 43.126 144.636 43.126C143.88 43.126 143.214 43.012 142.638 42.784C142.062 42.544 141.576 42.214 141.18 41.794C140.796 41.362 140.502 40.846 140.298 40.246C140.106 39.646 140.01 38.98 140.01 38.248C140.01 37.516 140.106 36.85 140.298 36.25C140.502 35.65 140.802 35.14 141.198 34.72C141.594 34.288 142.08 33.952 142.656 33.712C143.232 33.472 143.892 33.352 144.636 33.352ZM144.636 41.344C145.104 41.344 145.5 41.266 145.824 41.11C146.16 40.942 146.43 40.72 146.634 40.444C146.85 40.168 147.006 39.844 147.102 39.472C147.21 39.1 147.264 38.698 147.264 38.266C147.264 37.834 147.21 37.432 147.102 37.06C147.006 36.676 146.85 36.346 146.634 36.07C146.43 35.794 146.16 35.578 145.824 35.422C145.5 35.266 145.104 35.188 144.636 35.188C144.18 35.188 143.79 35.266 143.466 35.422C143.142 35.578 142.872 35.794 142.656 36.07C142.44 36.346 142.278 36.676 142.17 37.06C142.074 37.432 142.026 37.834 142.026 38.266C142.026 38.698 142.074 39.1 142.17 39.472C142.278 39.844 142.434 40.168 142.638 40.444C142.854 40.72 143.124 40.942 143.448 41.11C143.784 41.266 144.18 41.344 144.636 41.344ZM150.19 33.514H152.458L154.438 40.822L156.58 33.514H158.884L161.026 40.822L163.006 33.514H165.202L162.25 43H159.838L157.696 36.016L155.608 43H153.124L150.19 33.514ZM166.438 43V33.514H168.4L168.508 34.828C168.856 34.336 169.288 33.97 169.804 33.73C170.332 33.478 170.89 33.352 171.478 33.352C172.15 33.352 172.714 33.466 173.17 33.694C173.638 33.922 174.016 34.234 174.304 34.63C174.604 35.026 174.814 35.494 174.934 36.034C175.066 36.574 175.132 37.162 175.132 37.798V43H173.08V38.104C173.08 37.696 173.05 37.318 172.99 36.97C172.942 36.622 172.84 36.316 172.684 36.052C172.528 35.776 172.306 35.56 172.018 35.404C171.742 35.248 171.382 35.17 170.938 35.17C170.518 35.17 170.134 35.272 169.786 35.476C169.45 35.68 169.186 35.944 168.994 36.268C168.814 36.592 168.682 36.952 168.598 37.348C168.526 37.744 168.49 38.122 168.49 38.482V43H166.438ZM181.568 33.352C182.324 33.352 182.99 33.472 183.566 33.712C184.142 33.952 184.628 34.288 185.024 34.72C185.432 35.14 185.738 35.65 185.942 36.25C186.146 36.85 186.248 37.516 186.248 38.248C186.248 38.992 186.146 39.664 185.942 40.264C185.75 40.852 185.456 41.362 185.06 41.794C184.664 42.226 184.172 42.556 183.584 42.784C183.008 43.012 182.336 43.126 181.568 43.126C180.812 43.126 180.146 43.012 179.57 42.784C178.994 42.544 178.508 42.214 178.112 41.794C177.728 41.362 177.434 40.846 177.23 40.246C177.038 39.646 176.942 38.98 176.942 38.248C176.942 37.516 177.038 36.85 177.23 36.25C177.434 35.65 177.734 35.14 178.13 34.72C178.526 34.288 179.012 33.952 179.588 33.712C180.164 33.472 180.824 33.352 181.568 33.352ZM181.568 41.344C182.036 41.344 182.432 41.266 182.756 41.11C183.092 40.942 183.362 40.72 183.566 40.444C183.782 40.168 183.938 39.844 184.034 39.472C184.142 39.1 184.196 38.698 184.196 38.266C184.196 37.834 184.142 37.432 184.034 37.06C183.938 36.676 183.782 36.346 183.566 36.07C183.362 35.794 183.092 35.578 182.756 35.422C182.432 35.266 182.036 35.188 181.568 35.188C181.112 35.188 180.722 35.266 180.398 35.422C180.074 35.578 179.804 35.794 179.588 36.07C179.372 36.346 179.21 36.676 179.102 37.06C179.006 37.432 178.958 37.834 178.958 38.266C178.958 38.698 179.006 39.1 179.102 39.472C179.21 39.844 179.366 40.168 179.57 40.444C179.786 40.72 180.056 40.942 180.38 41.11C180.716 41.266 181.112 41.344 181.568 41.344ZM188.112 43V30.274H190.164V43H188.112ZM198.521 41.83C198.209 42.274 197.795 42.604 197.279 42.82C196.763 43.024 196.187 43.126 195.551 43.126C195.047 43.126 194.585 43.066 194.165 42.946C193.757 42.826 193.397 42.646 193.085 42.406C192.773 42.154 192.527 41.848 192.347 41.488C192.167 41.116 192.077 40.696 192.077 40.228C192.077 39.712 192.179 39.274 192.383 38.914C192.587 38.542 192.863 38.242 193.211 38.014C193.571 37.786 193.991 37.618 194.471 37.51C194.951 37.39 195.455 37.33 195.983 37.33H198.413C198.413 36.634 198.257 36.094 197.945 35.71C197.633 35.326 197.087 35.128 196.307 35.116C195.851 35.116 195.455 35.194 195.119 35.35C194.795 35.506 194.579 35.764 194.471 36.124H192.365C192.437 35.62 192.599 35.194 192.851 34.846C193.115 34.498 193.427 34.21 193.787 33.982C194.159 33.754 194.567 33.592 195.011 33.496C195.467 33.4 195.923 33.352 196.379 33.352C196.967 33.352 197.513 33.43 198.017 33.586C198.521 33.742 198.959 34.006 199.331 34.378C199.751 34.81 200.033 35.326 200.177 35.926C200.321 36.526 200.393 37.18 200.393 37.888V43H198.611L198.521 41.83ZM198.413 38.788H196.433C196.085 38.788 195.737 38.818 195.389 38.878C195.041 38.926 194.741 39.052 194.489 39.256C194.249 39.448 194.129 39.73 194.129 40.102C194.129 40.558 194.291 40.906 194.615 41.146C194.951 41.374 195.359 41.488 195.839 41.488C196.211 41.488 196.553 41.44 196.865 41.344C197.189 41.248 197.465 41.092 197.693 40.876C197.921 40.648 198.095 40.366 198.215 40.03C198.347 39.682 198.413 39.268 198.413 38.788ZM211.578 43H209.652L209.544 41.686C209.196 42.19 208.758 42.55 208.23 42.766C207.702 42.982 207.108 43.102 206.448 43.126C205.716 43.114 205.086 42.982 204.558 42.73C204.03 42.466 203.592 42.118 203.244 41.686C202.896 41.242 202.638 40.732 202.47 40.156C202.314 39.58 202.236 38.968 202.236 38.32C202.236 37.612 202.326 36.958 202.506 36.358C202.698 35.758 202.98 35.236 203.352 34.792C203.724 34.348 204.18 34 204.72 33.748C205.26 33.484 205.89 33.352 206.61 33.352C207.126 33.352 207.648 33.436 208.176 33.604C208.704 33.772 209.154 34.084 209.526 34.54V30.274H211.578V43ZM206.844 35.206C206.388 35.206 205.998 35.284 205.674 35.44C205.35 35.596 205.08 35.812 204.864 36.088C204.66 36.364 204.51 36.694 204.414 37.078C204.318 37.45 204.27 37.852 204.27 38.284C204.27 38.716 204.318 39.118 204.414 39.49C204.51 39.862 204.66 40.186 204.864 40.462C205.08 40.738 205.35 40.96 205.674 41.128C206.01 41.284 206.412 41.362 206.88 41.362C207.324 41.362 207.708 41.278 208.032 41.11C208.368 40.93 208.644 40.696 208.86 40.408C209.088 40.12 209.256 39.79 209.364 39.418C209.472 39.046 209.526 38.662 209.526 38.266C209.526 37.846 209.472 37.45 209.364 37.078C209.268 36.706 209.112 36.388 208.896 36.124C208.68 35.848 208.404 35.632 208.068 35.476C207.732 35.308 207.324 35.218 206.844 35.206Z" fill="#2557D9"/>
<path d="M330.406 39.751C330.626 39.751 330.811 39.6807 331.021 39.4697L333.975 36.6309C334.124 36.4814 334.203 36.3232 334.203 36.1123C334.203 35.6992 333.878 35.4092 333.474 35.4092C333.28 35.4092 333.078 35.4883 332.938 35.6465L331.698 36.9648L331.153 37.6064L331.224 36.3057V28.791C331.224 28.3604 330.854 28 330.406 28C329.967 28 329.598 28.3604 329.598 28.791V36.3057L329.659 37.6064L329.114 36.9648L327.884 35.6465C327.743 35.4883 327.532 35.4092 327.33 35.4092C326.926 35.4092 326.609 35.6992 326.609 36.1123C326.609 36.3232 326.697 36.4814 326.847 36.6309L329.791 39.4697C330.002 39.6807 330.195 39.751 330.406 39.751ZM322.883 48.3994H337.938C339.837 48.3994 340.821 47.4238 340.821 45.5518V40.4893C340.821 39.6104 340.707 39.1797 340.312 38.626L337.376 34.7148C336.348 33.335 335.653 32.6582 334.045 32.6582H332.85V34.082H334.133C334.748 34.082 335.372 34.5918 335.768 35.1191L338.765 39.25C339.072 39.6543 338.958 39.8213 338.51 39.8213H333.245C332.735 39.8213 332.507 40.1816 332.507 40.5596V40.5947C332.507 41.6318 331.698 42.7393 330.406 42.7393C329.114 42.7393 328.314 41.6318 328.314 40.5947V40.5596C328.314 40.1816 328.077 39.8213 327.567 39.8213H322.32C321.854 39.8213 321.758 39.6279 322.057 39.25L325.054 35.1191C325.449 34.5918 326.073 34.082 326.688 34.082H327.98V32.6582H326.768C325.168 32.6582 324.465 33.335 323.445 34.7148L320.51 38.626C320.105 39.1797 320 39.6104 320 40.4893V45.5518C320 47.4238 320.984 48.3994 322.883 48.3994Z" fill="#2557D9"/>
</svg>
