<svg width="648" height="28" viewBox="0 0 648 28" fill="none" xmlns="http://www.w3.org/2000/svg">
<path d="M3.132 19H1.566V6.274H3.132V19ZM6.81736 19V10.864H5.26936V9.514H6.81736V8.506C6.81736 7.45 7.04536 6.676 7.50136 6.184C7.95736 5.692 8.72536 5.446 9.80536 5.446H10.8854V6.796H9.96736C9.31936 6.796 8.88736 6.958 8.67136 7.282C8.45536 7.606 8.34736 8.074 8.34736 8.686V9.514H10.8854V10.864H8.34736V19H6.81736ZM25.6767 9.514V19C25.6767 20.38 25.3167 21.43 24.5967 22.15C23.8767 22.882 22.8507 23.248 21.5187 23.248C20.7147 23.236 19.9887 23.128 19.3407 22.924C18.7047 22.732 18.1167 22.384 17.5767 21.88L18.2427 20.674C18.7107 21.046 19.2087 21.34 19.7367 21.556C20.2767 21.772 20.8407 21.88 21.4287 21.88C21.9207 21.88 22.3407 21.802 22.6887 21.646C23.0367 21.502 23.3187 21.292 23.5347 21.016C23.7627 20.752 23.9247 20.434 24.0207 20.062C24.1287 19.69 24.1827 19.288 24.1827 18.856V17.722C24.0267 17.962 23.8287 18.178 23.5887 18.37C23.3607 18.55 23.1087 18.7 22.8327 18.82C22.5687 18.928 22.2807 19.006 21.9687 19.054C21.6687 19.114 21.3627 19.144 21.0507 19.144C20.3307 19.132 19.7307 19.018 19.2507 18.802C18.7827 18.586 18.4047 18.286 18.1167 17.902C17.8407 17.518 17.6427 17.062 17.5227 16.534C17.4027 15.994 17.3427 15.4 17.3427 14.752V9.514H18.8727V14.32C18.8727 14.752 18.8967 15.178 18.9447 15.598C19.0047 16.018 19.1187 16.39 19.2867 16.714C19.4547 17.038 19.7007 17.302 20.0247 17.506C20.3487 17.698 20.7807 17.794 21.3207 17.794C21.8607 17.794 22.3167 17.68 22.6887 17.452C23.0727 17.224 23.3667 16.936 23.5707 16.588C23.7987 16.228 23.9487 15.832 24.0207 15.4C24.1047 14.968 24.1467 14.524 24.1467 14.068V9.514H25.6767ZM32.259 9.406C33.015 9.406 33.669 9.526 34.221 9.766C34.773 10.006 35.235 10.342 35.607 10.774C35.991 11.206 36.273 11.722 36.453 12.322C36.645 12.91 36.741 13.558 36.741 14.266C36.741 14.974 36.645 15.628 36.453 16.228C36.273 16.816 35.991 17.326 35.607 17.758C35.235 18.178 34.767 18.508 34.203 18.748C33.639 18.988 32.979 19.108 32.223 19.108C31.467 19.108 30.807 18.988 30.243 18.748C29.691 18.508 29.223 18.178 28.839 17.758C28.467 17.326 28.185 16.816 27.993 16.228C27.813 15.628 27.723 14.974 27.723 14.266C27.723 13.558 27.813 12.91 27.993 12.322C28.185 11.722 28.467 11.206 28.839 10.774C29.223 10.342 29.703 10.006 30.279 9.766C30.855 9.526 31.515 9.406 32.259 9.406ZM32.223 17.758C32.739 17.758 33.183 17.668 33.555 17.488C33.939 17.308 34.251 17.062 34.491 16.75C34.743 16.426 34.923 16.054 35.031 15.634C35.151 15.214 35.211 14.758 35.211 14.266C35.211 13.786 35.151 13.336 35.031 12.916C34.923 12.484 34.743 12.112 34.491 11.8C34.251 11.476 33.939 11.224 33.555 11.044C33.183 10.864 32.739 10.774 32.223 10.774C31.707 10.774 31.263 10.864 30.891 11.044C30.519 11.224 30.207 11.476 29.955 11.8C29.715 12.112 29.535 12.484 29.415 12.916C29.307 13.336 29.253 13.786 29.253 14.266C29.253 14.758 29.307 15.214 29.415 15.634C29.535 16.054 29.715 16.426 29.955 16.75C30.207 17.062 30.519 17.308 30.891 17.488C31.263 17.668 31.707 17.758 32.223 17.758ZM42.748 17.758C43.612 17.758 44.242 17.5 44.638 16.984C45.046 16.456 45.25 15.724 45.25 14.788V9.514H46.78V14.86C46.78 16.3 46.432 17.368 45.736 18.064C45.052 18.76 44.056 19.108 42.748 19.108C41.44 19.108 40.444 18.76 39.76 18.064C39.088 17.368 38.752 16.3 38.752 14.86V9.514H40.282V14.788C40.282 15.724 40.486 16.456 40.894 16.984C41.302 17.5 41.92 17.758 42.748 17.758ZM53.0207 9.514H54.7487L57.0167 17.524L59.3567 9.514H61.4267L63.7847 17.524L66.0167 9.514H67.7627L64.8107 19H62.7227L60.3827 11.314L58.0427 19H55.9727L53.0207 9.514ZM75.4266 17.794C75.2226 18.07 74.9886 18.292 74.7246 18.46C74.4606 18.628 74.1846 18.76 73.8966 18.856C73.6206 18.952 73.3386 19.018 73.0506 19.054C72.7746 19.09 72.4986 19.108 72.2226 19.108C71.7786 19.108 71.3586 19.054 70.9626 18.946C70.5666 18.838 70.2066 18.664 69.8826 18.424C69.5706 18.184 69.3186 17.884 69.1266 17.524C68.9466 17.164 68.8566 16.756 68.8566 16.3C68.8566 15.76 68.9526 15.31 69.1446 14.95C69.3486 14.578 69.6186 14.278 69.9546 14.05C70.2906 13.822 70.6746 13.666 71.1066 13.582C71.5506 13.486 72.0186 13.438 72.5106 13.438H75.3006C75.3006 12.634 75.1266 11.998 74.7786 11.53C74.4306 11.05 73.8426 10.798 73.0146 10.774C72.5106 10.774 72.0666 10.858 71.6826 11.026C71.2986 11.194 71.0346 11.47 70.8906 11.854H69.2526C69.3366 11.422 69.5046 11.056 69.7566 10.756C70.0086 10.444 70.3086 10.192 70.6566 10C71.0046 9.796 71.3826 9.646 71.7906 9.55C72.1986 9.454 72.6066 9.406 73.0146 9.406C73.7226 9.406 74.3166 9.526 74.7966 9.766C75.2886 9.994 75.6846 10.3 75.9846 10.684C76.2846 11.056 76.4946 11.512 76.6146 12.052C76.7346 12.592 76.7946 13.198 76.7946 13.87V19H75.5166L75.4266 17.794ZM73.6266 14.716C73.3386 14.716 73.0026 14.722 72.6186 14.734C72.2466 14.734 71.8866 14.77 71.5386 14.842C71.1906 14.914 70.9086 15.064 70.6926 15.292C70.4886 15.52 70.3866 15.82 70.3866 16.192C70.3866 16.468 70.4406 16.702 70.5486 16.894C70.6566 17.086 70.8006 17.248 70.9806 17.38C71.1726 17.512 71.3886 17.608 71.6286 17.668C71.8686 17.728 72.1146 17.758 72.3666 17.758C73.2666 17.758 73.9746 17.542 74.4906 17.11C75.0186 16.666 75.2886 16.024 75.3006 15.184V14.716H73.6266ZM79.165 19V9.514H80.641L80.713 10.954C80.869 10.69 81.061 10.462 81.289 10.27C81.529 10.078 81.787 9.916 82.063 9.784C82.339 9.652 82.627 9.556 82.927 9.496C83.239 9.436 83.539 9.406 83.827 9.406C84.511 9.406 85.087 9.52 85.555 9.748C86.023 9.964 86.395 10.27 86.671 10.666C86.947 11.05 87.145 11.512 87.265 12.052C87.385 12.58 87.445 13.15 87.445 13.762V19H85.915V14.176C85.915 13.732 85.885 13.306 85.825 12.898C85.777 12.49 85.669 12.13 85.501 11.818C85.345 11.494 85.117 11.236 84.817 11.044C84.517 10.852 84.115 10.756 83.611 10.756C83.119 10.768 82.681 10.888 82.297 11.116C81.925 11.344 81.625 11.614 81.397 11.926C81.121 12.322 80.935 12.76 80.839 13.24C80.743 13.708 80.695 14.182 80.695 14.662V19H79.165ZM92.1938 9.514H95.1098V10.864H92.1938V15.796C92.1938 16.072 92.2058 16.33 92.2298 16.57C92.2658 16.798 92.3258 17.002 92.4098 17.182C92.5058 17.35 92.6378 17.488 92.8058 17.596C92.9858 17.692 93.2258 17.746 93.5258 17.758C93.8018 17.758 94.0418 17.71 94.2458 17.614C94.4618 17.518 94.6418 17.404 94.7858 17.272L95.4518 18.388C95.1398 18.652 94.8158 18.838 94.4798 18.946C94.1438 19.054 93.7718 19.108 93.3638 19.108C92.8478 19.108 92.4158 19.036 92.0678 18.892C91.7198 18.736 91.4258 18.514 91.1858 18.226C90.9818 17.95 90.8438 17.626 90.7718 17.254C90.6998 16.882 90.6638 16.462 90.6638 15.994V10.864H89.1158V9.514H90.6638V6.67H92.1938V9.514ZM104.182 9.514H107.098V10.864H104.182V15.796C104.182 16.072 104.194 16.33 104.218 16.57C104.254 16.798 104.314 17.002 104.398 17.182C104.494 17.35 104.626 17.488 104.794 17.596C104.974 17.692 105.214 17.746 105.514 17.758C105.79 17.758 106.03 17.71 106.234 17.614C106.45 17.518 106.63 17.404 106.774 17.272L107.44 18.388C107.128 18.652 106.804 18.838 106.468 18.946C106.132 19.054 105.76 19.108 105.352 19.108C104.836 19.108 104.404 19.036 104.056 18.892C103.708 18.736 103.414 18.514 103.174 18.226C102.97 17.95 102.832 17.626 102.76 17.254C102.688 16.882 102.652 16.462 102.652 15.994V10.864H101.104V9.514H102.652V6.67H104.182V9.514ZM113.101 9.406C113.857 9.406 114.511 9.526 115.063 9.766C115.615 10.006 116.077 10.342 116.449 10.774C116.833 11.206 117.115 11.722 117.295 12.322C117.487 12.91 117.583 13.558 117.583 14.266C117.583 14.974 117.487 15.628 117.295 16.228C117.115 16.816 116.833 17.326 116.449 17.758C116.077 18.178 115.609 18.508 115.045 18.748C114.481 18.988 113.821 19.108 113.065 19.108C112.309 19.108 111.649 18.988 111.085 18.748C110.533 18.508 110.065 18.178 109.681 17.758C109.309 17.326 109.027 16.816 108.835 16.228C108.655 15.628 108.565 14.974 108.565 14.266C108.565 13.558 108.655 12.91 108.835 12.322C109.027 11.722 109.309 11.206 109.681 10.774C110.065 10.342 110.545 10.006 111.121 9.766C111.697 9.526 112.357 9.406 113.101 9.406ZM113.065 17.758C113.581 17.758 114.025 17.668 114.397 17.488C114.781 17.308 115.093 17.062 115.333 16.75C115.585 16.426 115.765 16.054 115.873 15.634C115.993 15.214 116.053 14.758 116.053 14.266C116.053 13.786 115.993 13.336 115.873 12.916C115.765 12.484 115.585 12.112 115.333 11.8C115.093 11.476 114.781 11.224 114.397 11.044C114.025 10.864 113.581 10.774 113.065 10.774C112.549 10.774 112.105 10.864 111.733 11.044C111.361 11.224 111.049 11.476 110.797 11.8C110.557 12.112 110.377 12.484 110.257 12.916C110.149 13.336 110.095 13.786 110.095 14.266C110.095 14.758 110.149 15.214 110.257 15.634C110.377 16.054 110.557 16.426 110.797 16.75C111.049 17.062 111.361 17.308 111.733 17.488C112.105 17.668 112.549 17.758 113.065 17.758ZM128.531 19.108C127.775 19.108 127.121 18.988 126.569 18.748C126.017 18.508 125.561 18.172 125.201 17.74C124.841 17.308 124.571 16.798 124.391 16.21C124.211 15.622 124.121 14.98 124.121 14.284C124.121 13.612 124.217 12.982 124.409 12.394C124.601 11.794 124.883 11.278 125.255 10.846C125.627 10.402 126.095 10.054 126.659 9.802C127.223 9.538 127.907 9.406 128.711 9.406C129.191 9.406 129.617 9.46 129.989 9.568C130.361 9.664 130.709 9.826 131.033 10.054C131.369 10.27 131.657 10.558 131.897 10.918C132.137 11.278 132.311 11.716 132.419 12.232H130.853C130.673 11.704 130.385 11.326 129.989 11.098C129.605 10.87 129.149 10.762 128.621 10.774C128.105 10.774 127.649 10.876 127.253 11.08C126.869 11.272 126.557 11.53 126.317 11.854C126.089 12.178 125.921 12.556 125.813 12.988C125.705 13.408 125.651 13.84 125.651 14.284C125.651 14.752 125.705 15.196 125.813 15.616C125.933 16.036 126.107 16.408 126.335 16.732C126.575 17.044 126.881 17.296 127.253 17.488C127.625 17.668 128.069 17.758 128.585 17.758C128.837 17.758 129.083 17.734 129.323 17.686C129.575 17.638 129.803 17.56 130.007 17.452C130.223 17.332 130.409 17.176 130.565 16.984C130.721 16.792 130.835 16.558 130.907 16.282H132.491C132.395 16.774 132.221 17.2 131.969 17.56C131.729 17.908 131.429 18.202 131.069 18.442C130.709 18.67 130.313 18.838 129.881 18.946C129.449 19.054 128.999 19.108 128.531 19.108ZM134.431 19V6.274H135.961V10.972C136.117 10.732 136.315 10.51 136.555 10.306C136.795 10.102 137.047 9.934 137.311 9.802C137.575 9.67 137.863 9.574 138.175 9.514C138.499 9.442 138.811 9.406 139.111 9.406C139.795 9.406 140.365 9.52 140.821 9.748C141.289 9.964 141.661 10.27 141.937 10.666C142.225 11.05 142.423 11.512 142.531 12.052C142.651 12.58 142.711 13.156 142.711 13.78V19H141.181V14.248C141.181 13.816 141.157 13.396 141.109 12.988C141.061 12.568 140.953 12.196 140.785 11.872C140.617 11.548 140.377 11.284 140.065 11.08C139.753 10.864 139.327 10.756 138.787 10.756C138.343 10.756 137.929 10.87 137.545 11.098C137.173 11.314 136.873 11.59 136.645 11.926C136.369 12.298 136.183 12.712 136.087 13.168C136.003 13.624 135.961 14.092 135.961 14.572V19H134.431ZM146.253 14.824C146.289 15.244 146.373 15.634 146.505 15.994C146.649 16.342 146.841 16.648 147.081 16.912C147.321 17.176 147.615 17.386 147.963 17.542C148.323 17.686 148.737 17.758 149.205 17.758C149.433 17.758 149.667 17.74 149.907 17.704C150.159 17.656 150.393 17.584 150.609 17.488C150.825 17.38 151.017 17.242 151.185 17.074C151.353 16.906 151.479 16.702 151.563 16.462H153.129C153.021 16.918 152.835 17.314 152.571 17.65C152.319 17.986 152.013 18.262 151.653 18.478C151.305 18.694 150.915 18.856 150.483 18.964C150.051 19.06 149.613 19.108 149.169 19.108C148.413 19.108 147.753 18.988 147.189 18.748C146.637 18.508 146.175 18.178 145.803 17.758C145.431 17.326 145.155 16.816 144.975 16.228C144.795 15.628 144.705 14.974 144.705 14.266C144.705 13.558 144.801 12.91 144.993 12.322C145.197 11.722 145.485 11.206 145.857 10.774C146.229 10.342 146.685 10.006 147.225 9.766C147.765 9.526 148.407 9.406 149.151 9.406C149.907 9.406 150.561 9.556 151.113 9.856C151.665 10.156 152.109 10.552 152.445 11.044C152.781 11.524 153.015 12.046 153.147 12.61C153.291 13.174 153.351 13.696 153.327 14.176C153.327 14.284 153.321 14.392 153.309 14.5C153.309 14.608 153.303 14.716 153.291 14.824H146.253ZM151.779 13.492C151.755 12.688 151.503 12.034 151.023 11.53C150.543 11.026 149.901 10.774 149.097 10.774C148.653 10.774 148.263 10.846 147.927 10.99C147.591 11.134 147.309 11.332 147.081 11.584C146.853 11.836 146.673 12.13 146.541 12.466C146.409 12.79 146.325 13.132 146.289 13.492H151.779ZM159.61 19.108C158.854 19.108 158.2 18.988 157.648 18.748C157.096 18.508 156.64 18.172 156.28 17.74C155.92 17.308 155.65 16.798 155.47 16.21C155.29 15.622 155.2 14.98 155.2 14.284C155.2 13.612 155.296 12.982 155.488 12.394C155.68 11.794 155.962 11.278 156.334 10.846C156.706 10.402 157.174 10.054 157.738 9.802C158.302 9.538 158.986 9.406 159.79 9.406C160.27 9.406 160.696 9.46 161.068 9.568C161.44 9.664 161.788 9.826 162.112 10.054C162.448 10.27 162.736 10.558 162.976 10.918C163.216 11.278 163.39 11.716 163.498 12.232H161.932C161.752 11.704 161.464 11.326 161.068 11.098C160.684 10.87 160.228 10.762 159.7 10.774C159.184 10.774 158.728 10.876 158.332 11.08C157.948 11.272 157.636 11.53 157.396 11.854C157.168 12.178 157 12.556 156.892 12.988C156.784 13.408 156.73 13.84 156.73 14.284C156.73 14.752 156.784 15.196 156.892 15.616C157.012 16.036 157.186 16.408 157.414 16.732C157.654 17.044 157.96 17.296 158.332 17.488C158.704 17.668 159.148 17.758 159.664 17.758C159.916 17.758 160.162 17.734 160.402 17.686C160.654 17.638 160.882 17.56 161.086 17.452C161.302 17.332 161.488 17.176 161.644 16.984C161.8 16.792 161.914 16.558 161.986 16.282H163.57C163.474 16.774 163.3 17.2 163.048 17.56C162.808 17.908 162.508 18.202 162.148 18.442C161.788 18.67 161.392 18.838 160.96 18.946C160.528 19.054 160.078 19.108 159.61 19.108ZM165.509 19V6.274H167.039V13.6H168.695L171.539 9.514H173.267L170.099 14.032L173.537 19H171.737L168.875 14.932H167.039V19H165.509ZM183.888 9.406C184.644 9.406 185.298 9.526 185.85 9.766C186.402 10.006 186.864 10.342 187.236 10.774C187.62 11.206 187.902 11.722 188.082 12.322C188.274 12.91 188.37 13.558 188.37 14.266C188.37 14.974 188.274 15.628 188.082 16.228C187.902 16.816 187.62 17.326 187.236 17.758C186.864 18.178 186.396 18.508 185.832 18.748C185.268 18.988 184.608 19.108 183.852 19.108C183.096 19.108 182.436 18.988 181.872 18.748C181.32 18.508 180.852 18.178 180.468 17.758C180.096 17.326 179.814 16.816 179.622 16.228C179.442 15.628 179.352 14.974 179.352 14.266C179.352 13.558 179.442 12.91 179.622 12.322C179.814 11.722 180.096 11.206 180.468 10.774C180.852 10.342 181.332 10.006 181.908 9.766C182.484 9.526 183.144 9.406 183.888 9.406ZM183.852 17.758C184.368 17.758 184.812 17.668 185.184 17.488C185.568 17.308 185.88 17.062 186.12 16.75C186.372 16.426 186.552 16.054 186.66 15.634C186.78 15.214 186.84 14.758 186.84 14.266C186.84 13.786 186.78 13.336 186.66 12.916C186.552 12.484 186.372 12.112 186.12 11.8C185.88 11.476 185.568 11.224 185.184 11.044C184.812 10.864 184.368 10.774 183.852 10.774C183.336 10.774 182.892 10.864 182.52 11.044C182.148 11.224 181.836 11.476 181.584 11.8C181.344 12.112 181.164 12.484 181.044 12.916C180.936 13.336 180.882 13.786 180.882 14.266C180.882 14.758 180.936 15.214 181.044 15.634C181.164 16.054 181.344 16.426 181.584 16.75C181.836 17.062 182.148 17.308 182.52 17.488C182.892 17.668 183.336 17.758 183.852 17.758ZM194.377 17.758C195.241 17.758 195.871 17.5 196.267 16.984C196.675 16.456 196.879 15.724 196.879 14.788V9.514H198.409V14.86C198.409 16.3 198.061 17.368 197.365 18.064C196.681 18.76 195.685 19.108 194.377 19.108C193.069 19.108 192.073 18.76 191.389 18.064C190.717 17.368 190.381 16.3 190.381 14.86V9.514H191.911V14.788C191.911 15.724 192.115 16.456 192.523 16.984C192.931 17.5 193.549 17.758 194.377 17.758ZM200.788 19V9.514H202.264L202.336 10.99C202.684 10.438 203.128 10.036 203.668 9.784C204.208 9.532 204.82 9.406 205.504 9.406H205.99V10.846H205.432C204.868 10.846 204.388 10.942 203.992 11.134C203.596 11.314 203.272 11.566 203.02 11.89C202.78 12.202 202.6 12.574 202.48 13.006C202.372 13.438 202.318 13.894 202.318 14.374V19H200.788ZM218.6 17.794C218.396 18.07 218.162 18.292 217.898 18.46C217.634 18.628 217.358 18.76 217.07 18.856C216.794 18.952 216.512 19.018 216.224 19.054C215.948 19.09 215.672 19.108 215.396 19.108C214.952 19.108 214.532 19.054 214.136 18.946C213.74 18.838 213.38 18.664 213.056 18.424C212.744 18.184 212.492 17.884 212.3 17.524C212.12 17.164 212.03 16.756 212.03 16.3C212.03 15.76 212.126 15.31 212.318 14.95C212.522 14.578 212.792 14.278 213.128 14.05C213.464 13.822 213.848 13.666 214.28 13.582C214.724 13.486 215.192 13.438 215.684 13.438H218.474C218.474 12.634 218.3 11.998 217.952 11.53C217.604 11.05 217.016 10.798 216.188 10.774C215.684 10.774 215.24 10.858 214.856 11.026C214.472 11.194 214.208 11.47 214.064 11.854H212.426C212.51 11.422 212.678 11.056 212.93 10.756C213.182 10.444 213.482 10.192 213.83 10C214.178 9.796 214.556 9.646 214.964 9.55C215.372 9.454 215.78 9.406 216.188 9.406C216.896 9.406 217.49 9.526 217.97 9.766C218.462 9.994 218.858 10.3 219.158 10.684C219.458 11.056 219.668 11.512 219.788 12.052C219.908 12.592 219.968 13.198 219.968 13.87V19H218.69L218.6 17.794ZM216.8 14.716C216.512 14.716 216.176 14.722 215.792 14.734C215.42 14.734 215.06 14.77 214.712 14.842C214.364 14.914 214.082 15.064 213.866 15.292C213.662 15.52 213.56 15.82 213.56 16.192C213.56 16.468 213.614 16.702 213.722 16.894C213.83 17.086 213.974 17.248 214.154 17.38C214.346 17.512 214.562 17.608 214.802 17.668C215.042 17.728 215.288 17.758 215.54 17.758C216.44 17.758 217.148 17.542 217.664 17.11C218.192 16.666 218.462 16.024 218.474 15.184V14.716H216.8ZM222.339 19V6.274H223.869V19H222.339ZM226.276 19V6.274H227.806V19H226.276ZM234.075 9.514H235.803L238.071 17.524L240.411 9.514H242.481L244.839 17.524L247.071 9.514H248.817L245.865 19H243.777L241.437 11.314L239.097 19H237.027L234.075 9.514ZM254.411 9.406C255.167 9.406 255.821 9.526 256.373 9.766C256.925 10.006 257.387 10.342 257.759 10.774C258.143 11.206 258.425 11.722 258.605 12.322C258.797 12.91 258.893 13.558 258.893 14.266C258.893 14.974 258.797 15.628 258.605 16.228C258.425 16.816 258.143 17.326 257.759 17.758C257.387 18.178 256.919 18.508 256.355 18.748C255.791 18.988 255.131 19.108 254.375 19.108C253.619 19.108 252.959 18.988 252.395 18.748C251.843 18.508 251.375 18.178 250.991 17.758C250.619 17.326 250.337 16.816 250.145 16.228C249.965 15.628 249.875 14.974 249.875 14.266C249.875 13.558 249.965 12.91 250.145 12.322C250.337 11.722 250.619 11.206 250.991 10.774C251.375 10.342 251.855 10.006 252.431 9.766C253.007 9.526 253.667 9.406 254.411 9.406ZM254.375 17.758C254.891 17.758 255.335 17.668 255.707 17.488C256.091 17.308 256.403 17.062 256.643 16.75C256.895 16.426 257.075 16.054 257.183 15.634C257.303 15.214 257.363 14.758 257.363 14.266C257.363 13.786 257.303 13.336 257.183 12.916C257.075 12.484 256.895 12.112 256.643 11.8C256.403 11.476 256.091 11.224 255.707 11.044C255.335 10.864 254.891 10.774 254.375 10.774C253.859 10.774 253.415 10.864 253.043 11.044C252.671 11.224 252.359 11.476 252.107 11.8C251.867 12.112 251.687 12.484 251.567 12.916C251.459 13.336 251.405 13.786 251.405 14.266C251.405 14.758 251.459 15.214 251.567 15.634C251.687 16.054 251.867 16.426 252.107 16.75C252.359 17.062 252.671 17.308 253.043 17.488C253.415 17.668 253.859 17.758 254.375 17.758ZM260.94 19V9.514H262.416L262.488 10.99C262.836 10.438 263.28 10.036 263.82 9.784C264.36 9.532 264.972 9.406 265.656 9.406H266.142V10.846H265.584C265.02 10.846 264.54 10.942 264.144 11.134C263.748 11.314 263.424 11.566 263.172 11.89C262.932 12.202 262.752 12.574 262.632 13.006C262.524 13.438 262.47 13.894 262.47 14.374V19H260.94ZM267.655 19V6.274H269.185V13.6H270.841L273.685 9.514H275.413L272.245 14.032L275.683 19H273.883L271.021 14.932H269.185V19H267.655ZM280.391 10.774C280.175 10.774 279.953 10.792 279.725 10.828C279.509 10.852 279.293 10.912 279.077 11.008C278.873 11.092 278.693 11.224 278.537 11.404C278.393 11.572 278.315 11.8 278.303 12.088C278.303 12.496 278.453 12.802 278.753 13.006C279.065 13.21 279.467 13.36 279.959 13.456C280.163 13.504 280.385 13.552 280.625 13.6C280.865 13.636 281.099 13.678 281.327 13.726C281.567 13.762 281.789 13.804 281.993 13.852C282.209 13.9 282.389 13.948 282.533 13.996C283.685 14.356 284.261 15.13 284.261 16.318C284.249 16.894 284.123 17.362 283.883 17.722C283.655 18.07 283.361 18.346 283.001 18.55C282.653 18.754 282.251 18.898 281.795 18.982C281.351 19.066 280.907 19.108 280.463 19.108C280.031 19.108 279.593 19.066 279.149 18.982C278.705 18.898 278.297 18.754 277.925 18.55C277.565 18.334 277.253 18.058 276.989 17.722C276.737 17.374 276.575 16.942 276.503 16.426H278.051C278.147 16.714 278.297 16.942 278.501 17.11C278.705 17.278 278.921 17.41 279.149 17.506C279.389 17.602 279.611 17.668 279.815 17.704C280.031 17.74 280.271 17.758 280.535 17.758C280.727 17.758 280.949 17.746 281.201 17.722C281.453 17.698 281.693 17.644 281.921 17.56C282.149 17.464 282.341 17.326 282.497 17.146C282.653 16.966 282.731 16.714 282.731 16.39C282.731 16.03 282.611 15.76 282.371 15.58C282.143 15.4 281.825 15.268 281.417 15.184C281.129 15.124 280.829 15.07 280.517 15.022C280.217 14.962 279.911 14.902 279.599 14.842C279.299 14.77 279.005 14.692 278.717 14.608C278.429 14.512 278.159 14.386 277.907 14.23C277.571 14.026 277.301 13.75 277.097 13.402C276.893 13.054 276.791 12.628 276.791 12.124C276.815 11.596 276.935 11.164 277.151 10.828C277.367 10.48 277.643 10.198 277.979 9.982C278.339 9.766 278.723 9.616 279.131 9.532C279.539 9.448 279.971 9.406 280.427 9.406C281.399 9.406 282.173 9.616 282.749 10.036C283.097 10.276 283.367 10.564 283.559 10.9C283.751 11.236 283.871 11.59 283.919 11.962H282.497C282.413 11.614 282.185 11.332 281.813 11.116C281.441 10.9 280.967 10.786 280.391 10.774ZM299.351 9.514V19C299.351 20.38 298.991 21.43 298.271 22.15C297.551 22.882 296.525 23.248 295.193 23.248C294.389 23.236 293.663 23.128 293.015 22.924C292.379 22.732 291.791 22.384 291.251 21.88L291.917 20.674C292.385 21.046 292.883 21.34 293.411 21.556C293.951 21.772 294.515 21.88 295.103 21.88C295.595 21.88 296.015 21.802 296.363 21.646C296.711 21.502 296.993 21.292 297.209 21.016C297.437 20.752 297.599 20.434 297.695 20.062C297.803 19.69 297.857 19.288 297.857 18.856V17.722C297.701 17.962 297.503 18.178 297.263 18.37C297.035 18.55 296.783 18.7 296.507 18.82C296.243 18.928 295.955 19.006 295.643 19.054C295.343 19.114 295.037 19.144 294.725 19.144C294.005 19.132 293.405 19.018 292.925 18.802C292.457 18.586 292.079 18.286 291.791 17.902C291.515 17.518 291.317 17.062 291.197 16.534C291.077 15.994 291.017 15.4 291.017 14.752V9.514H292.547V14.32C292.547 14.752 292.571 15.178 292.619 15.598C292.679 16.018 292.793 16.39 292.961 16.714C293.129 17.038 293.375 17.302 293.699 17.506C294.023 17.698 294.455 17.794 294.995 17.794C295.535 17.794 295.991 17.68 296.363 17.452C296.747 17.224 297.041 16.936 297.245 16.588C297.473 16.228 297.623 15.832 297.695 15.4C297.779 14.968 297.821 14.524 297.821 14.068V9.514H299.351ZM305.933 9.406C306.689 9.406 307.343 9.526 307.895 9.766C308.447 10.006 308.909 10.342 309.281 10.774C309.665 11.206 309.947 11.722 310.127 12.322C310.319 12.91 310.415 13.558 310.415 14.266C310.415 14.974 310.319 15.628 310.127 16.228C309.947 16.816 309.665 17.326 309.281 17.758C308.909 18.178 308.441 18.508 307.877 18.748C307.313 18.988 306.653 19.108 305.897 19.108C305.141 19.108 304.481 18.988 303.917 18.748C303.365 18.508 302.897 18.178 302.513 17.758C302.141 17.326 301.859 16.816 301.667 16.228C301.487 15.628 301.397 14.974 301.397 14.266C301.397 13.558 301.487 12.91 301.667 12.322C301.859 11.722 302.141 11.206 302.513 10.774C302.897 10.342 303.377 10.006 303.953 9.766C304.529 9.526 305.189 9.406 305.933 9.406ZM305.897 17.758C306.413 17.758 306.857 17.668 307.229 17.488C307.613 17.308 307.925 17.062 308.165 16.75C308.417 16.426 308.597 16.054 308.705 15.634C308.825 15.214 308.885 14.758 308.885 14.266C308.885 13.786 308.825 13.336 308.705 12.916C308.597 12.484 308.417 12.112 308.165 11.8C307.925 11.476 307.613 11.224 307.229 11.044C306.857 10.864 306.413 10.774 305.897 10.774C305.381 10.774 304.937 10.864 304.565 11.044C304.193 11.224 303.881 11.476 303.629 11.8C303.389 12.112 303.209 12.484 303.089 12.916C302.981 13.336 302.927 13.786 302.927 14.266C302.927 14.758 302.981 15.214 303.089 15.634C303.209 16.054 303.389 16.426 303.629 16.75C303.881 17.062 304.193 17.308 304.565 17.488C304.937 17.668 305.381 17.758 305.897 17.758ZM316.422 17.758C317.286 17.758 317.916 17.5 318.312 16.984C318.72 16.456 318.924 15.724 318.924 14.788V9.514H320.454V14.86C320.454 16.3 320.106 17.368 319.41 18.064C318.726 18.76 317.73 19.108 316.422 19.108C315.114 19.108 314.118 18.76 313.434 18.064C312.762 17.368 312.426 16.3 312.426 14.86V9.514H313.956V14.788C313.956 15.724 314.16 16.456 314.568 16.984C314.976 17.5 315.594 17.758 316.422 17.758ZM331.735 19.108C330.979 19.108 330.325 18.988 329.773 18.748C329.221 18.508 328.765 18.172 328.405 17.74C328.045 17.308 327.775 16.798 327.595 16.21C327.415 15.622 327.325 14.98 327.325 14.284C327.325 13.612 327.421 12.982 327.613 12.394C327.805 11.794 328.087 11.278 328.459 10.846C328.831 10.402 329.299 10.054 329.863 9.802C330.427 9.538 331.111 9.406 331.915 9.406C332.395 9.406 332.821 9.46 333.193 9.568C333.565 9.664 333.913 9.826 334.237 10.054C334.573 10.27 334.861 10.558 335.101 10.918C335.341 11.278 335.515 11.716 335.623 12.232H334.057C333.877 11.704 333.589 11.326 333.193 11.098C332.809 10.87 332.353 10.762 331.825 10.774C331.309 10.774 330.853 10.876 330.457 11.08C330.073 11.272 329.761 11.53 329.521 11.854C329.293 12.178 329.125 12.556 329.017 12.988C328.909 13.408 328.855 13.84 328.855 14.284C328.855 14.752 328.909 15.196 329.017 15.616C329.137 16.036 329.311 16.408 329.539 16.732C329.779 17.044 330.085 17.296 330.457 17.488C330.829 17.668 331.273 17.758 331.789 17.758C332.041 17.758 332.287 17.734 332.527 17.686C332.779 17.638 333.007 17.56 333.211 17.452C333.427 17.332 333.613 17.176 333.769 16.984C333.925 16.792 334.039 16.558 334.111 16.282H335.695C335.599 16.774 335.425 17.2 335.173 17.56C334.933 17.908 334.633 18.202 334.273 18.442C333.913 18.67 333.517 18.838 333.085 18.946C332.653 19.054 332.203 19.108 331.735 19.108ZM343.88 17.794C343.676 18.07 343.442 18.292 343.178 18.46C342.914 18.628 342.638 18.76 342.35 18.856C342.074 18.952 341.792 19.018 341.504 19.054C341.228 19.09 340.952 19.108 340.676 19.108C340.232 19.108 339.812 19.054 339.416 18.946C339.02 18.838 338.66 18.664 338.336 18.424C338.024 18.184 337.772 17.884 337.58 17.524C337.4 17.164 337.31 16.756 337.31 16.3C337.31 15.76 337.406 15.31 337.598 14.95C337.802 14.578 338.072 14.278 338.408 14.05C338.744 13.822 339.128 13.666 339.56 13.582C340.004 13.486 340.472 13.438 340.964 13.438H343.754C343.754 12.634 343.58 11.998 343.232 11.53C342.884 11.05 342.296 10.798 341.468 10.774C340.964 10.774 340.52 10.858 340.136 11.026C339.752 11.194 339.488 11.47 339.344 11.854H337.706C337.79 11.422 337.958 11.056 338.21 10.756C338.462 10.444 338.762 10.192 339.11 10C339.458 9.796 339.836 9.646 340.244 9.55C340.652 9.454 341.06 9.406 341.468 9.406C342.176 9.406 342.77 9.526 343.25 9.766C343.742 9.994 344.138 10.3 344.438 10.684C344.738 11.056 344.948 11.512 345.068 12.052C345.188 12.592 345.248 13.198 345.248 13.87V19H343.97L343.88 17.794ZM342.08 14.716C341.792 14.716 341.456 14.722 341.072 14.734C340.7 14.734 340.34 14.77 339.992 14.842C339.644 14.914 339.362 15.064 339.146 15.292C338.942 15.52 338.84 15.82 338.84 16.192C338.84 16.468 338.894 16.702 339.002 16.894C339.11 17.086 339.254 17.248 339.434 17.38C339.626 17.512 339.842 17.608 340.082 17.668C340.322 17.728 340.568 17.758 340.82 17.758C341.72 17.758 342.428 17.542 342.944 17.11C343.472 16.666 343.742 16.024 343.754 15.184V14.716H342.08ZM347.618 19V9.514H349.094L349.166 10.954C349.322 10.69 349.514 10.462 349.742 10.27C349.982 10.078 350.24 9.916 350.516 9.784C350.792 9.652 351.08 9.556 351.38 9.496C351.692 9.436 351.992 9.406 352.28 9.406C352.964 9.406 353.54 9.52 354.008 9.748C354.476 9.964 354.848 10.27 355.124 10.666C355.4 11.05 355.598 11.512 355.718 12.052C355.838 12.58 355.898 13.15 355.898 13.762V19H354.368V14.176C354.368 13.732 354.338 13.306 354.278 12.898C354.23 12.49 354.122 12.13 353.954 11.818C353.798 11.494 353.57 11.236 353.27 11.044C352.97 10.852 352.568 10.756 352.064 10.756C351.572 10.768 351.134 10.888 350.75 11.116C350.378 11.344 350.078 11.614 349.85 11.926C349.574 12.322 349.388 12.76 349.292 13.24C349.196 13.708 349.148 14.182 349.148 14.662V19H347.618ZM455.006 9.514H457.544V10.864H455.006V15.778C455.006 16.426 455.132 16.906 455.384 17.218C455.636 17.518 456.104 17.668 456.788 17.668H457.49V19H456.464C455.384 19 454.616 18.754 454.16 18.262C453.704 17.77 453.476 16.996 453.476 15.94V10.864H451.928V9.514H453.476V6.688H455.006V9.514ZM459.274 19V6.274H460.804V10.972C460.96 10.732 461.158 10.51 461.398 10.306C461.638 10.102 461.89 9.934 462.154 9.802C462.418 9.67 462.706 9.574 463.018 9.514C463.342 9.442 463.654 9.406 463.954 9.406C464.638 9.406 465.208 9.52 465.664 9.748C466.132 9.964 466.504 10.27 466.78 10.666C467.068 11.05 467.266 11.512 467.374 12.052C467.494 12.58 467.554 13.156 467.554 13.78V19H466.024V14.248C466.024 13.816 466 13.396 465.952 12.988C465.904 12.568 465.796 12.196 465.628 11.872C465.46 11.548 465.22 11.284 464.908 11.08C464.596 10.864 464.17 10.756 463.63 10.756C463.186 10.756 462.772 10.87 462.388 11.098C462.016 11.314 461.716 11.59 461.488 11.926C461.212 12.298 461.026 12.712 460.93 13.168C460.846 13.624 460.804 14.092 460.804 14.572V19H459.274ZM470.791 6.04C471.079 6.04 471.325 6.136 471.529 6.328C471.733 6.508 471.835 6.748 471.835 7.048C471.835 7.348 471.733 7.594 471.529 7.786C471.325 7.978 471.079 8.074 470.791 8.074C470.491 8.074 470.245 7.978 470.053 7.786C469.861 7.594 469.765 7.348 469.765 7.048C469.765 6.748 469.861 6.508 470.053 6.328C470.245 6.136 470.491 6.04 470.791 6.04ZM470.035 19V9.514H471.565V19H470.035ZM477.494 10.774C477.278 10.774 477.056 10.792 476.828 10.828C476.612 10.852 476.396 10.912 476.18 11.008C475.976 11.092 475.796 11.224 475.64 11.404C475.496 11.572 475.418 11.8 475.406 12.088C475.406 12.496 475.556 12.802 475.856 13.006C476.168 13.21 476.57 13.36 477.062 13.456C477.266 13.504 477.488 13.552 477.728 13.6C477.968 13.636 478.202 13.678 478.43 13.726C478.67 13.762 478.892 13.804 479.096 13.852C479.312 13.9 479.492 13.948 479.636 13.996C480.788 14.356 481.364 15.13 481.364 16.318C481.352 16.894 481.226 17.362 480.986 17.722C480.758 18.07 480.464 18.346 480.104 18.55C479.756 18.754 479.354 18.898 478.898 18.982C478.454 19.066 478.01 19.108 477.566 19.108C477.134 19.108 476.696 19.066 476.252 18.982C475.808 18.898 475.4 18.754 475.028 18.55C474.668 18.334 474.356 18.058 474.092 17.722C473.84 17.374 473.678 16.942 473.606 16.426H475.154C475.25 16.714 475.4 16.942 475.604 17.11C475.808 17.278 476.024 17.41 476.252 17.506C476.492 17.602 476.714 17.668 476.918 17.704C477.134 17.74 477.374 17.758 477.638 17.758C477.83 17.758 478.052 17.746 478.304 17.722C478.556 17.698 478.796 17.644 479.024 17.56C479.252 17.464 479.444 17.326 479.6 17.146C479.756 16.966 479.834 16.714 479.834 16.39C479.834 16.03 479.714 15.76 479.474 15.58C479.246 15.4 478.928 15.268 478.52 15.184C478.232 15.124 477.932 15.07 477.62 15.022C477.32 14.962 477.014 14.902 476.702 14.842C476.402 14.77 476.108 14.692 475.82 14.608C475.532 14.512 475.262 14.386 475.01 14.23C474.674 14.026 474.404 13.75 474.2 13.402C473.996 13.054 473.894 12.628 473.894 12.124C473.918 11.596 474.038 11.164 474.254 10.828C474.47 10.48 474.746 10.198 475.082 9.982C475.442 9.766 475.826 9.616 476.234 9.532C476.642 9.448 477.074 9.406 477.53 9.406C478.502 9.406 479.276 9.616 479.852 10.036C480.2 10.276 480.47 10.564 480.662 10.9C480.854 11.236 480.974 11.59 481.022 11.962H479.6C479.516 11.614 479.288 11.332 478.916 11.116C478.544 10.9 478.07 10.786 477.494 10.774ZM488.12 22.42V9.514H489.578L489.65 10.936C489.974 10.444 490.412 10.072 490.964 9.82C491.528 9.556 492.134 9.418 492.782 9.406C493.514 9.406 494.132 9.532 494.636 9.784C495.152 10.024 495.578 10.366 495.914 10.81C496.262 11.242 496.52 11.758 496.688 12.358C496.856 12.946 496.94 13.582 496.94 14.266C496.94 14.962 496.856 15.604 496.688 16.192C496.52 16.78 496.262 17.29 495.914 17.722C495.566 18.154 495.128 18.496 494.6 18.748C494.072 18.988 493.442 19.108 492.71 19.108C491.99 19.108 491.378 18.994 490.874 18.766C490.37 18.538 489.962 18.22 489.65 17.812V22.42H488.12ZM492.584 17.758C493.1 17.758 493.532 17.668 493.88 17.488C494.24 17.296 494.528 17.044 494.744 16.732C494.972 16.408 495.134 16.036 495.23 15.616C495.338 15.196 495.398 14.746 495.41 14.266C495.41 13.786 495.356 13.336 495.248 12.916C495.152 12.484 494.99 12.112 494.762 11.8C494.534 11.488 494.234 11.242 493.862 11.062C493.502 10.87 493.064 10.774 492.548 10.774C491.936 10.774 491.408 10.942 490.964 11.278C490.52 11.602 490.184 12.016 489.956 12.52C489.824 12.796 489.734 13.084 489.686 13.384C489.638 13.672 489.614 13.972 489.614 14.284C489.614 14.644 489.638 14.98 489.686 15.292C489.734 15.592 489.824 15.88 489.956 16.156C490.184 16.612 490.514 16.996 490.946 17.308C491.39 17.608 491.936 17.758 492.584 17.758ZM498.983 19V9.514H500.459L500.531 10.99C500.879 10.438 501.323 10.036 501.863 9.784C502.403 9.532 503.015 9.406 503.699 9.406H504.185V10.846H503.627C503.063 10.846 502.583 10.942 502.187 11.134C501.791 11.314 501.467 11.566 501.215 11.89C500.975 12.202 500.795 12.574 500.675 13.006C500.567 13.438 500.513 13.894 500.513 14.374V19H498.983ZM506.71 14.824C506.746 15.244 506.83 15.634 506.962 15.994C507.106 16.342 507.298 16.648 507.538 16.912C507.778 17.176 508.072 17.386 508.42 17.542C508.78 17.686 509.194 17.758 509.662 17.758C509.89 17.758 510.124 17.74 510.364 17.704C510.616 17.656 510.85 17.584 511.066 17.488C511.282 17.38 511.474 17.242 511.642 17.074C511.81 16.906 511.936 16.702 512.02 16.462H513.586C513.478 16.918 513.292 17.314 513.028 17.65C512.776 17.986 512.47 18.262 512.11 18.478C511.762 18.694 511.372 18.856 510.94 18.964C510.508 19.06 510.07 19.108 509.626 19.108C508.87 19.108 508.21 18.988 507.646 18.748C507.094 18.508 506.632 18.178 506.26 17.758C505.888 17.326 505.612 16.816 505.432 16.228C505.252 15.628 505.162 14.974 505.162 14.266C505.162 13.558 505.258 12.91 505.45 12.322C505.654 11.722 505.942 11.206 506.314 10.774C506.686 10.342 507.142 10.006 507.682 9.766C508.222 9.526 508.864 9.406 509.608 9.406C510.364 9.406 511.018 9.556 511.57 9.856C512.122 10.156 512.566 10.552 512.902 11.044C513.238 11.524 513.472 12.046 513.604 12.61C513.748 13.174 513.808 13.696 513.784 14.176C513.784 14.284 513.778 14.392 513.766 14.5C513.766 14.608 513.76 14.716 513.748 14.824H506.71ZM512.236 13.492C512.212 12.688 511.96 12.034 511.48 11.53C511 11.026 510.358 10.774 509.554 10.774C509.11 10.774 508.72 10.846 508.384 10.99C508.048 11.134 507.766 11.332 507.538 11.584C507.31 11.836 507.13 12.13 506.998 12.466C506.866 12.79 506.782 13.132 506.746 13.492H512.236ZM519.225 10.774C519.009 10.774 518.787 10.792 518.559 10.828C518.343 10.852 518.127 10.912 517.911 11.008C517.707 11.092 517.527 11.224 517.371 11.404C517.227 11.572 517.149 11.8 517.137 12.088C517.137 12.496 517.287 12.802 517.587 13.006C517.899 13.21 518.301 13.36 518.793 13.456C518.997 13.504 519.219 13.552 519.459 13.6C519.699 13.636 519.933 13.678 520.161 13.726C520.401 13.762 520.623 13.804 520.827 13.852C521.043 13.9 521.223 13.948 521.367 13.996C522.519 14.356 523.095 15.13 523.095 16.318C523.083 16.894 522.957 17.362 522.717 17.722C522.489 18.07 522.195 18.346 521.835 18.55C521.487 18.754 521.085 18.898 520.629 18.982C520.185 19.066 519.741 19.108 519.297 19.108C518.865 19.108 518.427 19.066 517.983 18.982C517.539 18.898 517.131 18.754 516.759 18.55C516.399 18.334 516.087 18.058 515.823 17.722C515.571 17.374 515.409 16.942 515.337 16.426H516.885C516.981 16.714 517.131 16.942 517.335 17.11C517.539 17.278 517.755 17.41 517.983 17.506C518.223 17.602 518.445 17.668 518.649 17.704C518.865 17.74 519.105 17.758 519.369 17.758C519.561 17.758 519.783 17.746 520.035 17.722C520.287 17.698 520.527 17.644 520.755 17.56C520.983 17.464 521.175 17.326 521.331 17.146C521.487 16.966 521.565 16.714 521.565 16.39C521.565 16.03 521.445 15.76 521.205 15.58C520.977 15.4 520.659 15.268 520.251 15.184C519.963 15.124 519.663 15.07 519.351 15.022C519.051 14.962 518.745 14.902 518.433 14.842C518.133 14.77 517.839 14.692 517.551 14.608C517.263 14.512 516.993 14.386 516.741 14.23C516.405 14.026 516.135 13.75 515.931 13.402C515.727 13.054 515.625 12.628 515.625 12.124C515.649 11.596 515.769 11.164 515.985 10.828C516.201 10.48 516.477 10.198 516.813 9.982C517.173 9.766 517.557 9.616 517.965 9.532C518.373 9.448 518.805 9.406 519.261 9.406C520.233 9.406 521.007 9.616 521.583 10.036C521.931 10.276 522.201 10.564 522.393 10.9C522.585 11.236 522.705 11.59 522.753 11.962H521.331C521.247 11.614 521.019 11.332 520.647 11.116C520.275 10.9 519.801 10.786 519.225 10.774ZM526.187 14.824C526.223 15.244 526.307 15.634 526.439 15.994C526.583 16.342 526.775 16.648 527.015 16.912C527.255 17.176 527.549 17.386 527.897 17.542C528.257 17.686 528.671 17.758 529.139 17.758C529.367 17.758 529.601 17.74 529.841 17.704C530.093 17.656 530.327 17.584 530.543 17.488C530.759 17.38 530.951 17.242 531.119 17.074C531.287 16.906 531.413 16.702 531.497 16.462H533.063C532.955 16.918 532.769 17.314 532.505 17.65C532.253 17.986 531.947 18.262 531.587 18.478C531.239 18.694 530.849 18.856 530.417 18.964C529.985 19.06 529.547 19.108 529.103 19.108C528.347 19.108 527.687 18.988 527.123 18.748C526.571 18.508 526.109 18.178 525.737 17.758C525.365 17.326 525.089 16.816 524.909 16.228C524.729 15.628 524.639 14.974 524.639 14.266C524.639 13.558 524.735 12.91 524.927 12.322C525.131 11.722 525.419 11.206 525.791 10.774C526.163 10.342 526.619 10.006 527.159 9.766C527.699 9.526 528.341 9.406 529.085 9.406C529.841 9.406 530.495 9.556 531.047 9.856C531.599 10.156 532.043 10.552 532.379 11.044C532.715 11.524 532.949 12.046 533.081 12.61C533.225 13.174 533.285 13.696 533.261 14.176C533.261 14.284 533.255 14.392 533.243 14.5C533.243 14.608 533.237 14.716 533.225 14.824H526.187ZM531.713 13.492C531.689 12.688 531.437 12.034 530.957 11.53C530.477 11.026 529.835 10.774 529.031 10.774C528.587 10.774 528.197 10.846 527.861 10.99C527.525 11.134 527.243 11.332 527.015 11.584C526.787 11.836 526.607 12.13 526.475 12.466C526.343 12.79 526.259 13.132 526.223 13.492H531.713ZM535.317 19V9.514H536.793L536.865 10.954C537.021 10.69 537.213 10.462 537.441 10.27C537.681 10.078 537.939 9.916 538.215 9.784C538.491 9.652 538.779 9.556 539.079 9.496C539.391 9.436 539.691 9.406 539.979 9.406C540.663 9.406 541.239 9.52 541.707 9.748C542.175 9.964 542.547 10.27 542.823 10.666C543.099 11.05 543.297 11.512 543.417 12.052C543.537 12.58 543.597 13.15 543.597 13.762V19H542.067V14.176C542.067 13.732 542.037 13.306 541.977 12.898C541.929 12.49 541.821 12.13 541.653 11.818C541.497 11.494 541.269 11.236 540.969 11.044C540.669 10.852 540.267 10.756 539.763 10.756C539.271 10.768 538.833 10.888 538.449 11.116C538.077 11.344 537.777 11.614 537.549 11.926C537.273 12.322 537.087 12.76 536.991 13.24C536.895 13.708 536.847 14.182 536.847 14.662V19H535.317ZM548.346 9.514H551.262V10.864H548.346V15.796C548.346 16.072 548.358 16.33 548.382 16.57C548.418 16.798 548.478 17.002 548.562 17.182C548.658 17.35 548.79 17.488 548.958 17.596C549.138 17.692 549.378 17.746 549.678 17.758C549.954 17.758 550.194 17.71 550.398 17.614C550.614 17.518 550.794 17.404 550.938 17.272L551.604 18.388C551.292 18.652 550.968 18.838 550.632 18.946C550.296 19.054 549.924 19.108 549.516 19.108C549 19.108 548.568 19.036 548.22 18.892C547.872 18.736 547.578 18.514 547.338 18.226C547.134 17.95 546.996 17.626 546.924 17.254C546.852 16.882 546.816 16.462 546.816 15.994V10.864H545.268V9.514H546.816V6.67H548.346V9.514ZM559.335 17.794C559.131 18.07 558.897 18.292 558.633 18.46C558.369 18.628 558.093 18.76 557.805 18.856C557.529 18.952 557.247 19.018 556.959 19.054C556.683 19.09 556.407 19.108 556.131 19.108C555.687 19.108 555.267 19.054 554.871 18.946C554.475 18.838 554.115 18.664 553.791 18.424C553.479 18.184 553.227 17.884 553.035 17.524C552.855 17.164 552.765 16.756 552.765 16.3C552.765 15.76 552.861 15.31 553.053 14.95C553.257 14.578 553.527 14.278 553.863 14.05C554.199 13.822 554.583 13.666 555.015 13.582C555.459 13.486 555.927 13.438 556.419 13.438H559.209C559.209 12.634 559.035 11.998 558.687 11.53C558.339 11.05 557.751 10.798 556.923 10.774C556.419 10.774 555.975 10.858 555.591 11.026C555.207 11.194 554.943 11.47 554.799 11.854H553.161C553.245 11.422 553.413 11.056 553.665 10.756C553.917 10.444 554.217 10.192 554.565 10C554.913 9.796 555.291 9.646 555.699 9.55C556.107 9.454 556.515 9.406 556.923 9.406C557.631 9.406 558.225 9.526 558.705 9.766C559.197 9.994 559.593 10.3 559.893 10.684C560.193 11.056 560.403 11.512 560.523 12.052C560.643 12.592 560.703 13.198 560.703 13.87V19H559.425L559.335 17.794ZM557.535 14.716C557.247 14.716 556.911 14.722 556.527 14.734C556.155 14.734 555.795 14.77 555.447 14.842C555.099 14.914 554.817 15.064 554.601 15.292C554.397 15.52 554.295 15.82 554.295 16.192C554.295 16.468 554.349 16.702 554.457 16.894C554.565 17.086 554.709 17.248 554.889 17.38C555.081 17.512 555.297 17.608 555.537 17.668C555.777 17.728 556.023 17.758 556.275 17.758C557.175 17.758 557.883 17.542 558.399 17.11C558.927 16.666 559.197 16.024 559.209 15.184V14.716H557.535ZM565.467 9.514H568.005V10.864H565.467V15.778C565.467 16.426 565.593 16.906 565.845 17.218C566.097 17.518 566.565 17.668 567.249 17.668H567.951V19H566.925C565.845 19 565.077 18.754 564.621 18.262C564.165 17.77 563.937 16.996 563.937 15.94V10.864H562.389V9.514H563.937V6.688H565.467V9.514ZM570.617 6.04C570.905 6.04 571.151 6.136 571.355 6.328C571.559 6.508 571.661 6.748 571.661 7.048C571.661 7.348 571.559 7.594 571.355 7.786C571.151 7.978 570.905 8.074 570.617 8.074C570.317 8.074 570.071 7.978 569.879 7.786C569.687 7.594 569.591 7.348 569.591 7.048C569.591 6.748 569.687 6.508 569.879 6.328C570.071 6.136 570.317 6.04 570.617 6.04ZM569.861 19V9.514H571.391V19H569.861ZM578.112 9.406C578.868 9.406 579.522 9.526 580.074 9.766C580.626 10.006 581.088 10.342 581.46 10.774C581.844 11.206 582.126 11.722 582.306 12.322C582.498 12.91 582.594 13.558 582.594 14.266C582.594 14.974 582.498 15.628 582.306 16.228C582.126 16.816 581.844 17.326 581.46 17.758C581.088 18.178 580.62 18.508 580.056 18.748C579.492 18.988 578.832 19.108 578.076 19.108C577.32 19.108 576.66 18.988 576.096 18.748C575.544 18.508 575.076 18.178 574.692 17.758C574.32 17.326 574.038 16.816 573.846 16.228C573.666 15.628 573.576 14.974 573.576 14.266C573.576 13.558 573.666 12.91 573.846 12.322C574.038 11.722 574.32 11.206 574.692 10.774C575.076 10.342 575.556 10.006 576.132 9.766C576.708 9.526 577.368 9.406 578.112 9.406ZM578.076 17.758C578.592 17.758 579.036 17.668 579.408 17.488C579.792 17.308 580.104 17.062 580.344 16.75C580.596 16.426 580.776 16.054 580.884 15.634C581.004 15.214 581.064 14.758 581.064 14.266C581.064 13.786 581.004 13.336 580.884 12.916C580.776 12.484 580.596 12.112 580.344 11.8C580.104 11.476 579.792 11.224 579.408 11.044C579.036 10.864 578.592 10.774 578.076 10.774C577.56 10.774 577.116 10.864 576.744 11.044C576.372 11.224 576.06 11.476 575.808 11.8C575.568 12.112 575.388 12.484 575.268 12.916C575.16 13.336 575.106 13.786 575.106 14.266C575.106 14.758 575.16 15.214 575.268 15.634C575.388 16.054 575.568 16.426 575.808 16.75C576.06 17.062 576.372 17.308 576.744 17.488C577.116 17.668 577.56 17.758 578.076 17.758ZM584.642 19V9.514H586.118L586.19 10.954C586.346 10.69 586.538 10.462 586.766 10.27C587.006 10.078 587.264 9.916 587.54 9.784C587.816 9.652 588.104 9.556 588.404 9.496C588.716 9.436 589.016 9.406 589.304 9.406C589.988 9.406 590.564 9.52 591.032 9.748C591.5 9.964 591.872 10.27 592.148 10.666C592.424 11.05 592.622 11.512 592.742 12.052C592.862 12.58 592.922 13.15 592.922 13.762V19H591.392V14.176C591.392 13.732 591.362 13.306 591.302 12.898C591.254 12.49 591.146 12.13 590.978 11.818C590.822 11.494 590.594 11.236 590.294 11.044C589.994 10.852 589.592 10.756 589.088 10.756C588.596 10.768 588.158 10.888 587.774 11.116C587.402 11.344 587.102 11.614 586.874 11.926C586.598 12.322 586.412 12.76 586.316 13.24C586.22 13.708 586.172 14.182 586.172 14.662V19H584.642Z" fill="#666666"/>
<path d="M371.996 19H370.07L369.962 17.686C369.614 18.19 369.176 18.55 368.648 18.766C368.12 18.982 367.526 19.102 366.866 19.126C366.134 19.114 365.504 18.982 364.976 18.73C364.448 18.466 364.01 18.118 363.662 17.686C363.314 17.242 363.056 16.732 362.888 16.156C362.732 15.58 362.654 14.968 362.654 14.32C362.654 13.612 362.744 12.958 362.924 12.358C363.116 11.758 363.398 11.236 363.77 10.792C364.142 10.348 364.598 10 365.138 9.748C365.678 9.484 366.308 9.352 367.028 9.352C367.544 9.352 368.066 9.436 368.594 9.604C369.122 9.772 369.572 10.084 369.944 10.54V6.274H371.996V19ZM367.262 11.206C366.806 11.206 366.416 11.284 366.092 11.44C365.768 11.596 365.498 11.812 365.282 12.088C365.078 12.364 364.928 12.694 364.832 13.078C364.736 13.45 364.688 13.852 364.688 14.284C364.688 14.716 364.736 15.118 364.832 15.49C364.928 15.862 365.078 16.186 365.282 16.462C365.498 16.738 365.768 16.96 366.092 17.128C366.428 17.284 366.83 17.362 367.298 17.362C367.742 17.362 368.126 17.278 368.45 17.11C368.786 16.93 369.062 16.696 369.278 16.408C369.506 16.12 369.674 15.79 369.782 15.418C369.89 15.046 369.944 14.662 369.944 14.266C369.944 13.846 369.89 13.45 369.782 13.078C369.686 12.706 369.53 12.388 369.314 12.124C369.098 11.848 368.822 11.632 368.486 11.476C368.15 11.308 367.742 11.218 367.262 11.206ZM378.495 9.352C379.251 9.352 379.917 9.472 380.493 9.712C381.069 9.952 381.555 10.288 381.951 10.72C382.359 11.14 382.665 11.65 382.869 12.25C383.073 12.85 383.175 13.516 383.175 14.248C383.175 14.992 383.073 15.664 382.869 16.264C382.677 16.852 382.383 17.362 381.987 17.794C381.591 18.226 381.099 18.556 380.511 18.784C379.935 19.012 379.263 19.126 378.495 19.126C377.739 19.126 377.073 19.012 376.497 18.784C375.921 18.544 375.435 18.214 375.039 17.794C374.655 17.362 374.361 16.846 374.157 16.246C373.965 15.646 373.869 14.98 373.869 14.248C373.869 13.516 373.965 12.85 374.157 12.25C374.361 11.65 374.661 11.14 375.057 10.72C375.453 10.288 375.939 9.952 376.515 9.712C377.091 9.472 377.751 9.352 378.495 9.352ZM378.495 17.344C378.963 17.344 379.359 17.266 379.683 17.11C380.019 16.942 380.289 16.72 380.493 16.444C380.709 16.168 380.865 15.844 380.961 15.472C381.069 15.1 381.123 14.698 381.123 14.266C381.123 13.834 381.069 13.432 380.961 13.06C380.865 12.676 380.709 12.346 380.493 12.07C380.289 11.794 380.019 11.578 379.683 11.422C379.359 11.266 378.963 11.188 378.495 11.188C378.039 11.188 377.649 11.266 377.325 11.422C377.001 11.578 376.731 11.794 376.515 12.07C376.299 12.346 376.137 12.676 376.029 13.06C375.933 13.432 375.885 13.834 375.885 14.266C375.885 14.698 375.933 15.1 376.029 15.472C376.137 15.844 376.293 16.168 376.497 16.444C376.713 16.72 376.983 16.942 377.307 17.11C377.643 17.266 378.039 17.344 378.495 17.344ZM384.05 9.514H386.318L388.298 16.822L390.44 9.514H392.744L394.886 16.822L396.866 9.514H399.062L396.11 19H393.698L391.556 12.016L389.468 19H386.984L384.05 9.514ZM400.298 19V9.514H402.26L402.368 10.828C402.716 10.336 403.148 9.97 403.664 9.73C404.192 9.478 404.75 9.352 405.338 9.352C406.01 9.352 406.574 9.466 407.03 9.694C407.498 9.922 407.876 10.234 408.164 10.63C408.464 11.026 408.674 11.494 408.794 12.034C408.926 12.574 408.992 13.162 408.992 13.798V19H406.94V14.104C406.94 13.696 406.91 13.318 406.85 12.97C406.802 12.622 406.7 12.316 406.544 12.052C406.388 11.776 406.166 11.56 405.878 11.404C405.602 11.248 405.242 11.17 404.798 11.17C404.378 11.17 403.994 11.272 403.646 11.476C403.31 11.68 403.046 11.944 402.854 12.268C402.674 12.592 402.542 12.952 402.458 13.348C402.386 13.744 402.35 14.122 402.35 14.482V19H400.298ZM415.427 9.352C416.183 9.352 416.849 9.472 417.425 9.712C418.001 9.952 418.487 10.288 418.883 10.72C419.291 11.14 419.597 11.65 419.801 12.25C420.005 12.85 420.107 13.516 420.107 14.248C420.107 14.992 420.005 15.664 419.801 16.264C419.609 16.852 419.315 17.362 418.919 17.794C418.523 18.226 418.031 18.556 417.443 18.784C416.867 19.012 416.195 19.126 415.427 19.126C414.671 19.126 414.005 19.012 413.429 18.784C412.853 18.544 412.367 18.214 411.971 17.794C411.587 17.362 411.293 16.846 411.089 16.246C410.897 15.646 410.801 14.98 410.801 14.248C410.801 13.516 410.897 12.85 411.089 12.25C411.293 11.65 411.593 11.14 411.989 10.72C412.385 10.288 412.871 9.952 413.447 9.712C414.023 9.472 414.683 9.352 415.427 9.352ZM415.427 17.344C415.895 17.344 416.291 17.266 416.615 17.11C416.951 16.942 417.221 16.72 417.425 16.444C417.641 16.168 417.797 15.844 417.893 15.472C418.001 15.1 418.055 14.698 418.055 14.266C418.055 13.834 418.001 13.432 417.893 13.06C417.797 12.676 417.641 12.346 417.425 12.07C417.221 11.794 416.951 11.578 416.615 11.422C416.291 11.266 415.895 11.188 415.427 11.188C414.971 11.188 414.581 11.266 414.257 11.422C413.933 11.578 413.663 11.794 413.447 12.07C413.231 12.346 413.069 12.676 412.961 13.06C412.865 13.432 412.817 13.834 412.817 14.266C412.817 14.698 412.865 15.1 412.961 15.472C413.069 15.844 413.225 16.168 413.429 16.444C413.645 16.72 413.915 16.942 414.239 17.11C414.575 17.266 414.971 17.344 415.427 17.344ZM421.971 19V6.274H424.023V19H421.971ZM432.381 17.83C432.069 18.274 431.655 18.604 431.139 18.82C430.623 19.024 430.047 19.126 429.411 19.126C428.907 19.126 428.445 19.066 428.025 18.946C427.617 18.826 427.257 18.646 426.945 18.406C426.633 18.154 426.387 17.848 426.207 17.488C426.027 17.116 425.937 16.696 425.937 16.228C425.937 15.712 426.039 15.274 426.243 14.914C426.447 14.542 426.723 14.242 427.071 14.014C427.431 13.786 427.851 13.618 428.331 13.51C428.811 13.39 429.315 13.33 429.843 13.33H432.273C432.273 12.634 432.117 12.094 431.805 11.71C431.493 11.326 430.947 11.128 430.167 11.116C429.711 11.116 429.315 11.194 428.979 11.35C428.655 11.506 428.439 11.764 428.331 12.124H426.225C426.297 11.62 426.459 11.194 426.711 10.846C426.975 10.498 427.287 10.21 427.647 9.982C428.019 9.754 428.427 9.592 428.871 9.496C429.327 9.4 429.783 9.352 430.239 9.352C430.827 9.352 431.373 9.43 431.877 9.586C432.381 9.742 432.819 10.006 433.191 10.378C433.611 10.81 433.893 11.326 434.037 11.926C434.181 12.526 434.253 13.18 434.253 13.888V19H432.471L432.381 17.83ZM432.273 14.788H430.293C429.945 14.788 429.597 14.818 429.249 14.878C428.901 14.926 428.601 15.052 428.349 15.256C428.109 15.448 427.989 15.73 427.989 16.102C427.989 16.558 428.151 16.906 428.475 17.146C428.811 17.374 429.219 17.488 429.699 17.488C430.071 17.488 430.413 17.44 430.725 17.344C431.049 17.248 431.325 17.092 431.553 16.876C431.781 16.648 431.955 16.366 432.075 16.03C432.207 15.682 432.273 15.268 432.273 14.788ZM445.438 19H443.512L443.404 17.686C443.056 18.19 442.618 18.55 442.09 18.766C441.562 18.982 440.968 19.102 440.308 19.126C439.576 19.114 438.946 18.982 438.418 18.73C437.89 18.466 437.452 18.118 437.104 17.686C436.756 17.242 436.498 16.732 436.33 16.156C436.174 15.58 436.096 14.968 436.096 14.32C436.096 13.612 436.186 12.958 436.366 12.358C436.558 11.758 436.84 11.236 437.212 10.792C437.584 10.348 438.04 10 438.58 9.748C439.12 9.484 439.75 9.352 440.47 9.352C440.986 9.352 441.508 9.436 442.036 9.604C442.564 9.772 443.014 10.084 443.386 10.54V6.274H445.438V19ZM440.704 11.206C440.248 11.206 439.858 11.284 439.534 11.44C439.21 11.596 438.94 11.812 438.724 12.088C438.52 12.364 438.37 12.694 438.274 13.078C438.178 13.45 438.13 13.852 438.13 14.284C438.13 14.716 438.178 15.118 438.274 15.49C438.37 15.862 438.52 16.186 438.724 16.462C438.94 16.738 439.21 16.96 439.534 17.128C439.87 17.284 440.272 17.362 440.74 17.362C441.184 17.362 441.568 17.278 441.892 17.11C442.228 16.93 442.504 16.696 442.72 16.408C442.948 16.12 443.116 15.79 443.224 15.418C443.332 15.046 443.386 14.662 443.386 14.266C443.386 13.846 443.332 13.45 443.224 13.078C443.128 12.706 442.972 12.388 442.756 12.124C442.54 11.848 442.264 11.632 441.928 11.476C441.592 11.308 441.184 11.218 440.704 11.206Z" fill="#2557D9"/>
<path d="M633.992 14.3311C634.212 14.3311 634.396 14.2607 634.607 14.0498L637.561 11.2109C637.71 11.0615 637.789 10.9033 637.789 10.6924C637.789 10.2793 637.464 9.98926 637.06 9.98926C636.866 9.98926 636.664 10.0684 636.523 10.2266L635.284 11.5449L634.739 12.1865L634.81 10.8857V3.37109C634.81 2.94043 634.44 2.58008 633.992 2.58008C633.553 2.58008 633.184 2.94043 633.184 3.37109V10.8857L633.245 12.1865L632.7 11.5449L631.47 10.2266C631.329 10.0684 631.118 9.98926 630.916 9.98926C630.512 9.98926 630.195 10.2793 630.195 10.6924C630.195 10.9033 630.283 11.0615 630.433 11.2109L633.377 14.0498C633.588 14.2607 633.781 14.3311 633.992 14.3311ZM626.469 22.9795H641.524C643.423 22.9795 644.407 22.0039 644.407 20.1318V15.0693C644.407 14.1904 644.293 13.7598 643.897 13.2061L640.962 9.29492C639.934 7.91504 639.239 7.23828 637.631 7.23828H636.436V8.66211H637.719C638.334 8.66211 638.958 9.17188 639.354 9.69922L642.351 13.8301C642.658 14.2344 642.544 14.4014 642.096 14.4014H636.831C636.321 14.4014 636.093 14.7617 636.093 15.1396V15.1748C636.093 16.2119 635.284 17.3193 633.992 17.3193C632.7 17.3193 631.9 16.2119 631.9 15.1748V15.1396C631.9 14.7617 631.663 14.4014 631.153 14.4014H625.906C625.44 14.4014 625.344 14.208 625.643 13.8301L628.64 9.69922C629.035 9.17188 629.659 8.66211 630.274 8.66211H631.566V7.23828H630.354C628.754 7.23828 628.051 7.91504 627.031 9.29492L624.096 13.2061C623.691 13.7598 623.586 14.1904 623.586 15.0693V20.1318C623.586 22.0039 624.57 22.9795 626.469 22.9795Z" fill="#2557D9"/>
</svg>
