<svg width="75" height="75" viewBox="0 0 75 75" fill="none" xmlns="http://www.w3.org/2000/svg">
<path d="M40.6533 46.8608C40.884 47.1025 41.1917 47.2344 41.5432 47.2344C42.2573 47.2344 42.8176 46.6741 42.8176 45.96C42.8176 45.6084 42.6858 45.2788 42.4331 45.0371L34.7097 37.5005L42.4331 29.9639C42.6858 29.7222 42.8176 29.3926 42.8176 29.041C42.8176 28.3379 42.2573 27.7776 41.5432 27.7776C41.1916 27.7776 40.884 27.8984 40.6533 28.1401L32.084 36.5117C31.7983 36.7864 31.6445 37.127 31.6445 37.5005C31.6445 37.874 31.7874 38.2036 32.084 38.4893L40.6533 46.8608Z" fill="#C0C0C0"/>
<circle cx="37.5" cy="37.5" r="37" stroke="#C0C0C0"/>
</svg>
