<svg width="75" height="75" viewBox="0 0 75 75" fill="none" xmlns="http://www.w3.org/2000/svg">
<circle cx="37.5" cy="37.5" r="37.5" fill="#121212"/>
<rect width="35" height="35" transform="translate(20.5547 55) rotate(-90)" fill="#121212"/>
<path d="M40.6572 46.8608C40.8879 47.1025 41.1956 47.2344 41.5471 47.2344C42.2612 47.2344 42.8215 46.6741 42.8215 45.96C42.8215 45.6084 42.6897 45.2788 42.437 45.0371L34.7136 37.5005L42.437 29.9639C42.6897 29.7222 42.8215 29.3926 42.8215 29.041C42.8215 28.3379 42.2612 27.7776 41.5471 27.7776C41.1956 27.7776 40.8879 27.8984 40.6572 28.1401L32.0879 36.5117C31.8022 36.7864 31.6484 37.127 31.6484 37.5005C31.6484 37.874 31.7913 38.2036 32.0879 38.4893L40.6572 46.8608Z" fill="white"/>
</svg>
