<svg width="63" height="63" viewBox="0 0 63 63" fill="none" xmlns="http://www.w3.org/2000/svg">
<g filter="url(#filter0_d_143_72)">
<path d="M22.0681 52.752C23.1755 52.752 24.0061 52.218 25.3508 51.0315L32.1338 45.0198H44.0979C50.0503 45.0198 53.3923 41.6184 53.3923 35.7451V20.3994C53.3923 14.5261 50.0503 11.1248 44.0979 11.1248H18.8843C12.9319 11.1248 9.58984 14.5261 9.58984 20.3994V35.7451C9.58984 41.6184 13.011 45.0198 18.7458 45.0198H19.5566V49.9043C19.5566 51.6643 20.4861 52.752 22.0681 52.752ZM23.0371 48.4014V42.7654C23.0371 41.5986 22.5427 41.1438 21.4155 41.1438H18.9832C15.2456 41.1438 13.4658 39.2651 13.4658 35.6265V20.5181C13.4658 16.8794 15.2456 15.0007 18.9832 15.0007H43.9792C47.7168 15.0007 49.5164 16.8794 49.5164 20.5181V35.6265C49.5164 39.2651 47.7168 41.1438 43.9792 41.1438H31.9163C30.7297 41.1438 30.1365 41.3416 29.3059 42.2117L23.0371 48.4014ZM20.4465 27.5977H28.7522C30.2354 27.5977 30.9868 26.866 30.9868 25.3828V21.665C30.9868 20.1819 30.2354 19.47 28.7522 19.47H20.4465C18.9436 19.47 18.1921 20.1819 18.1921 21.665V25.3828C18.1921 26.866 18.9436 27.5977 20.4465 27.5977ZM36.4646 35.4089H42.3774C43.8804 35.4089 44.6121 34.697 44.6121 33.1941V23.0098C44.6121 21.5266 43.8804 20.7949 42.3774 20.7949H36.4646C34.9617 20.7949 34.23 21.5266 34.23 23.0098V33.1941C34.23 34.697 34.9617 35.4089 36.4646 35.4089ZM22.6812 36.6152H29.8596C31.3625 36.6152 32.0942 35.9033 32.0942 34.4004V31.9087C32.0942 30.4058 31.3625 29.6938 29.8596 29.6938H22.6812C21.1782 29.6938 20.4465 30.4058 20.4465 31.9087V34.4004C20.4465 35.9033 21.1782 36.6152 22.6812 36.6152Z" fill="white"/>
</g>
<defs>
<filter id="filter0_d_143_72" x="-4" y="0" width="71" height="71" filterUnits="userSpaceOnUse" color-interpolation-filters="sRGB">
<feFlood flood-opacity="0" result="BackgroundImageFix"/>
<feColorMatrix in="SourceAlpha" type="matrix" values="0 0 0 0 0 0 0 0 0 0 0 0 0 0 0 0 0 0 127 0" result="hardAlpha"/>
<feOffset dy="4"/>
<feGaussianBlur stdDeviation="2"/>
<feComposite in2="hardAlpha" operator="out"/>
<feColorMatrix type="matrix" values="0 0 0 0 0 0 0 0 0 0 0 0 0 0 0 0 0 0 0.25 0"/>
<feBlend mode="normal" in2="BackgroundImageFix" result="effect1_dropShadow_143_72"/>
<feBlend mode="normal" in="SourceGraphic" in2="effect1_dropShadow_143_72" result="shape"/>
</filter>
</defs>
</svg>
