<svg width="63" height="63" viewBox="0 0 63 63" fill="none" xmlns="http://www.w3.org/2000/svg">
<path d="M31.4998 13.7351C32.9236 13.7351 34.0706 12.5881 34.0706 11.1643C34.0706 9.7207 32.9236 8.59351 31.4998 8.59351C30.0562 8.59351 28.929 9.7207 28.929 11.1643C28.929 12.5881 30.0759 13.7351 31.4998 13.7351ZM17.7163 22.021C19.1599 22.021 20.2871 20.874 20.3069 19.4502C20.3069 18.0066 19.1401 16.8794 17.7163 16.8794C16.2925 16.8794 15.1455 18.0264 15.1455 19.4502C15.1455 20.874 16.2925 22.021 17.7163 22.021ZM45.2634 22.021C46.6873 22.021 47.8342 20.874 47.8342 19.4502C47.8342 18.0264 46.6873 16.8794 45.2634 16.8794C43.8396 16.8794 42.6926 18.0066 42.6926 19.4502C42.6926 20.874 43.8396 22.021 45.2634 22.021ZM31.4998 22.9504C32.9236 22.9504 34.0706 21.8035 34.0706 20.3796C34.0706 18.936 32.9236 17.8088 31.4998 17.8088C30.0759 17.8088 28.929 18.936 28.929 20.3796C28.929 21.8035 30.0759 22.9504 31.4998 22.9504ZM13.8403 31.0188C15.2642 31.0188 16.4111 29.8718 16.4111 28.448C16.4111 27.0242 15.2642 25.8772 13.8403 25.8772C12.4165 25.8772 11.2695 27.0242 11.2695 28.448C11.2695 29.8916 12.4165 31.0188 13.8403 31.0188ZM49.1592 31.0188C50.583 31.0188 51.7102 29.8916 51.7102 28.448C51.7102 27.0242 50.583 25.8772 49.1394 25.8772C47.7156 25.8772 46.5686 27.0242 46.5686 28.448C46.5686 29.8718 47.7156 31.0188 49.1592 31.0188ZM31.4998 32.1658C32.9236 32.1658 34.0706 31.0188 34.0706 29.595C34.0706 28.1514 32.9236 27.0242 31.4998 27.0242C30.0562 27.0242 28.929 28.1711 28.929 29.595C28.929 31.0386 30.0759 32.1658 31.4998 32.1658ZM15.363 40.4319C16.7869 40.4319 17.9338 39.2849 17.9338 37.8413C17.9338 36.4175 16.7869 35.2705 15.363 35.2705C13.9194 35.2705 12.7922 36.4175 12.7922 37.8413C12.7922 39.2849 13.9392 40.4319 15.363 40.4319ZM47.6365 40.4319C49.0603 40.4319 50.2073 39.2849 50.2073 37.8413C50.2073 36.4175 49.0603 35.2705 47.6365 35.2705C46.1929 35.2705 45.0657 36.4175 45.0657 37.8413C45.0657 39.2849 46.1929 40.4319 47.6365 40.4319ZM21.79 48.0652C23.2139 48.0652 24.3608 46.9182 24.3608 45.4944C24.3806 44.0508 23.2139 42.9236 21.79 42.9236C20.3662 42.9236 19.2192 44.0706 19.2192 45.4944C19.2192 46.9182 20.3662 48.0652 21.79 48.0652ZM41.1897 48.0652C42.6135 48.0652 43.7605 46.9182 43.7605 45.4944C43.7803 44.0706 42.6333 42.9236 41.1897 42.9236C39.7659 42.9236 38.6189 44.0508 38.6189 45.4944C38.6189 46.9182 39.7659 48.0652 41.1897 48.0652ZM31.4998 50.9919C32.9236 50.9919 34.0706 49.8647 34.0706 48.4211C34.0706 46.9973 32.9236 45.8503 31.4998 45.8503C30.0759 45.8503 28.929 46.9973 28.929 48.4211C28.929 49.845 30.0562 50.9919 31.4998 50.9919Z" fill="white"/>
</svg>
