<svg width="633" height="111" viewBox="0 0 633 111" fill="none" xmlns="http://www.w3.org/2000/svg">
<path d="M53.184 58.032H57.312L53.184 49.536L52.128 47.28L47.472 37.776L34.512 11.04L29.28 0.0959988L24 11.04L11.04 37.776L6.432 47.28L5.328 49.536L1.2 58.032H5.328H11.808L16.992 47.28H41.568L46.704 58.032H53.184ZM29.28 21.888L36.96 37.776H21.552L29.28 21.888ZM72.036 58.032V36.432H81.492L98.292 58.032H110.388L93.492 36.384C98.196 36.048 102.228 34.128 105.492 30.624C108.756 27.168 110.388 23.04 110.388 18.24C110.388 13.296 108.612 9.024 105.06 5.472C101.508 1.92 97.236 0.0959988 92.244 0.0959988H72.036H62.58V36.432V58.032H72.036ZM72.036 26.928V9.6H92.244C94.596 9.6 96.612 10.464 98.34 12.144C100.02 13.872 100.884 15.888 100.884 18.24C100.884 20.64 100.02 22.656 98.34 24.384C96.612 26.112 94.596 26.928 92.244 26.928H86.1H81.156H72.036ZM130.505 9.6V58.032H140.009V9.6H157.193V0.0959988H140.009H113.273V9.6H130.505ZM203.63 48.528V33.792H225.134C227.15 33.792 228.83 34.56 230.27 36C231.71 37.44 232.43 39.168 232.43 41.184C232.43 43.2 231.71 44.928 230.27 46.368C228.83 47.808 227.15 48.528 225.134 48.528H203.63ZM194.126 33.792V58.032H203.63H225.134C229.742 58.032 233.678 56.4 236.99 53.088C240.254 49.776 241.934 45.792 241.934 41.184C241.934 38.592 241.358 36.096 240.254 33.792C239.342 31.968 238.19 30.384 236.798 29.04C236.75 29.04 236.414 28.704 235.742 28.128C236.702 26.976 237.518 25.728 238.286 24.288C239.342 22.032 239.918 19.584 239.918 16.944C239.918 12.336 238.238 8.352 234.974 5.04C231.71 1.776 227.726 0.0959988 223.118 0.0959988H203.63H194.126V24.288V29.04V33.792ZM203.63 24.288V9.6H223.118C225.134 9.6 226.862 10.32 228.302 11.76C229.742 13.2 230.462 14.928 230.462 16.944C230.462 18.96 229.742 20.688 228.302 22.128C226.862 23.568 225.134 24.288 223.118 24.288H203.63ZM256.713 58.032H286.953V48.528H256.713V0.0959988H247.209V48.528V58.032H256.713ZM319.721 0.0959988H321.833C327.017 0.0959988 331.865 1.392 336.329 3.984C340.745 6.576 344.297 10.128 346.889 14.544C349.481 19.008 350.777 23.856 350.777 29.04C350.777 34.272 349.481 39.12 346.889 43.584C344.297 48.048 340.745 51.552 336.329 54.144C331.865 56.736 327.017 58.032 321.833 58.032H319.721C314.489 58.032 309.641 56.736 305.225 54.144C300.761 51.552 297.257 48.048 294.665 43.584C292.073 39.12 290.777 34.272 290.777 29.04C290.777 23.856 292.073 19.008 294.665 14.544C297.257 10.128 300.761 6.576 305.225 3.984C309.641 1.392 314.489 0.0959988 319.721 0.0959988ZM319.721 9.6C314.345 9.6 309.785 11.52 305.945 15.312C302.105 19.152 300.233 23.712 300.233 29.04C300.233 34.416 302.105 38.976 305.945 42.816C309.785 46.656 314.345 48.528 319.721 48.528H321.833C327.161 48.528 331.721 46.656 335.561 42.816C339.353 38.976 341.273 34.416 341.273 29.04C341.273 23.712 339.353 19.152 335.561 15.312C331.721 11.52 327.161 9.6 321.833 9.6H319.721ZM406.496 27.456H386.096V36.96H404.864C404.336 38.112 403.808 39.072 403.28 39.84C401.456 42.528 399.152 44.64 396.32 46.176C393.44 47.76 390.368 48.528 387.104 48.528H384.992C379.616 48.528 375.056 46.656 371.264 42.816C367.424 38.976 365.552 34.416 365.552 29.04C365.552 23.712 367.424 19.152 371.264 15.312C375.056 11.52 379.616 9.6 384.992 9.6H387.104C390.368 9.6 393.44 10.416 396.32 11.952C399.152 13.488 401.456 15.6 403.28 18.24H413.984C411.776 12.864 408.224 8.496 403.328 5.136C398.432 1.776 393.056 0.0959988 387.104 0.0959988H384.992C381.344 0.0959988 377.84 0.767999 374.48 2.112C371.12 3.456 368.144 5.28 365.552 7.632C362.576 10.368 360.224 13.584 358.544 17.28C356.864 21.024 356.048 24.912 356.048 29.04C356.048 33.216 356.864 37.152 358.544 40.848C360.224 44.592 362.576 47.76 365.552 50.448C371.072 55.536 377.552 58.032 384.992 58.032H387.104C392 58.032 396.608 56.88 400.832 54.576C405.056 52.272 408.464 49.104 411.152 45.12C412.88 42.576 414.128 39.84 414.992 36.96C415.712 34.272 416.096 31.632 416.096 29.04C416.096 28.896 416.048 28.656 416.048 28.272C416.048 27.936 416.048 27.648 416.048 27.456H406.496ZM471.813 27.456H451.413V36.96H470.181C469.653 38.112 469.125 39.072 468.597 39.84C466.773 42.528 464.469 44.64 461.637 46.176C458.757 47.76 455.685 48.528 452.421 48.528H450.309C444.933 48.528 440.373 46.656 436.581 42.816C432.741 38.976 430.869 34.416 430.869 29.04C430.869 23.712 432.741 19.152 436.581 15.312C440.373 11.52 444.933 9.6 450.309 9.6H452.421C455.685 9.6 458.757 10.416 461.637 11.952C464.469 13.488 466.773 15.6 468.597 18.24H479.301C477.093 12.864 473.541 8.496 468.645 5.136C463.749 1.776 458.373 0.0959988 452.421 0.0959988H450.309C446.661 0.0959988 443.157 0.767999 439.797 2.112C436.437 3.456 433.461 5.28 430.869 7.632C427.893 10.368 425.541 13.584 423.861 17.28C422.181 21.024 421.365 24.912 421.365 29.04C421.365 33.216 422.181 37.152 423.861 40.848C425.541 44.592 427.893 47.76 430.869 50.448C436.389 55.536 442.869 58.032 450.309 58.032H452.421C457.317 58.032 461.925 56.88 466.149 54.576C470.373 52.272 473.781 49.104 476.469 45.12C478.197 42.576 479.445 39.84 480.309 36.96C481.029 34.272 481.413 31.632 481.413 29.04C481.413 28.896 481.365 28.656 481.365 28.272C481.365 27.936 481.365 27.648 481.365 27.456H471.813ZM527.387 48.528H496.187V33.792H527.387V24.288H496.187V9.6H527.387V0.0959988H486.683V9.6V24.288V33.792V48.528V58.032H527.387V48.528ZM542.143 58.032V36.432H551.599L568.399 58.032H580.495L563.599 36.384C568.303 36.048 572.335 34.128 575.599 30.624C578.863 27.168 580.495 23.04 580.495 18.24C580.495 13.296 578.719 9.024 575.167 5.472C571.615 1.92 567.343 0.0959988 562.351 0.0959988H542.143H532.687V36.432V58.032H542.143ZM542.143 26.928V9.6H562.351C564.703 9.6 566.719 10.464 568.447 12.144C570.127 13.872 570.991 15.888 570.991 18.24C570.991 20.64 570.127 22.656 568.447 24.384C566.719 26.112 564.703 26.928 562.351 26.928H556.207H551.263H542.143ZM614.859 9.6C616.491 9.6 617.931 10.128 619.227 11.088C620.523 12.048 621.435 13.296 621.915 14.784H631.563C630.987 10.656 629.163 7.152 625.995 4.32C622.827 1.536 619.083 0.0959988 614.859 0.0959988H602.619C600.027 0.0959988 597.579 0.671997 595.275 1.824C592.395 3.264 590.091 5.28 588.363 7.968C586.635 10.656 585.771 13.68 585.771 16.944C585.771 19.536 586.299 21.984 587.451 24.288C588.267 26.064 589.419 27.648 590.955 29.04C592.155 30.288 593.595 31.296 595.275 32.064C597.483 33.216 599.883 33.792 602.571 33.792H614.859H614.907C616.923 33.84 618.651 34.56 620.091 36C621.531 37.44 622.251 39.168 622.251 41.184C622.251 43.2 621.483 44.928 620.043 46.368C618.603 47.808 616.875 48.528 614.859 48.528H602.619C600.987 48.528 599.547 48.048 598.251 47.088C596.955 46.128 596.091 44.88 595.611 43.344H595.275H585.915C586.299 46.176 587.307 48.72 588.987 51.024C590.619 53.328 592.731 55.056 595.275 56.304C597.579 57.456 600.027 58.032 602.619 58.032H614.859C619.467 58.032 623.451 56.4 626.763 53.088C630.075 49.776 631.755 45.792 631.755 41.184C631.755 38.736 631.179 36.288 630.027 33.792C629.163 32.064 628.011 30.48 626.571 29.04C623.307 25.92 619.419 24.336 614.955 24.288H614.859H602.619C600.555 24.288 598.827 23.568 597.387 22.128C595.947 20.688 595.275 18.96 595.275 16.944C595.275 14.928 595.947 13.2 597.387 11.76C598.827 10.32 600.555 9.6 602.619 9.6H614.859Z" fill="black"/>
<path opacity="0.6" d="M18.112 103L16.32 98.136H5.12L3.328 103H0.32L8.736 80.376H12.736L21.12 103H18.112ZM10.72 82.808L6.048 95.608H15.392L10.72 82.808ZM38.6215 102.872C38.6215 105.261 37.9815 107.139 36.7015 108.504C35.4215 109.869 33.4908 110.552 30.9095 110.552C30.0562 110.552 29.2348 110.456 28.4455 110.264C27.6775 110.072 26.9735 109.763 26.3335 109.336C25.7148 108.931 25.1815 108.408 24.7335 107.768C24.3068 107.149 24.0082 106.403 23.8375 105.528H26.6535C26.7815 106.019 26.9948 106.424 27.2935 106.744C27.6135 107.085 27.9762 107.352 28.3815 107.544C28.7868 107.757 29.2242 107.907 29.6935 107.992C30.1628 108.077 30.6215 108.12 31.0695 108.12C31.9228 108.12 32.6588 107.981 33.2775 107.704C33.8962 107.448 34.3975 107.085 34.7815 106.616C35.1655 106.147 35.4428 105.581 35.6135 104.92C35.8055 104.28 35.9015 103.576 35.9015 102.808V100.472C35.3468 101.453 34.5575 102.157 33.5335 102.584C32.5095 102.989 31.4428 103.192 30.3335 103.192C29.0535 103.171 27.9442 102.947 27.0055 102.52C26.0668 102.072 25.2988 101.464 24.7015 100.696C24.1042 99.928 23.6562 99.032 23.3575 98.008C23.0802 96.9627 22.9415 95.832 22.9415 94.616C22.9415 93.4 23.0908 92.2693 23.3895 91.224C23.6882 90.1573 24.1468 89.24 24.7655 88.472C25.3842 87.6827 26.1628 87.064 27.1015 86.616C28.0402 86.168 29.1602 85.944 30.4615 85.944C31.4428 85.944 32.4348 86.1253 33.4375 86.488C34.4402 86.8507 35.2615 87.4373 35.9015 88.248L36.0295 86.136H38.6215V102.872ZM30.6855 88.376C29.7682 88.376 28.9895 88.5467 28.3495 88.888C27.7095 89.208 27.1868 89.6453 26.7815 90.2C26.3975 90.7547 26.1095 91.416 25.9175 92.184C25.7468 92.9307 25.6615 93.7307 25.6615 94.584C25.6615 95.5227 25.7468 96.3547 25.9175 97.08C26.0882 97.784 26.3762 98.4133 26.7815 98.968C27.1868 99.5227 27.7095 99.9707 28.3495 100.312C28.9895 100.632 29.7788 100.792 30.7175 100.792C31.8055 100.792 32.7015 100.536 33.4055 100.024C34.1095 99.512 34.6748 98.872 35.1015 98.104C35.4002 97.5707 35.6135 96.9947 35.7415 96.376C35.8695 95.736 35.9335 95.1067 35.9335 94.488C35.9335 93.72 35.8588 93.016 35.7095 92.376C35.5815 91.736 35.3362 91.1387 34.9735 90.584C34.5468 89.9653 33.9815 89.4427 33.2775 89.016C32.5735 88.5893 31.7095 88.376 30.6855 88.376ZM45.006 95.576C45.07 96.3227 45.2193 97.016 45.454 97.656C45.71 98.2747 46.0513 98.8187 46.478 99.288C46.9047 99.7573 47.4273 100.131 48.046 100.408C48.686 100.664 49.422 100.792 50.254 100.792C50.6593 100.792 51.0753 100.76 51.502 100.696C51.95 100.611 52.366 100.483 52.75 100.312C53.134 100.12 53.4753 99.8747 53.774 99.576C54.0727 99.2773 54.2967 98.9147 54.446 98.488H57.23C57.038 99.2987 56.7073 100.003 56.238 100.6C55.79 101.197 55.246 101.688 54.606 102.072C53.9873 102.456 53.294 102.744 52.526 102.936C51.758 103.107 50.9793 103.192 50.19 103.192C48.846 103.192 47.6727 102.979 46.67 102.552C45.6887 102.125 44.8673 101.539 44.206 100.792C43.5447 100.024 43.054 99.1173 42.734 98.072C42.414 97.0053 42.254 95.8427 42.254 94.584C42.254 93.3253 42.4247 92.1733 42.766 91.128C43.1287 90.0613 43.6407 89.144 44.302 88.376C44.9633 87.608 45.774 87.0107 46.734 86.584C47.694 86.1573 48.8353 85.944 50.158 85.944C51.502 85.944 52.6647 86.2107 53.646 86.744C54.6273 87.2773 55.4167 87.9813 56.014 88.856C56.6113 89.7093 57.0273 90.6373 57.262 91.64C57.518 92.6427 57.6247 93.5707 57.582 94.424C57.582 94.616 57.5713 94.808 57.55 95C57.55 95.192 57.5393 95.384 57.518 95.576H45.006ZM54.83 93.208C54.7873 91.7787 54.3393 90.616 53.486 89.72C52.6327 88.824 51.4913 88.376 50.062 88.376C49.2727 88.376 48.5793 88.504 47.982 88.76C47.3847 89.016 46.8833 89.368 46.478 89.816C46.0727 90.264 45.7527 90.7867 45.518 91.384C45.2833 91.96 45.134 92.568 45.07 93.208H54.83ZM61.2378 103V86.136H63.8618L63.9898 88.696C64.2671 88.2267 64.6084 87.8213 65.0138 87.48C65.4404 87.1387 65.8991 86.8507 66.3898 86.616C66.8804 86.3813 67.3924 86.2107 67.9258 86.104C68.4804 85.9973 69.0138 85.944 69.5258 85.944C70.7418 85.944 71.7658 86.1467 72.5978 86.552C73.4298 86.936 74.0911 87.48 74.5818 88.184C75.0724 88.8667 75.4244 89.688 75.6378 90.648C75.8511 91.5867 75.9578 92.6 75.9578 93.688V103H73.2378V94.424C73.2378 93.6347 73.1844 92.8773 73.0778 92.152C72.9924 91.4267 72.8004 90.7867 72.5018 90.232C72.2244 89.656 71.8191 89.1973 71.2858 88.856C70.7524 88.5147 70.0378 88.344 69.1418 88.344C68.2671 88.3653 67.4884 88.5787 66.8058 88.984C66.1444 89.3893 65.6111 89.8693 65.2058 90.424C64.7151 91.128 64.3844 91.9067 64.2138 92.76C64.0431 93.592 63.9578 94.4347 63.9578 95.288V103H61.2378ZM87.344 103.192C86 103.192 84.8373 102.979 83.856 102.552C82.8747 102.125 82.064 101.528 81.424 100.76C80.784 99.992 80.304 99.0853 79.984 98.04C79.664 96.9947 79.504 95.8533 79.504 94.616C79.504 93.4213 79.6747 92.3013 80.016 91.256C80.3573 90.1893 80.8587 89.272 81.52 88.504C82.1813 87.7147 83.0133 87.096 84.016 86.648C85.0187 86.1787 86.2347 85.944 87.664 85.944C88.5173 85.944 89.2747 86.04 89.936 86.232C90.5973 86.4027 91.216 86.6907 91.792 87.096C92.3893 87.48 92.9013 87.992 93.328 88.632C93.7547 89.272 94.064 90.0507 94.256 90.968H91.472C91.152 90.0293 90.64 89.3573 89.936 88.952C89.2533 88.5467 88.4427 88.3547 87.504 88.376C86.5867 88.376 85.776 88.5573 85.072 88.92C84.3893 89.2613 83.8347 89.72 83.408 90.296C83.0027 90.872 82.704 91.544 82.512 92.312C82.32 93.0587 82.224 93.8267 82.224 94.616C82.224 95.448 82.32 96.2373 82.512 96.984C82.7253 97.7307 83.0347 98.392 83.44 98.968C83.8667 99.5227 84.4107 99.9707 85.072 100.312C85.7333 100.632 86.5227 100.792 87.44 100.792C87.888 100.792 88.3253 100.749 88.752 100.664C89.2 100.579 89.6053 100.44 89.968 100.248C90.352 100.035 90.6827 99.7573 90.96 99.416C91.2373 99.0747 91.44 98.6587 91.568 98.168H94.384C94.2133 99.0427 93.904 99.8 93.456 100.44C93.0293 101.059 92.496 101.581 91.856 102.008C91.216 102.413 90.512 102.712 89.744 102.904C88.976 103.096 88.176 103.192 87.344 103.192ZM112.648 86.136V103C112.648 105.453 112.008 107.32 110.728 108.6C109.448 109.901 107.624 110.552 105.256 110.552C103.826 110.531 102.536 110.339 101.384 109.976C100.253 109.635 99.2075 109.016 98.2475 108.12L99.4315 105.976C100.264 106.637 101.149 107.16 102.088 107.544C103.048 107.928 104.05 108.12 105.095 108.12C105.97 108.12 106.717 107.981 107.336 107.704C107.954 107.448 108.456 107.075 108.84 106.584C109.245 106.115 109.533 105.549 109.704 104.888C109.896 104.227 109.992 103.512 109.992 102.744V100.728C109.714 101.155 109.362 101.539 108.936 101.88C108.53 102.2 108.082 102.467 107.592 102.68C107.122 102.872 106.61 103.011 106.056 103.096C105.522 103.203 104.978 103.256 104.424 103.256C103.144 103.235 102.077 103.032 101.224 102.648C100.392 102.264 99.7195 101.731 99.2075 101.048C98.7168 100.365 98.3648 99.5547 98.1515 98.616C97.9382 97.656 97.8315 96.6 97.8315 95.448V86.136H100.552V94.68C100.552 95.448 100.594 96.2053 100.68 96.952C100.786 97.6987 100.989 98.36 101.288 98.936C101.586 99.512 102.024 99.9813 102.6 100.344C103.176 100.685 103.944 100.856 104.904 100.856C105.864 100.856 106.674 100.653 107.336 100.248C108.018 99.8427 108.541 99.3307 108.904 98.712C109.309 98.072 109.576 97.368 109.704 96.6C109.853 95.832 109.928 95.0427 109.928 94.232V86.136H112.648Z" fill="black"/>
</svg>
